<?xml version="1.0" encoding="UTF-8" standalone="no"?>
<!-- Created with Inkscape (http://www.inkscape.org/) -->

<svg
   xmlns:dc="http://purl.org/dc/elements/1.1/"
   xmlns:cc="http://creativecommons.org/ns#"
   xmlns:rdf="http://www.w3.org/1999/02/22-rdf-syntax-ns#"
   xmlns:svg="http://www.w3.org/2000/svg"
   xmlns="http://www.w3.org/2000/svg"
   xmlns:sodipodi="http://sodipodi.sourceforge.net/DTD/sodipodi-0.dtd"
   xmlns:inkscape="http://www.inkscape.org/namespaces/inkscape"
   width="72.208252mm"
   height="51.823921mm"
   viewBox="0 0 255.85601 183.62807"
   id="svg6290"
   version="1.1"
   inkscape:version="0.91 r13725"
   inkscape:export-filename="/home/ashley/projects/libgdx/CocoWiggler4/android/assets/coco2.png"
   inkscape:export-xdpi="90.050003"
   inkscape:export-ydpi="90.050003"
   sodipodi:docname="coco.svg">
  <defs
     id="defs6292" />
  <sodipodi:namedview
     id="base"
     pagecolor="#ffffff"
     bordercolor="#666666"
     borderopacity="1.0"
     inkscape:pageopacity="0.0"
     inkscape:pageshadow="2"
     inkscape:zoom="1.4142136"
     inkscape:cx="133.60335"
     inkscape:cy="69.476853"
     inkscape:document-units="px"
     inkscape:current-layer="layer1"
     showgrid="false"
     fit-margin-top="0"
     fit-margin-left="0"
     fit-margin-right="0"
     fit-margin-bottom="0"
     inkscape:window-width="1871"
     inkscape:window-height="1056"
     inkscape:window-x="49"
     inkscape:window-y="24"
     inkscape:window-maximized="1" />
  <metadata
     id="metadata6295">
    <rdf:RDF>
      <cc:Work
         rdf:about="">
        <dc:format>image/svg+xml</dc:format>
        <dc:type
           rdf:resource="http://purl.org/dc/dcmitype/StillImage" />
        <dc:title></dc:title>
      </cc:Work>
    </rdf:RDF>
  </metadata>
  <g
     inkscape:label="Layer 1"
     inkscape:groupmode="layer"
     id="layer1"
     transform="translate(-83.000724,-697.56435)">
    <path
       style="fill:#8f7454;fill-opacity:1;stroke:#000000;stroke-width:0.57200003;stroke-linecap:butt;stroke-linejoin:miter;stroke-miterlimit:4;stroke-dasharray:none;stroke-opacity:1"
       d="m 142.12889,851.09129 c -0.99131,0.79226 -2.21019,-0.26408 -3.26653,0 -0.53335,0.13335 -1.72794,1.03677 -2.04159,1.22495 -1.27219,0.76332 -0.53658,0.021 -2.04157,1.22496 -0.45092,0.36073 -0.81664,0.81663 -1.22495,1.22495 -0.27222,0.27221 -0.54443,0.54442 -0.81664,0.81663 -0.13611,0.1361 -0.30154,0.24816 -0.40831,0.40831 -1.65262,2.47892 1.1754,-1.27849 -0.81664,2.04159 -0.19806,0.3301 -0.54442,0.54442 -0.81663,0.81663 -0.27222,0.2722 -0.54442,0.54442 -0.81663,0.81663 -0.1361,0.13611 -0.30155,0.24816 -0.40832,0.40832 -0.16881,0.25322 -0.23949,0.56341 -0.40832,0.81663 -0.24779,0.37169 -1.04399,0.86305 -1.22495,1.22495 -0.0609,0.12173 0.13611,0.40831 0,0.40831 -0.1361,0 -0.12173,-0.46918 0,-0.40831 1.16144,0.58072 0.37219,1.3731 2.04159,0.81663 0.46555,-0.15518 0.78602,-0.59716 1.22495,-0.81663 1.07782,-0.53891 2.10175,-0.46719 3.26653,-0.81664 0.70203,-0.21061 1.33954,-0.60601 2.04157,-0.81663 1.32948,-0.39884 2.76639,-0.3777 4.08317,-0.81663 0.57744,-0.19248 1.10478,-0.51464 1.63327,-0.81663 0.42608,-0.24348 0.87794,-1.16364 1.22495,-0.81663 0.347,0.347 -0.54443,0.81663 -0.81663,1.22495 -0.27222,0.40831 -0.5314,0.82561 -0.81664,1.22494 -0.39555,0.55377 -0.84746,1.06703 -1.22495,1.63327 -0.16881,0.25323 -0.23949,0.56341 -0.40832,0.81663 -0.10676,0.16016 -0.40831,0.21584 -0.40831,0.40832 0,0.19248 0.22571,0.46919 0.40831,0.40831 0.36521,-0.12173 0.54443,-0.54442 0.81664,-0.81663 0.1361,-0.13611 0.24816,-0.30155 0.40831,-0.40832 0.50645,-0.33764 1.14632,-0.45142 1.63327,-0.81663 0.30797,-0.23098 0.54442,-0.54442 0.81664,-0.81663 0.40831,-0.40832 0.81663,-0.81663 1.22494,-1.22495 0.27221,-0.27221 0.49633,-0.60309 0.81664,-0.81663 0.11324,-0.0755 0.28657,-0.0609 0.40831,0 0.69704,0.34852 0.40831,0.95516 0.40831,1.63326 0,1.08885 0,2.1777 0,3.26653 0,0.097 -0.0457,1.54175 0,1.63327 0.45141,0.90281 0.25342,0.12671 0.81664,0.40832 0.17217,0.0861 0.23615,0.32223 0.40831,0.40832 0.24348,0.12173 0.57317,-0.12174 0.81663,0 0.34433,0.17215 0.45143,0.69489 0.81664,0.81663 0.55699,0.18566 1.6003,-0.0553 2.04158,-0.40832 1.50701,-1.20561 1.05895,-0.91839 1.63327,-2.4499 0.25735,-0.68628 0.67289,-1.32286 0.81663,-2.04158 0.13346,-0.66731 -0.19554,-1.38975 0,-2.04158 0.22805,-0.76016 0.90263,-1.31636 1.22496,-2.04158 0.22791,-0.51281 0.23085,-1.10089 0.40831,-1.63327 0.18999,-0.56999 0.9454,-1.66885 1.22495,-2.04158 0.11549,-0.15398 0.34745,-0.22571 0.4083,-0.40832 0.0861,-0.25824 -0.0861,-0.55838 0,-0.81663 0.12175,-0.3652 0.64448,-0.47231 0.81664,-0.81664 0.0609,-0.12173 -0.0609,-0.28658 0,-0.40831 0.21947,-0.43893 0.59718,-0.78602 0.81664,-1.22495 0.12173,-0.24347 -0.0861,-0.55839 0,-0.81663 0.0962,-0.28872 0.31207,-0.52791 0.40831,-0.81663 0.0861,-0.25825 -0.12174,-0.57316 0,-0.81663 0.0861,-0.17217 0.34746,-0.22572 0.40832,-0.40832 0.069,-0.20695 0,-2.52442 0,-2.85822 0,-0.1361 -0.0609,-0.28658 0,-0.40831 0.0861,-0.17216 0.27221,-0.27222 0.40831,-0.40832"
       id="path2999"
       inkscape:connector-curvature="0" />
    <path
       style="fill:#8f7454;fill-opacity:1;stroke:#000000;stroke-width:0.57200003;stroke-linecap:butt;stroke-linejoin:miter;stroke-miterlimit:4;stroke-dasharray:none;stroke-opacity:1"
       d="m 227.467,706.95563 c -0.95273,-0.13611 -1.89863,-0.33451 -2.85821,-0.40832 -0.81423,-0.0627 -1.63327,0 -2.4499,0 -2.44989,0 -4.8998,0 -7.3497,0 -1.76937,0 -3.54357,-0.13071 -5.3081,0 -1.91957,0.14219 -3.79728,0.66901 -5.71643,0.81663 -1.62846,0.12527 -3.27174,-0.13024 -4.8998,0 -2.56922,0.20554 -6.73994,1.103 -9.39127,1.63327 -1.36107,0.27221 -2.74856,0.43532 -4.08317,0.81663 -1.53178,0.43766 -2.97235,1.15354 -4.49148,1.63327 -1.07025,0.33798 -2.22049,0.40984 -3.26653,0.81663 -1.41823,0.55154 -2.73658,1.33285 -4.08317,2.04158 -1.24002,0.65265 -2.36883,1.53369 -3.67485,2.04159 -1.1695,0.4548 -2.49991,0.37602 -3.67484,0.81663 -1.94414,0.72904 -3.32828,2.00931 -4.8998,3.26653 -2.79309,2.23447 -1.42533,1.01702 -4.08317,3.67485 -2.04156,2.04158 -4.08315,4.08316 -6.12473,6.12473 -0.54442,0.54443 -1.05781,1.12176 -1.63327,1.63327 -0.65137,0.579 -1.42533,1.01703 -2.04158,1.63327 -1.50136,1.50135 -1.98888,2.78795 -3.26653,4.49148 -0.63781,0.85042 -1.33046,1.65976 -2.04158,2.4499 -0.51506,0.57228 -1.22521,0.98036 -1.63327,1.63326 -0.29742,0.47587 -0.18725,1.11746 -0.40832,1.63327 -0.1933,0.45106 -0.57316,0.79887 -0.81663,1.22495 -0.30199,0.52848 -0.54442,1.08885 -0.81663,1.63326 -0.27221,0.54442 -0.62415,1.05582 -0.81664,1.63327 -0.0861,0.25824 0.0661,0.55255 0,0.81664 -0.14762,0.5905 -0.62415,1.05581 -0.81663,1.63326 -0.0431,0.12912 0,0.27221 0,0.4083 -0.1361,0.68054 -0.18885,1.3832 -0.40832,2.04159 -0.19247,0.57746 -0.57685,1.07381 -0.81663,1.63327 -0.16954,0.3956 -0.21583,0.83999 -0.40831,1.22495 -0.0861,0.17216 -0.30929,0.24326 -0.40831,0.40832 -0.31317,0.52194 -0.50348,1.11132 -0.81664,1.63326 -0.0991,0.16505 -0.30929,0.24326 -0.40831,0.40832 -0.31317,0.52193 -0.45143,1.14631 -0.81664,1.63327 -0.46195,0.61594 -1.20618,0.99264 -1.63326,1.63326 -3.83796,5.75692 1.09545,-0.60082 -1.22495,3.26653 -0.19807,0.3301 -0.61857,0.48653 -0.81664,0.81663 -0.22143,0.36907 -0.27221,0.81663 -0.40832,1.22495 -0.1361,0.40832 -0.30392,0.80739 -0.40831,1.22495 -0.37771,1.51084 1.59034,-1.95574 -0.40832,2.04158 -0.17216,0.34432 -0.61857,0.48653 -0.81663,0.81663 -0.22143,0.36907 -0.21584,0.83999 -0.40831,1.22496 -0.0861,0.17216 -0.33684,0.2296 -0.40832,0.40832 -0.5795,1.44875 -0.40832,2.97466 -0.40832,4.49147 0,0.40832 0,0.81663 0,1.22495 0,0.27221 0.0861,0.55838 0,0.81663 -0.19248,0.57744 -0.64941,1.04801 -0.81664,1.63327 -0.11216,0.3926 0,0.81663 0,1.22495 0,0.54442 0,1.08884 0,1.63325 0,1.63327 0,3.26654 0,4.89981 0,2.04158 0,4.08317 0,6.12474 0,0.40831 0,0.81663 0,1.22495 0,0.40831 -0.0578,0.82073 0,1.22495 -0.42223,1.05363 0.64782,1.60581 0.81664,2.4499 0.0801,0.40038 -0.0672,0.82219 0,1.22495 0.22019,1.3211 0.56102,1.288 1.22495,2.4499 0.30199,0.52848 0.57687,1.07379 0.81663,1.63327 0.16955,0.39559 0.19478,0.85125 0.40832,1.22494 0.33764,0.59086 0.88731,1.04241 1.22495,1.63326 0.21354,0.3737 0.21583,0.83999 0.40832,1.22495 0.21946,0.43893 0.59717,0.78603 0.81663,1.22495 0.19248,0.38497 0.1802,0.85997 0.40832,1.22495 0.46189,0.73903 1.01701,1.42535 1.63326,2.04159 4.31638,4.31637 -1.18667,-2.23116 3.26653,2.85821 0.44813,0.51215 0.77682,1.12111 1.22495,1.63326 1.014,1.15887 2.17768,2.17769 3.26653,3.26654 0.54442,0.54441 0.98037,1.2252 1.63327,1.63326 0.47588,0.29742 1.14602,0.1299 1.63327,0.40832 0.50135,0.28649 0.81663,0.81663 1.22494,1.22495 0.68053,0.68052 1.32623,1.39776 2.04158,2.04158 0.64778,0.583 1.36708,1.0814 2.04158,1.63326 1.64546,1.34628 3.19898,2.80754 4.8998,4.08316 0.78517,0.58889 1.63327,1.08885 2.4499,1.63327 0.81662,0.54442 1.63326,1.08884 2.4499,1.63327 0.81663,0.54442 1.58827,1.16328 2.44989,1.63327 0.64346,0.35097 1.35277,0.56614 2.04159,0.81663 4.855,1.76545 -0.13281,-0.1665 5.71642,1.63325 0.70054,0.21556 1.37433,0.51334 2.04159,0.81664 0.83118,0.37782 1.56413,1.00352 2.44989,1.22495 0.79225,0.19806 1.63663,-0.074 2.44991,0 4.66258,0.42387 -0.61183,0.28595 4.08315,1.22495 0.66732,0.13347 1.36522,-0.0752 2.04159,0 3.5434,0.39372 -0.3,0.33331 3.26653,1.22495 0.52816,0.13204 1.08884,0 1.63327,0 0.68052,0.27222 1.33445,0.62378 2.04158,0.81663 5.10155,1.39133 0.51286,-0.0434 3.67484,0.40832 0.55554,0.0793 1.07488,0.35248 1.63327,0.40832 0.81258,0.0812 1.66203,-0.21487 2.4499,0 0.76566,0.20881 1.29849,0.94628 2.04158,1.22495 0.38231,0.14337 0.81664,0 1.22495,0 1.08884,0 2.18724,-0.14391 3.26653,0 0.98217,0.13094 1.88083,0.65373 2.85821,0.81663 0.67127,0.11187 1.36105,0 2.04159,0 0.68052,0 1.36105,0 2.04158,0 2.31379,0 4.62759,0 6.94137,0 4.62759,0 9.25518,0 13.88276,0 0.95274,0 1.90547,0 2.85821,0 0.95275,0 1.91284,0.11817 2.85822,0 1.0601,-0.13252 5.77613,-1.34196 6.94138,-1.63326 1.08884,-0.27222 2.22445,-0.39981 3.26652,-0.81664 1.01884,-0.40753 1.83077,-1.24798 2.85822,-1.63327 3.10065,-1.16273 3.86856,-0.56648 6.94138,-1.22495 3.24137,-0.69458 1.5688,-0.79821 4.49148,-1.63326 0.002,-5.8e-4 7.33791,-1.6305 7.34969,-1.63327 1.09253,-0.25706 2.23828,-0.36677 3.26654,-0.81663 1.17636,-0.51465 2.11806,-1.46736 3.26653,-2.04158 1.31114,-0.65557 2.73578,-1.05582 4.08316,-1.63326 1.5116,-0.64784 2.94831,-1.47305 4.49148,-2.04159 1.05315,-0.388 2.21564,-0.42254 3.26653,-0.81663 4.27889,-1.60458 2.27756,-1.2941 5.71643,-3.67485 0.9022,-0.6246 2.00894,-0.9384 2.85821,-1.63326 0.67451,-0.55186 1.01702,-1.42534 1.63327,-2.04158 2.72211,-2.72212 1.49716,-0.40832 3.67485,-3.67485 0.33763,-0.50645 0.54442,-1.08884 0.81663,-1.63327 0.83245,-1.66491 1.57963,-3.05201 2.04158,-4.89979 0.2008,-0.80318 0.19048,-1.65118 0.40832,-2.4499 0.19285,-0.70713 0.68551,-1.32046 0.81663,-2.04158 0.26782,-1.47302 -0.29361,-3.02339 0,-4.49148 1.22102,-6.1051 0.81663,3.22611 0.81663,-5.30812 0,-2.31378 0,-4.62758 0,-6.94137 0,-1.08885 0.14391,-2.18724 0,-3.26653 -0.13095,-0.98218 -0.57632,-1.89694 -0.81663,-2.85822 -0.30434,-1.21736 -0.54442,-2.4499 -0.81663,-3.67484 -0.40832,-1.22495 -0.89634,-2.42616 -1.22496,-3.67485 -0.88864,-3.37687 -0.54627,-4.60127 -2.04157,-7.75801 -0.67948,-1.43445 -1.63328,-2.72211 -2.4499,-4.08317 -0.81663,-1.36105 -1.62223,-2.72879 -2.4499,-4.08316 -0.66955,-1.09563 -1.41208,-2.14742 -2.04158,-3.26653 -0.59683,-1.06103 -0.94033,-2.26563 -1.63327,-3.26653 -0.54781,-0.79128 -1.39419,-1.32945 -2.04158,-2.04159 -0.71506,-0.78657 -1.4365,-1.57589 -2.04158,-2.44989 -3.24968,-4.694 0.10943,-1.0912 -3.67484,-5.71643 -0.48756,-0.5959 -1.08885,-1.08885 -1.63328,-1.63327 -0.54441,-0.54442 -1.0578,-1.12175 -1.63326,-1.63326 -0.65136,-0.579 -1.42533,-1.01702 -2.04158,-1.63327 -0.61624,-0.61624 -1.05427,-1.39021 -1.63327,-2.04158 -0.51151,-0.57545 -1.08884,-1.08884 -1.63326,-1.63326 -1.72922,-1.72922 -2.64562,-2.86938 -4.8998,-4.08317 -0.75791,-0.40811 -1.67997,-0.43167 -2.4499,-0.81663 -0.87784,-0.43893 -1.54392,-1.25578 -2.44989,-1.63327 -0.76421,-0.31842 -1.66449,-0.14651 -2.4499,-0.40832 -0.86617,-0.28871 -1.61871,-0.84713 -2.4499,-1.22495 -0.66725,-0.30329 -1.37433,-0.51333 -2.04158,-0.81663 -0.83119,-0.3778 -1.60218,-0.88586 -2.4499,-1.22494 -0.52104,-0.20842 -1.10782,-0.21128 -1.63326,-0.40831 -0.56993,-0.21373 -1.08885,-0.54443 -1.63327,-0.81664 -0.54443,-0.27221 -1.08885,-0.54443 -1.63326,-0.81663 -0.54442,-0.27222 -1.04276,-0.66901 -1.63327,-0.81664 -0.52817,-0.13204 -1.09432,0.0769 -1.63327,0 -1.18861,-0.16981 -1.43908,-0.61845 -2.4499,-1.22494 -0.26097,-0.15659 -0.54442,-0.27222 -0.81663,-0.40832 -0.2722,-0.1361 -0.51819,-0.34863 -0.81663,-0.40832 -0.40039,-0.0801 -0.82883,0.099 -1.22494,0 -0.18674,-0.0467 -0.23617,-0.32224 -0.40832,-0.40832 -0.12173,-0.0609 -0.28658,0.0609 -0.40832,0 -0.34432,-0.17216 -0.47231,-0.64447 -0.81663,-0.81663 -0.12174,-0.0609 -0.28658,0.0609 -0.40832,0 -0.17217,-0.0861 -0.23615,-0.32224 -0.40831,-0.40832 -0.12174,-0.0609 -0.2792,0.0431 -0.40832,0 -0.28873,-0.0962 -0.52791,-0.31207 -0.81663,-0.40831 -0.12913,-0.0431 -0.28659,0.0609 -0.40832,0 -0.17216,-0.0861 -0.24817,-0.30155 -0.40832,-0.40832 -0.25323,-0.16881 -0.5634,-0.23949 -0.81663,-0.40831 -0.32031,-0.21355 -0.47231,-0.64447 -0.81664,-0.81664 -0.12173,-0.0609 -0.2722,0 -0.40831,0 -0.27221,-0.1361 -0.5634,-0.23949 -0.81663,-0.40832 -0.16016,-0.10677 -0.27221,-0.2722 -0.40832,-0.40832 -0.27221,-0.2722 -0.54442,-0.54441 -0.81664,-0.81662 -0.2722,-0.27221 -0.60309,-0.49632 -0.81663,-0.81663 -0.33762,-0.50646 -0.479,-1.12682 -0.81662,-1.63327 -0.10677,-0.16015 -0.27222,-0.27221 -0.40832,-0.40831 -0.54443,-0.54443 -1.08885,-1.08885 -1.63327,-1.63327 -0.13611,-0.13611 -0.27221,-0.27221 -0.40831,-0.40832 -0.13611,-0.1361 -0.32224,-0.23615 -0.40832,-0.40831 -0.6008,-1.2016 0.94589,0.53758 -0.40832,-0.81664 -0.60041,-0.60041 -2.33759,-2.07209 -2.4499,-2.85821 -0.0963,-0.6737 0,-1.36106 0,-2.04158 z"
       id="path2995"
       inkscape:connector-curvature="0" />
    <path
       style="fill:#8f7454;fill-opacity:1;stroke:#000000;stroke-width:0.57200003;stroke-linecap:butt;stroke-linejoin:miter;stroke-miterlimit:4;stroke-dasharray:none;stroke-opacity:1"
       d="m 300.96395,820.05925 c 4.37321,1.74929 0.22091,0.38155 3.26653,0.81664 0.55554,0.0794 1.07552,0.34635 1.63326,0.40832 0.67637,0.0752 1.37427,-0.13346 2.04159,0 0.71871,0.14374 1.32045,0.68551 2.04158,0.81663 0.80345,0.14608 1.66204,-0.21487 2.44989,0 0.76566,0.20881 1.31636,0.90262 2.04158,1.22495 0.51282,0.22791 1.10089,0.23085 1.63327,0.40831 0.28873,0.0962 0.53406,0.29529 0.81664,0.40832 0.39961,0.15985 0.8029,0.32391 1.22495,0.40832 0.26692,0.0534 0.55255,-0.0661 0.81663,0 0.6592,0.16479 0.80988,0.40157 1.22495,0.81663 0.1361,0.1361 0.32223,0.23615 0.40832,0.40832 0.0609,0.12173 0,0.2722 0,0.40832 0.2722,0.2722 0.60309,0.49632 0.81662,0.81663 0.0755,0.11324 0,0.2722 0,0.40831 0,0.27221 -0.0534,0.5497 0,0.81663 0.0845,0.42205 0.23878,0.82935 0.40832,1.22495 0.23977,0.55947 0.64942,1.048 0.81663,1.63326 0.11218,0.39261 -0.12912,0.83759 0,1.22495 0.15519,0.46556 0.52219,0.83237 0.81663,1.22496 0.1155,0.15398 0.34746,0.22571 0.40832,0.40831 0.0662,0.19837 0,2.44134 0,2.85822 0,0.34059 0.0581,1.95453 0,2.04157 -0.81664,1.22495 -0.61247,0.40832 -1.22495,1.22495 -0.29444,0.39259 -0.46963,0.87795 -0.81663,1.22495 -0.0962,0.0963 -0.27221,0 -0.40832,0 -0.1361,0.13611 -0.29282,0.25434 -0.40831,0.40832 -0.10836,0.14448 -1.61038,2.43465 -1.63327,2.4499 -0.46692,0.31128 -1.15739,0.1109 -1.63326,0.40832 -0.6529,0.40806 -1.08885,1.08884 -1.63327,1.63327 -0.68053,0.54441 -1.29936,1.1765 -2.04158,1.63326 -1.03677,0.63802 -2.19239,1.06039 -3.26654,1.63326 -0.96821,0.51639 -1.90547,1.08884 -2.8582,1.63326 -0.95275,0.54444 -1.97078,0.98787 -2.85822,1.63327 -0.62267,0.45286 -1.00675,1.18576 -1.63327,1.63327 -0.35023,0.25017 -0.82934,0.23877 -1.22495,0.40832 -0.55946,0.23976 -1.12681,0.47899 -1.63326,0.81663 -0.11325,0.0755 0.27485,0.0267 0.40832,0 0.55027,-0.11006 1.08454,-0.29074 1.63326,-0.40832 1.35721,-0.29083 2.77308,-0.3581 4.08317,-0.81663 1.43627,-0.5027 2.7221,-1.36105 4.08315,-2.04159 1.36107,-0.68051 2.73659,-1.33285 4.08317,-2.04158 1.24003,-0.65264 2.36883,-1.53369 3.67485,-2.04157 1.16951,-0.45482 2.44439,-0.57055 3.67484,-0.81664 0.81183,-0.16236 1.68123,-0.10085 2.4499,-0.40831 0.63187,-0.25274 1.01374,-0.94335 1.63327,-1.22495 0.90205,-0.41003 1.89693,-0.57632 2.85822,-0.81664 0.13204,-0.033 0.40832,-0.1361 0.40832,0 0,0.1361 -0.27628,-0.033 -0.40832,0 -0.42993,0.10749 -1.35783,0.26574 -1.63327,0.81664 -0.19248,0.38496 -0.30393,0.80739 -0.40832,1.22495 -0.033,0.13203 0,0.2722 0,0.40831 0,0.27221 0,0.54442 0,0.81664 0,1.08884 0,2.17768 0,3.26652 0,0.81663 0,1.63327 0,2.4499 0,0.40832 -0.12912,0.83759 0,1.22495 0.25976,0.77929 0.80308,0.19738 1.22495,0.40832 0.17216,0.0861 0.22571,0.34744 0.40832,0.40831 0.38736,0.12913 0.81664,0 1.22495,0 0.80066,0 1.81244,0.22914 2.44989,-0.40831 0.0962,-0.0962 0,-0.27221 0,-0.40832 0,-0.68053 0,-1.36105 0,-2.04158 0,-1.90547 0,-3.81095 0,-5.71643 0,-0.68053 0.13347,-1.37427 0,-2.04158 -0.0597,-0.29843 -0.34863,-0.5182 -0.40831,-0.81663 -0.0801,-0.40038 0.08,-0.82457 0,-1.22495 -0.0562,-0.28073 -0.8322,-1.20939 -0.40832,-1.63327 0.13611,-0.1361 0.27221,0.27221 0.40832,0.40832 0.40831,0.40831 0.81663,0.81663 1.22495,1.22495 0.27221,0.27221 0.54442,0.54442 0.81663,0.81663 0.13611,0.1361 0.30155,0.24816 0.40831,0.40832 0.24867,0.37299 0.34854,0.9909 0.81664,1.22495 0.0915,0.0458 1.53624,0 1.63327,0 0.64688,0 1.10321,0.12173 1.63326,-0.40832 0.0962,-0.0962 0,-0.27222 0,-0.40832 0,-1.36105 0,-2.72211 0,-4.08316 0,-0.95274 0,-1.90547 0,-2.85821 0,-0.68053 0,-1.36106 0,-2.04159 0,-0.27221 0.0534,-0.5497 0,-0.81663 -0.0845,-0.42204 -0.21584,-0.83999 -0.40831,-1.22495 -0.0861,-0.17216 -0.27222,-0.27221 -0.40832,-0.40831 -0.46718,-0.46718 -0.56944,-0.48336 -0.81663,-1.22496 -0.0861,-0.25823 0.15099,-0.59014 0,-0.81663 -0.30437,-0.45653 -1.18885,-1.18884 -1.63327,-1.63326 -0.68052,-0.68053 -1.36106,-1.36106 -2.04158,-2.04159 -0.40832,-0.40831 -0.86422,-0.77403 -1.22495,-1.22494 -0.30656,-0.38321 -0.54442,-0.81663 -0.81663,-1.22495 -0.27221,-0.40831 -0.59718,-0.78603 -0.81663,-1.22495 -0.0609,-0.12173 0.0267,-0.27486 0,-0.40832 -0.11006,-0.55028 -0.15735,-1.13133 -0.40832,-1.63326 -0.17217,-0.34433 -0.61857,-0.48654 -0.81663,-0.81663 -0.44288,-0.73814 -0.43168,-1.67997 -0.81664,-2.44991 -0.21946,-0.43892 -0.61732,-0.7765 -0.81663,-1.22494 -0.3496,-0.78661 -0.49694,-1.65066 -0.81663,-2.4499 -0.22606,-0.56515 -0.57686,-1.0738 -0.81664,-1.63326 -0.16954,-0.39561 -0.30393,-0.80741 -0.40831,-1.22495 -0.033,-0.13205 0.0609,-0.28659 0,-0.40832 -0.21947,-0.43893 -0.52219,-0.83236 -0.81664,-1.22495 -0.23097,-0.30798 -0.64446,-0.47231 -0.81663,-0.81663 -0.0609,-0.12174 0.0962,-0.31208 0,-0.40832 -0.49732,-0.49733 -0.91226,-0.19127 -1.22495,-0.81663 -0.0609,-0.12174 0.0609,-0.28659 0,-0.40832 -0.0861,-0.17216 -0.32223,-0.23615 -0.40832,-0.40832 -0.0609,-0.12173 0.0609,-0.28658 0,-0.40832 -0.0861,-0.17216 -0.32223,-0.23614 -0.40831,-0.40831 -0.19248,-0.38496 -0.18687,-0.85587 -0.40832,-1.22495 -1.22494,-2.04158 -0.40831,0 -1.22494,-1.22494 -0.39669,-0.59504 -0.25491,-0.85047 -0.81664,-1.22495 -0.25323,-0.16883 -0.60143,-0.19312 -0.81663,-0.40832 -0.2152,-0.2152 -0.19311,-0.60143 -0.40831,-0.81663 -1.07044,-1.07044 -1.60627,-0.81663 -2.85822,-0.81663 -0.27221,0 -0.54442,0 -0.81664,0 -0.1361,0 -0.27919,0.0431 -0.40831,0 -0.28873,-0.0962 -0.52137,-0.33451 -0.81663,-0.40832 -0.36454,-0.0911 -1.56895,0 -2.04159,0 -0.2722,0 -0.55839,0.0861 -0.81663,0 -0.1826,-0.0609 -0.23615,-0.32224 -0.40831,-0.40832 -0.24794,-0.12397 -2.20196,0.12397 -2.4499,0 -0.17217,-0.0861 -0.22572,-0.34744 -0.40832,-0.40832 -0.19425,-0.0648 -1.91531,0.0842 -2.04158,0 -0.32031,-0.21353 -0.49632,-0.60309 -0.81663,-0.81663 -0.11326,-0.0755 -0.27222,0 -0.40832,0 -0.1361,-0.1361 -0.27221,-0.27221 -0.40832,-0.40832"
       id="path3001"
       inkscape:connector-curvature="0" />
    <path
       style="fill:#8f7454;fill-opacity:1;stroke:#000000;stroke-width:0.57200003;stroke-linecap:butt;stroke-linejoin:miter;stroke-miterlimit:4;stroke-dasharray:none;stroke-opacity:1"
       d="m 211.13436,842.10834 c -0.72709,1.60138 -1.33903,2.15565 -2.44991,3.26653 -0.27221,0.27221 -0.60309,0.49632 -0.81663,0.81664 -0.16882,0.25322 -0.2395,0.5634 -0.40831,0.81663 -0.10678,0.16015 -0.27222,0.2722 -0.40832,0.40831 -0.1361,0.13611 -0.24817,0.30155 -0.40832,0.40832 -0.25323,0.16881 -0.60143,0.19311 -0.81664,0.40832 -0.84481,0.84482 1.291,-0.0331 -0.40831,0.81663 -0.38496,0.19248 -0.83999,0.21582 -1.22495,0.40831 -0.16493,0.0825 -1.62102,1.62103 -1.63327,1.63326 -0.68052,0.68054 -1.36105,1.36107 -2.04157,2.04159 -0.13611,0.1361 -0.27221,0.27221 -0.40832,0.40832 -0.13611,0.13609 -0.32224,0.23615 -0.40831,0.40831 -0.0609,0.12173 0.0609,0.28658 0,0.40832 -0.0861,0.17216 -0.27222,0.27221 -0.40832,0.40832 -0.26151,0.26149 -1.37853,1.25115 -1.63327,1.63326 -0.16882,0.25323 -0.22571,0.57316 -0.40832,0.81664 -0.23098,0.30796 -0.54442,0.54441 -0.81663,0.81663 -0.68053,0.68052 -1.36105,1.36105 -2.04158,2.04158 -0.27222,0.27221 -0.60309,0.49633 -0.81664,0.81663 -0.16881,0.25322 -0.23949,0.56341 -0.40831,0.81663 -0.13293,0.19941 -1.43386,1.50034 -1.63327,1.63327 -0.25322,0.16882 -0.5634,0.2395 -0.81663,0.40831 -0.16016,0.10677 -0.27221,0.27222 -0.40832,0.40832 -0.2722,0.27222 -0.54442,0.54442 -0.81662,0.81663 -0.51514,0.51513 -1.20662,1.06441 -1.63327,1.63327 -1.4832,1.97758 0.43225,-0.024 -0.81663,1.22495 -0.68053,0.68052 -1.36105,1.36105 -2.04159,2.04159 -0.27221,0.2722 -0.69489,0.45141 -0.81663,0.81663 -0.0609,0.1826 0.21958,0.37056 0.40832,0.40831 1.50139,0.30028 2.29208,-0.20207 3.67485,-0.81663 6.44261,-2.86339 -2.39675,0.9942 2.85821,-1.63327 0.38496,-0.19248 0.8074,-0.30393 1.22495,-0.40832 0.13204,-0.033 0.27628,0.033 0.40831,0 0.42993,-0.10748 1.35782,-0.26573 1.63327,-0.81663 0.0609,-0.12173 0,-0.27221 0,-0.40831 0,-0.13611 0,-0.27222 0,-0.40832 0,-1.13231 -0.0609,0.65178 0.40832,-1.22495 0.0661,-0.26408 -0.0861,-0.55838 0,-0.81664 0.50456,-1.51366 0.40831,0.49772 0.40831,-0.81663 0,-0.2722 0.26409,-0.88265 0,-0.81663 -0.64707,0.16177 -1.88414,1.47583 -2.4499,2.04158 -0.2722,0.27222 -0.57614,0.51603 -0.81663,0.81664 -0.30656,0.38319 -0.46963,0.87794 -0.81663,1.22495 -0.2152,0.2152 -0.56341,0.23949 -0.81664,0.40831 -0.16015,0.10677 -0.2722,0.27221 -0.40832,0.40832 -0.1361,0.1361 -0.34744,0.22571 -0.4083,0.40831 -0.0861,0.25825 0.0661,0.55256 0,0.81664 -0.0739,0.29525 -0.31208,0.52791 -0.40832,0.81664 -0.12251,0.36747 0.1225,0.85745 0,1.22494 -0.0962,0.28872 -0.31208,0.52791 -0.40832,0.81663 -0.40516,1.21549 0.96684,-0.83778 -0.40831,1.22495 -0.10677,0.16015 -0.36164,0.22158 -0.40832,0.40832 0,2.89607 0.28872,0.23919 -0.40831,1.63326 -0.0609,0.12174 0,0.27221 0,0.40832 0,0.27221 0.0861,0.55839 0,0.81663 -1.35422,1.35422 0,-0.19248 0,0.40832 0,0.1361 -0.54443,0 -0.40832,0 0.40832,0 0.81663,0 1.22495,0 0.1361,0 0.28657,0.0609 0.40831,0 1.3057,-0.65285 2.25355,-1.84525 3.26653,-2.85822 0.68053,-0.68052 1.21632,-1.54643 2.04158,-2.04158 0.59511,-0.35706 1.4037,-0.13493 2.04159,-0.40832 0.98443,-0.4219 0.68193,-0.9545 1.22494,-1.63325 0.36073,-0.45092 0.86422,-0.77405 1.22496,-1.22496 0.19012,-0.23765 0.22571,-0.57316 0.40831,-0.81663 0.23098,-0.30798 0.54442,-0.54442 0.81664,-0.81663 0.54442,-0.54442 1.08883,-1.08885 1.63325,-1.63327 0.27222,-0.27222 0.54443,-1.08885 0.81663,-0.81664 0.27222,0.27222 -0.57614,0.51603 -0.81663,0.81664 -0.30655,0.38319 -0.46962,0.87794 -0.81662,1.22495 -0.61625,0.61624 -1.51869,0.93606 -2.04158,1.63326 -0.33671,0.44894 -0.21128,1.10782 -0.40832,1.63328 -0.21372,0.56991 -0.50347,1.11132 -0.81664,1.63325 -0.0991,0.16505 -0.27221,0.27221 -0.40831,0.40832 -0.27221,0.27221 -0.54442,0.54443 -0.81663,0.81663 -0.13611,0.13611 -0.32224,0.23616 -0.40832,0.40832 -0.0609,0.12173 0.0755,0.29507 0,0.40832 -0.21354,0.3203 -0.64448,0.47231 -0.81663,0.81663 -0.032,0.0639 0,1.92742 0,2.04158 0,0.41688 -0.0662,2.65985 0,2.85822 0.0609,0.1826 0.30154,0.24816 0.40831,0.40831 0.24866,0.373 0.34853,0.9909 0.81664,1.22495 0.0214,0.0107 1.20358,0.0107 1.22494,0 0.17216,-0.0861 0.27221,-0.27221 0.40832,-0.40831 0.40832,-0.40832 0.81664,-0.81664 1.22495,-1.22495 0.1361,-0.13612 0.36163,-0.22159 0.40832,-0.40832 0.099,-0.39613 -0.0801,-0.82457 0,-1.22495 0.0597,-0.29843 0.3345,-0.52138 0.40832,-0.81663 0.0661,-0.26409 -0.0661,-0.55255 0,-0.81664 0.0738,-0.29525 0.34862,-0.5182 0.40831,-0.81663 0.08,-0.40038 -0.16084,-0.84964 0,-1.22495 0.26807,-0.6255 0.89446,-1.03838 1.22494,-1.63327 0.27222,-0.68051 0.54443,-1.36105 0.81663,-2.04157 0,-0.13611 -0.0431,-0.2792 0,-0.40831 0.1925,-0.57746 0.62416,-1.05583 0.81664,-1.63328 0.0861,-0.25824 -0.15099,-0.59013 0,-0.81663 0.61895,-0.92842 1.22495,-0.73269 1.22495,-2.04158 0,-0.24402 -0.0962,-0.81664 0.40832,-0.81664 0.1361,0 0.1361,0.40832 0,0.40832 -0.13611,0 0,-0.54441 0,-0.40832 0,2.17769 0,4.35538 0,6.53307 0,0.42319 0.094,2.26188 0,2.4499 -0.92169,1.84337 -0.81663,0.59545 -0.81663,2.04158 0,0.1361 -0.0609,0.28658 0,0.40831 0.24498,0.48998 0.97995,0.73498 1.22494,1.22495 0.0609,0.12174 -0.0609,0.28659 0,0.40832 0.17216,0.34432 0.6031,0.49633 0.81663,0.81664 0.16883,0.25323 0.31208,0.5279 0.40832,0.81663 0.0962,0.28872 -0.26487,1.22495 0.40832,1.22495 0.19248,0 0.27222,-0.27221 0.40832,-0.40832 0.27221,-0.27221 0.54441,-0.54443 0.81663,-0.81663 0.1361,-0.13612 0.32224,-0.23616 0.40832,-0.40832 0.19248,-0.38496 0.24847,-0.82533 0.40831,-1.22495 0.11303,-0.28257 0.33451,-0.52138 0.40832,-0.81663 0.099,-0.39613 -0.12912,-0.83759 0,-1.22495 0.19248,-0.57745 0.62415,-1.05581 0.81663,-1.63327 0.0431,-0.12911 0,-0.27221 0,-0.40831 0,-0.27221 0,-0.54442 0,-0.81664 0,-0.81663 0,-1.63326 0,-2.44989 0,-0.40831 -0.0991,-0.82883 0,-1.22495 0.0467,-0.18674 0.34745,-0.22572 0.40832,-0.40832 0.0861,-0.25824 -0.12174,-0.57316 0,-0.81663 0.17216,-0.34433 0.69489,-0.45143 0.81664,-0.81663 0.17215,-0.51649 0,-1.08885 0,-1.63327 0,-0.54442 0,-1.08885 0,-1.63327 0,-0.1361 -0.0755,-0.29506 0,-0.40831 1.0102,-1.5153 0.81873,-0.0106 1.22494,-2.04159 0.0534,-0.26692 0,-0.54441 0,-0.81663 0,-0.40831 0,-0.81663 0,-1.22494 0,-1.36106 0,-2.72212 0,-4.08317 0,-0.68053 -0.13347,-1.37427 0,-2.04158 0.0597,-0.29843 0.33451,-0.52138 0.40831,-0.81664 0.0661,-0.26408 0,-0.54441 0,-0.81663 0.13612,-0.2722 0.31208,-0.52791 0.40832,-0.81663 0.0431,-0.12912 0,-0.27221 0,-0.40832 0.13611,-0.54442 0.1999,-1.11222 0.40831,-1.63326 0.0715,-0.17871 0.27222,-0.27221 0.40832,-0.40831 0.13611,-0.27222 0.31209,-0.52792 0.40832,-0.81664 0.12249,-0.36749 -0.1225,-0.85747 0,-1.22494 0.0609,-0.18261 0.32224,-0.23616 0.40831,-0.40832 0.12174,-0.24347 -0.0861,-0.5584 0,-0.81664 0.0962,-0.28872 0.27222,-0.54441 0.40832,-0.81663 0,-0.40832 -0.08,-0.82457 0,-1.22495 0.14253,-0.71265 0.7489,-1.15721 1.22495,-1.63327 0.13611,-0.1361 0.32224,-0.23615 0.40832,-0.40831 0.0609,-0.12174 -0.0431,-0.2792 0,-0.40832 0.0963,-0.28872 0.31207,-0.52791 0.40831,-0.81664 0.0431,-0.12911 -0.0755,-0.29506 0,-0.40831 0.21355,-0.32031 0.54443,-0.54442 0.81664,-0.81663"
       id="path2997"
       inkscape:connector-curvature="0" />
    <path
       style="fill:#6f573c;fill-opacity:1;stroke:#000000;stroke-width:0.57200003;stroke-linecap:butt;stroke-linejoin:miter;stroke-miterlimit:4;stroke-dasharray:none;stroke-opacity:1"
       d="m 99.663988,776.36941 c -1.907447,0 -1.954742,-0.16506 -3.674847,0.40831 -0.695338,0.23178 -1.346244,0.58485 -2.041581,0.81664 -0.544422,0.1361 -1.088844,0.27221 -1.633266,0.40831 -0.272211,0.13611 -0.527909,0.31207 -0.816633,0.40832 -0.12912,0.0431 -0.286579,-0.0609 -0.408316,0 -0.172162,0.0861 -0.236155,0.32224 -0.408316,0.40831 -0.243473,0.12174 -0.57316,-0.12173 -0.816633,0 -0.172162,0.0861 -0.272211,0.27222 -0.408316,0.40832 -0.272212,0.27222 -0.496323,0.6031 -0.816634,0.81664 -0.113246,0.0755 -0.286579,-0.0609 -0.408315,0 -1.245186,0.62259 0.746787,0.3237 -1.224949,0.81663 -0.264084,0.0661 -0.558391,-0.0861 -0.816633,0 -0.182604,0.0609 -0.272211,0.2722 -0.408317,0.40832 -0.27221,0.2722 -0.603093,0.49632 -0.816632,0.81663 -0.713552,1.07032 -0.152618,0.71355 -0.816633,2.04157 -0.172161,0.34433 -0.694896,0.45143 -0.816633,0.81664 -0.08608,0.25824 0,0.54442 0,0.81663 0,0.27221 -0.08608,0.5584 0,0.81663 0.09625,0.28873 0.312076,0.52791 0.408317,0.81663 0.04304,0.12913 -0.06087,0.28659 0,0.40832 0.08608,0.17216 0.322236,0.23616 0.408316,0.40832 0.06087,0.12173 -0.06087,0.28658 0,0.40832 0.08608,0.17216 0.347449,0.22571 0.408316,0.40832 0.08608,0.25823 -0.08608,0.55839 0,0.81663 0.06087,0.18261 0.272212,0.27221 0.408317,0.40831 0.408316,0.40832 0.816632,0.81663 1.224949,1.22495 0.240149,0.24015 1.444183,1.53873 1.633265,1.63327 0.823473,0.41173 1.32803,0.28147 2.041582,0.81663 0.307972,0.23099 0.47231,0.64447 0.816633,0.81663 0.243473,0.12174 0.558391,-0.0861 0.816632,0 0.182606,0.0609 0.236156,0.32224 0.408316,0.40831 0.121738,0.0609 0.286581,-0.0609 0.408317,0 1.009115,0.50457 0.244022,0.40832 0,0.40832"
       id="path3029"
       inkscape:connector-curvature="0" />
    <path
       style="fill:#a68d70;fill-opacity:1;stroke:#000000;stroke-width:0.57200003;stroke-linecap:butt;stroke-linejoin:miter;stroke-miterlimit:4;stroke-dasharray:none;stroke-opacity:1"
       d="m 139.27067,758.40349 c -2.36157,1.22965 -4.21195,3.21994 -6.94137,3.67484 -0.80553,0.13426 -1.65766,-0.19805 -2.4499,0 -6.20348,1.55087 -2.02711,1.34622 -7.34969,3.67485 -1.02826,0.44986 -2.17769,0.54442 -3.26654,0.81663 -1.36105,0.81664 -2.63272,1.80525 -4.08316,2.44991 -1.02562,0.45582 -2.20816,0.44308 -3.26653,0.81663 -0.29459,0.10397 -4.26335,1.84045 -5.30811,2.4499 -1.10911,0.64697 -2.1655,1.38096 -3.26654,2.04157 -0.94094,0.56458 -1.98036,0.97488 -2.85821,1.63327 -0.24348,0.1826 -0.19311,0.60143 -0.40831,0.81663 -0.48121,0.48121 -1.121121,0.77682 -1.63327,1.22495 -1.052477,0.92092 -2.507244,2.53592 -3.266532,3.67485 -1.26097,1.89146 -1.913343,3.16189 -2.449897,5.30811 -0.200795,0.80318 -0.180876,1.65386 -0.408317,2.4499 -0.319469,1.11814 -1.010643,2.12356 -1.224949,3.26654 -0.401322,2.14038 0.35801,4.38499 0,6.53305 -0.100066,0.6004 -0.684591,1.03907 -0.816633,1.63327 -0.147627,0.66432 0,1.36105 0,2.04158 0,0.81663 0.06782,1.63608 0,2.4499 -0.06875,0.82504 -0.333362,1.6254 -0.408316,2.44989 -0.06162,0.67774 0,1.36106 0,2.04159 0,0.54442 0.132042,1.1051 0,1.63326 -0.147627,0.59051 -0.590573,1.06813 -0.816633,1.63327 -0.05055,0.12637 0,0.2722 0,0.40832 0,0.68051 0,1.36105 0,2.04158 0,0.81663 0,1.63326 0,2.44989 0,1.27941 -0.117209,2.44862 0.408317,3.67485 0.19331,0.45106 0.597169,0.78603 0.816632,1.22495 0.384965,0.76992 0.389554,1.70251 0.816633,2.4499 0.739811,1.29467 1.409624,1.5943 2.041581,2.85821 0.192483,0.38497 0.186877,0.85588 0.408317,1.22495 0.198062,0.33011 0.612602,0.49019 0.816633,0.81663 0.483901,0.77425 0.718495,1.69022 1.224949,2.4499 0.589656,0.88448 1.368439,1.62717 2.041581,2.4499 2.090945,2.5556 1.441266,2.14516 4.491484,4.49147 0.88797,0.68307 4.36481,2.88922 5.30811,3.26654 1.04208,0.41684 2.22446,0.39981 3.26653,0.81663 1.01883,0.40754 1.83938,1.22574 2.85821,1.63327 1.04209,0.41683 2.18207,0.52744 3.26653,0.81664 0.95741,0.2553 1.92385,0.48684 2.85822,0.81663 1.38233,0.48787 2.6487,1.33127 4.08317,1.63326 1.19867,0.25235 2.45662,-0.12823 3.67484,0 1.38038,0.1453 2.70141,0.68503 4.08316,0.81663 1.49042,0.14194 2.99432,0 4.49148,0 1.36106,0 2.72211,0 4.08316,0 1.36106,0 2.72887,0.13543 4.08317,0 1.43733,-0.14373 7.94808,-1.69663 8.98296,-2.04158 1.67857,-0.55953 3.23502,-1.44226 4.89979,-2.04158 1.74181,-0.62705 3.58417,-0.95868 5.30812,-1.63327 1.41708,-0.55451 2.70928,-1.38735 4.08317,-2.04158 1.48481,-0.70705 3.00666,-1.33453 4.49147,-2.04159 0.43487,-0.20707 6.10053,-2.96334 6.94137,-3.67484 0.95792,-0.81055 1.59605,-1.93868 2.4499,-2.85821 0.91683,-0.98735 1.85118,-1.96307 2.85822,-2.85822 2.2048,-1.95982 -0.67191,3.79373 2.85822,-3.26652 0.44312,-0.88626 0.46093,-1.9334 0.81663,-2.85822 0.32775,-0.85216 0.93622,-1.58373 1.22495,-2.4499 0.26181,-0.78541 0.22215,-1.6432 0.40832,-2.4499 0.85611,-3.70985 0.98824,-2.3404 1.63326,-6.53306 0.0828,-0.53809 0,-1.08884 0,-1.63327 0,-1.63326 0,-3.26653 0,-4.89979 0,-2.17769 0,-4.35538 0,-6.53306 0,-0.54442 0.0601,-1.09217 0,-1.63327 -0.0767,-0.68976 -0.34548,-1.35043 -0.40832,-2.04158 -0.0739,-0.81328 0.24017,-1.66937 0,-2.44989 -0.3227,-1.0488 -1.25826,-1.82697 -1.63326,-2.85822 -0.18606,-0.51164 0.10677,-1.09942 0,-1.63326 -0.16882,-0.84409 -0.52246,-1.64092 -0.81663,-2.44991 -0.25049,-0.68882 -0.54443,-1.36105 -0.81663,-2.04158 -0.54443,-0.81664 -1.25578,-1.54392 -1.63327,-2.44989 -1.64507,-3.94816 0.79763,-1.04929 -1.22495,-4.08317 -0.48342,-0.72513 -1.09822,-1.35366 -1.63327,-2.04158 -0.4178,-0.53717 -0.77682,-1.12112 -1.22495,-1.63327 -1.014,-1.15886 -2.17769,-2.17768 -3.26652,-3.26653 -0.54443,-0.54442 -1.05384,-1.12626 -1.63327,-1.63326 -0.51215,-0.44813 -1.12112,-0.77682 -1.63326,-1.22495 -0.57944,-0.507 -1.01733,-1.17131 -1.63328,-1.63327 -1.20374,-0.9028 -1.63174,-0.69931 -2.85821,-1.22495 -0.55947,-0.23976 -1.10118,-0.52102 -1.63327,-0.81663 -0.69374,-0.38542 -1.29848,-0.94628 -2.04157,-1.22495 -0.38232,-0.14337 -0.82457,0.0801 -1.22495,0 -0.29843,-0.0597 -0.51821,-0.34863 -0.81664,-0.40832 -0.40039,-0.08 -0.84584,0.15165 -1.22494,0 -0.35744,-0.14297 -0.45143,-0.69488 -0.81664,-0.81663 -0.51648,-0.17216 -1.09431,0.077 -1.63327,0 -0.42607,-0.0609 -0.8029,-0.3239 -1.22495,-0.40831 -0.26692,-0.0534 -0.54442,0 -0.81663,0 -0.27221,-0.13611 -0.52791,-0.31208 -0.81663,-0.40831 -0.12912,-0.0431 -0.27221,0 -0.40832,0 -0.2722,0 -0.54442,0 -0.81664,0 -0.68051,0 -1.36105,0 -2.04156,0 -0.27222,0 -0.54444,0 -0.81664,0 -0.13611,0 -0.2792,0.0431 -0.40832,0 -0.28872,-0.0962 -0.52791,-0.31209 -0.81663,-0.40832 -0.38088,-0.12696 -1.6642,0.12579 -2.04158,0 -0.36521,-0.12175 -0.47231,-0.64447 -0.81664,-0.81663 -0.12173,-0.0609 -0.27919,0.0431 -0.40831,0 -0.28873,-0.0962 -0.52791,-0.31209 -0.81664,-0.40832 -0.24095,-0.0804 -1.81344,0 -2.04158,0 -1.36105,0 -2.7221,0 -4.08316,0 -0.21603,0 -1.06025,0.0706 -1.22495,0 -0.8392,-0.35966 -1.53687,-1.22495 -2.4499,-1.22495 -0.68052,0 -1.00776,0.95687 -1.63327,1.22495 -0.3753,0.16084 -0.81663,0 -1.22495,0 -0.81663,0 -1.63325,0 -2.44989,0"
       id="path2993"
       inkscape:connector-curvature="0" />
    <path
       style="fill:#000000;fill-opacity:1;stroke:#000000;stroke-width:0.57200003;stroke-linecap:butt;stroke-linejoin:miter;stroke-miterlimit:4;stroke-dasharray:none;stroke-opacity:1"
       d="m 149.07026,809.03471 c -0.68052,-0.40831 -1.33174,-0.87003 -2.04158,-1.22495 -0.0915,-0.0458 -1.53624,0 -1.63326,0 -0.38457,0 -1.8093,-0.0774 -2.04158,0 -0.18261,0.0609 -0.27222,0.27222 -0.40832,0.40832 -0.13611,0.13611 -0.34745,0.22572 -0.40831,0.40832 -0.0623,0.18691 0,1.81367 0,2.04158 0,0.40831 -0.0672,0.82219 0,1.22495 0.0588,0.35292 0.53101,1.66076 0.81663,2.04158 0.6627,0.88362 2.26097,2.11471 3.26652,2.4499 0.26456,0.0882 1.7073,0 2.04158,0 0.33429,0 1.77704,0.0882 2.04159,0 1.02894,-0.34298 1.71125,-1.30293 2.4499,-2.04158 0.18388,-0.18389 1.16281,-1.03856 1.22495,-1.22495 0.0861,-0.25825 0.0661,-0.55255 0,-0.81663 -0.0739,-0.29525 -0.19311,-0.60144 -0.40832,-0.81664 -0.0962,-0.0962 -0.27919,0.0431 -0.40832,0 -0.28872,-0.0962 -0.53405,-0.29528 -0.81663,-0.40832 -0.39962,-0.15984 -0.8487,-0.19929 -1.22495,-0.40831 -0.85796,-0.47665 -1.5564,-1.22713 -2.4499,-1.63327 -5.12503,-2.32955 0.26734,0.95031 -3.26652,-0.81663 -0.17217,-0.0861 -0.24817,-0.30155 -0.40832,-0.40832 -0.70378,-0.46918 -0.61721,-0.40832 -1.22495,-0.40832"
       id="path3003"
       inkscape:connector-curvature="0" />
    <path
       style="fill:#000000;fill-opacity:1;stroke:#000000;stroke-width:0.57200003;stroke-linecap:butt;stroke-linejoin:miter;stroke-miterlimit:4;stroke-dasharray:none;stroke-opacity:1"
       d="m 98.43904,804.54324 c -0.897831,0.0306 -2.431775,-0.21776 -3.266532,0.40832 -0.243472,0.18259 -0.239497,0.5634 -0.408316,0.81662 -0.10677,0.16016 -0.322235,0.23616 -0.408316,0.40832 -0.07441,0.14882 0,1.80631 0,2.04158 0,1.22495 0,2.4499 0,3.67485 0,0.36492 -0.06506,1.91146 0,2.04158 0.08608,0.17216 0.225712,0.46918 0.408316,0.40832 0.787862,-0.26262 1.067327,-1.4111 1.224949,-2.04158 0.09903,-0.39613 -0.08008,-0.82457 0,-1.22496 0.08441,-0.42204 0.215834,-0.83998 0.408316,-1.22494 0.219465,-0.43893 0.564152,-0.80415 0.816634,-1.22495 0.156581,-0.26097 0.239497,-0.56341 0.408315,-0.81664 0.10677,-0.16015 0.361633,-0.22157 0.408317,-0.40832 0.233419,-0.93367 0.272211,-1.90547 0.408317,-2.8582 z"
       id="path3005"
       inkscape:connector-curvature="0" />
    <path
       style="fill:none;stroke:#000000;stroke-width:0.57200003;stroke-linecap:butt;stroke-linejoin:miter;stroke-miterlimit:4;stroke-dasharray:none;stroke-opacity:1"
       d="m 109.8719,825.36737 c 0.54442,-0.13611 1.49715,-0.95274 1.63326,-0.40831 0.13611,0.54441 -1.08884,0.2722 -1.63326,0.40831 z"
       id="path3007"
       inkscape:connector-curvature="0" />
    <path
       style="fill:none;stroke:#000000;stroke-width:0.57200003;stroke-linecap:butt;stroke-linejoin:miter;stroke-miterlimit:4;stroke-dasharray:none;stroke-opacity:1"
       d="m 121.71308,823.7341 c 0.68051,0.40832 1.31212,0.91232 2.04158,1.22496 0.25019,0.10722 0.54442,0 0.81662,0 0.13611,0 -0.28321,0.0537 -0.40832,0 -0.83919,-0.35967 -1.54929,-1.37506 -2.44988,-1.22496 -0.53703,0.0896 0,1.08884 0,1.63327"
       id="path3009"
       inkscape:connector-curvature="0" />
    <path
       style="fill:none;stroke:#000000;stroke-width:0.57200003;stroke-linecap:butt;stroke-linejoin:miter;stroke-miterlimit:4;stroke-dasharray:none;stroke-opacity:1"
       d="m 119.26317,831.08379 c 0.2346,0.93838 0.60678,1.86593 0.40832,2.85822 -0.0597,0.29843 -0.31207,0.52791 -0.40832,0.81664 -0.0431,0.12912 0,0.2722 0,0.40831 0,0.40832 0.0578,0.82073 0,1.22495 -0.0794,0.55553 -0.29826,1.08299 -0.40831,1.63327 -0.0267,0.13346 0.0431,0.27919 0,0.40831 -0.0962,0.28872 -0.34863,0.5182 -0.40832,0.81663 -0.002,0.0107 0.0395,2.79908 0,2.85822 -0.21354,0.32031 -0.6031,0.49632 -0.81663,0.81663 -0.0585,0.0877 0,1.37003 0,1.63327"
       id="path3011"
       inkscape:connector-curvature="0" />
    <path
       style="fill:none;stroke:#000000;stroke-width:0.57200003;stroke-linecap:butt;stroke-linejoin:miter;stroke-miterlimit:4;stroke-dasharray:none;stroke-opacity:1"
       d="m 131.10435,831.90043 c 0.81663,-0.1361 1.62706,-0.31689 2.4499,-0.40832 0.40582,-0.0451 0.81663,0 1.22495,0 0.68052,0 1.36105,0 2.04157,0 1.49717,0 2.99432,0 4.49148,0"
       id="path3013"
       inkscape:connector-curvature="0" />
    <path
       style="fill:none;stroke:#000000;stroke-width:0.57200003;stroke-linecap:butt;stroke-linejoin:miter;stroke-miterlimit:4;stroke-dasharray:none;stroke-opacity:1"
       d="m 128.65444,838.02518 c 3.40265,0 6.80528,0 10.20792,0 1.08884,0 2.17768,0 3.26653,0 0.54442,0 1.12778,-0.2022 1.63327,0 0.28257,0.11302 0.2722,0.54442 0.40831,0.81662"
       id="path3015"
       inkscape:connector-curvature="0" />
    <path
       style="fill:none;stroke:#000000;stroke-width:0.57200003;stroke-linecap:butt;stroke-linejoin:miter;stroke-miterlimit:4;stroke-dasharray:none;stroke-opacity:1"
       d="m 128.65444,844.96655 c 2.34593,0 1.43291,-0.30434 2.85822,0.40832 0.27221,0.1361 0.52791,0.31207 0.81664,0.40832 0.12911,0.0431 0.28658,-0.0609 0.40831,0 0.17216,0.0861 0.27221,0.2722 0.40832,0.40832 0.1361,0.1361 0.27221,0.2722 0.40832,0.40831"
       id="path3019"
       inkscape:connector-curvature="0" />
    <path
       style="fill:none;stroke:#000000;stroke-width:0.57200003;stroke-linecap:butt;stroke-linejoin:miter;stroke-miterlimit:4;stroke-dasharray:none;stroke-opacity:1"
       d="m 111.09685,833.12538 c -1.49717,0 -2.99432,0 -4.49148,0 -0.40832,0 -0.83759,-0.12912 -1.22495,0 -0.1826,0.0609 -0.27221,0.27221 -0.40832,0.40832 -0.1361,0.1361 -0.27221,0.27221 -0.40832,0.40831"
       id="path3021"
       inkscape:connector-curvature="0" />
    <path
       style="fill:none;stroke:#000000;stroke-width:0.57200003;stroke-linecap:butt;stroke-linejoin:miter;stroke-miterlimit:4;stroke-dasharray:none;stroke-opacity:1"
       d="m 111.09685,835.98359 c -1.56862,1.49091 -2.24544,1.83732 -4.08317,2.4499 -0.40831,0.13611 -0.80739,0.30392 -1.22495,0.40831 -0.78982,0.19746 -0.42972,-0.38691 -1.22495,0.40832"
       id="path3023"
       inkscape:connector-curvature="0" />
    <path
       style="fill:none;stroke:#000000;stroke-width:0.57200003;stroke-linecap:butt;stroke-linejoin:miter;stroke-miterlimit:4;stroke-dasharray:none;stroke-opacity:1"
       d="m 112.73012,839.65843 c -0.0176,2.56395 -1.41309,0.43955 -2.04159,0.81664 -0.58354,0.35014 -1.04971,0.87483 -1.63326,1.22495 -0.11672,0.0701 -0.28659,-0.0609 -0.40832,0 -0.17216,0.0861 -0.22571,0.34745 -0.40832,0.40832 -0.25824,0.0861 -0.54441,0 -0.81663,0 -0.27221,0.1361 -0.54442,0.27221 -0.81663,0.40831"
       id="path3025"
       inkscape:connector-curvature="0" />
    <path
       style="fill:#8f7454;fill-opacity:1;stroke:#000000;stroke-width:0.57200003;stroke-linecap:butt;stroke-linejoin:miter;stroke-miterlimit:4;stroke-dasharray:none;stroke-opacity:1"
       d="m 158.05322,784.53573 c 0.0203,-1.20894 -0.24554,-1.87742 0.40832,-2.85821 0.10677,-0.16015 0.32223,-0.23615 0.40832,-0.40831 0.12173,-0.24348 -0.12174,-0.57317 0,-0.81664 0.4514,-0.90281 0.25341,-0.12671 0.81663,-0.40831 0.36191,-0.18096 0.85325,-0.97716 1.22495,-1.22496 2.06274,-1.37515 0.009,-0.003 1.22495,-0.40831 0.28872,-0.0962 0.52138,-0.3345 0.81663,-0.40832 0.39613,-0.099 0.81664,0 1.22495,0 0.95274,0 1.90547,0 2.85822,0 0.68052,0 1.36105,0 2.04157,0 0.27222,0 0.54443,0 0.81663,0 0.13612,0 0.28659,-0.0609 0.40832,0 0.46811,0.23406 0.56797,0.85196 0.81664,1.22495 0.24546,0.3682 1.55386,1.39504 1.63326,1.63327 0.0861,0.25824 -0.0861,0.55838 0,0.81663 0.12174,0.36521 0.6949,0.45142 0.81663,0.81663 0.0861,0.25824 0,0.54442 0,0.81664 0,0.1361 -0.0609,0.28657 0,0.4083 0.17216,0.34433 0.6031,0.49633 0.81664,0.81664 1.37515,2.06274 0.003,0.009 0.40832,1.22495 0.0962,0.28873 0.29528,0.53406 0.40832,0.81663 0.15984,0.39963 0.24846,0.82534 0.40831,1.22495 0.22606,0.56515 0.54442,1.08885 0.81663,1.63327 0.13611,0.27221 0.2395,0.5634 0.40832,0.81663 0.10677,0.16016 0.34745,0.22571 0.40831,0.40832 0.0861,0.25824 -0.066,0.55255 0,0.81663 0.0738,0.29525 0.31208,0.52791 0.40832,0.81664 0.0881,0.26405 0,1.59574 0,2.04158 0,0.35384 0.0788,1.39673 0,1.63326 -0.0962,0.28872 -0.33451,0.52138 -0.40832,0.81663 -0.066,0.26408 0.12174,0.57317 0,0.81664 -0.25824,0.51648 -0.81663,0.81663 -1.22494,1.22494 -0.68824,0.68824 -1.50983,1.80656 -2.44991,2.04159 -0.26408,0.0661 -0.55839,-0.0861 -0.81663,0 -0.32172,0.10724 -1.24067,1.43697 -1.63326,1.63326 -0.12174,0.0609 -0.28659,-0.0609 -0.40832,0 -0.17216,0.0861 -0.23615,0.32224 -0.40832,0.40832 -0.12173,0.0609 -0.28658,-0.0609 -0.40832,0 -0.17215,0.0861 -0.23614,0.32224 -0.40831,0.40832 -0.38496,0.19248 -0.83998,0.21583 -1.22495,0.40831 -0.48998,0.24499 -0.73497,0.97996 -1.22494,1.22496 -0.24348,0.12173 -0.5584,-0.0861 -0.81664,0 -0.28872,0.0962 -0.54442,0.2722 -0.81663,0.40831 -0.40832,0.1361 -0.81663,0.2722 -1.22495,0.40831"
       id="path3027"
       inkscape:connector-curvature="0" />
    <path
       style="fill:none;stroke:#000000;stroke-width:0.57200003;stroke-linecap:butt;stroke-linejoin:miter;stroke-miterlimit:4;stroke-dasharray:none;stroke-opacity:1"
       d="m 214.40088,723.6966 c 0.27222,-0.54442 0.50347,-1.11133 0.81663,-1.63327 0.0991,-0.16505 0.26045,-0.28509 0.40832,-0.40832 0.6695,-0.55791 1.31645,-1.14984 2.04158,-1.63326 0.91302,-0.60868 1.97334,-0.98435 2.85822,-1.63327 1.16672,-0.85559 2.07429,-2.03855 3.26653,-2.8582 1.00316,-0.68968 2.29264,-0.90285 3.26653,-1.63328 0.6972,-0.5229 0.93606,-1.51867 1.63326,-2.04157 0.44895,-0.33671 1.10089,-0.23086 1.63327,-0.40832 0.69534,-0.23178 1.34624,-0.58486 2.04159,-0.81664 0.28084,-0.0936 0.98402,0.12046 1.22493,0 1.09659,-0.54829 -0.29282,-0.29008 0.40832,-1.22495 0.29445,-0.39259 0.83236,-0.52218 1.22495,-0.81663 0.15399,-0.11549 0.24816,-0.30155 0.40832,-0.40832 0.25323,-0.16881 0.56341,-0.23949 0.81663,-0.40831 0.16016,-0.10678 0.27221,-0.27221 0.40832,-0.40832 0.27221,-0.27221 0.54442,-0.54442 0.81663,-0.81663"
       id="path3031"
       inkscape:connector-curvature="0" />
    <path
       style="fill:none;stroke:#000000;stroke-width:0.57200003;stroke-linecap:butt;stroke-linejoin:miter;stroke-miterlimit:4;stroke-dasharray:none;stroke-opacity:1"
       d="m 231.95849,740.43757 c 0.68052,-0.40832 1.4319,-0.71689 2.04157,-1.22495 1.03509,-0.86257 1.90548,-1.90548 2.85822,-2.85821 2.4499,-2.44991 4.9634,-4.8378 7.3497,-7.3497 1.39358,-1.46693 2.69388,-3.02048 4.08316,-4.49148 2.48841,-2.63479 3.46663,-3.1827 5.71643,-6.12475 8.27065,-10.81547 -1.85924,1.04262 4.49147,-5.30811 0.90765,-0.90764 1.17357,-2.13081 2.44991,-2.4499 0.26408,-0.0661 0.54442,0 0.81663,0"
       id="path3033"
       inkscape:connector-curvature="0" />
    <path
       style="fill:none;stroke:#000000;stroke-width:0.57200003;stroke-linecap:butt;stroke-linejoin:miter;stroke-miterlimit:4;stroke-dasharray:none;stroke-opacity:1"
       d="m 262.17389,726.96313 c 0.75379,-0.44869 1.66469,0.22435 2.44991,0 1.70016,-0.48577 2.58061,-1.11694 4.08315,-2.04158 7.44351,-4.58063 -1.54871,1.0521 7.75802,-5.71644 1.43518,-1.04376 3.0799,-1.78272 4.49148,-2.8582 1.45652,-1.10974 2.55958,-2.65913 4.08316,-3.67485 0.0196,-0.0131 7.62834,-3.47922 8.16633,-3.67485 1.37008,-0.49822 0.41639,0.80049 1.22494,-0.81664"
       id="path3035"
       inkscape:connector-curvature="0" />
    <path
       style="fill:none;stroke:#000000;stroke-width:0.57200003;stroke-linecap:butt;stroke-linejoin:miter;stroke-miterlimit:4;stroke-dasharray:none;stroke-opacity:1"
       d="m 274.42338,746.97063 c 0.54443,0.1361 1.08299,0.51838 1.63327,0.40832 3.97623,-0.79525 7.2395,-3.28208 10.61623,-5.30812 2.04157,-1.22495 4.05757,-2.4936 6.12474,-3.67484 1.7448,-0.99703 3.61271,-1.77933 5.30812,-2.85822 5.60876,-3.56922 1.82183,-1.86179 6.53306,-5.71643 1.80542,-0.90272 1.20286,-0.38623 2.04158,-1.22494"
       id="path3037"
       inkscape:connector-curvature="0" />
    <path
       style="fill:none;stroke:#000000;stroke-width:0.57200003;stroke-linecap:butt;stroke-linejoin:miter;stroke-miterlimit:4;stroke-dasharray:none;stroke-opacity:1"
       d="m 277.2816,760.03676 c 1.08884,0.13609 2.16921,0.40831 3.26653,0.40831 0.694,0 1.34962,-0.35509 2.04158,-0.40831 1.08564,-0.0836 2.17769,0 3.26653,0 2.4499,0 4.89979,0 7.3497,0"
       id="path3039"
       inkscape:connector-curvature="0" />
    <path
       style="fill:none;stroke:#000000;stroke-width:0.57200003;stroke-linecap:butt;stroke-linejoin:miter;stroke-miterlimit:4;stroke-dasharray:none;stroke-opacity:1"
       d="m 284.6313,778.00267 c 1.36105,0.13611 2.71687,0.34326 4.08315,0.40832 1.49547,0.0713 2.99433,0 4.49149,0 3.94705,0 7.89411,0 11.84117,0 1.22495,0 2.4499,0 3.67485,0 0.81664,0 1.63326,0 2.44989,0 0.13611,0 0.27222,0 0.40832,0 0.13611,0 0.28658,-0.0609 0.40831,0 0.17217,0.0861 0.27222,0.27221 0.40832,0.40831"
       id="path3041"
       inkscape:connector-curvature="0" />
    <path
       style="fill:none;stroke:#000000;stroke-width:0.57200003;stroke-linecap:butt;stroke-linejoin:miter;stroke-miterlimit:4;stroke-dasharray:none;stroke-opacity:1"
       d="m 290.34772,795.15195 c 0.88078,1.76156 0.78848,2.39358 3.26653,2.85822 1.33775,0.25083 2.73717,-0.20189 4.08317,0 1.40526,0.21079 2.72211,0.81663 4.08316,1.22495 8.09869,2.42961 0.38207,0.18355 7.3497,2.04159 0.9574,0.2553 1.89693,0.5763 2.8582,0.81663 4.00581,1.00144 2.76561,-0.0927 4.08317,1.22495"
       id="path3043"
       inkscape:connector-curvature="0" />
    <path
       style="fill:none;stroke:#000000;stroke-width:0.57200003;stroke-linecap:butt;stroke-linejoin:miter;stroke-miterlimit:4;stroke-dasharray:none;stroke-opacity:1"
       d="m 184.59379,757.17854 c -3.58438,-5.37656 0.0202,-0.31668 -2.85822,-3.67485 -0.44288,-0.5167 -0.84746,-1.06704 -1.22495,-1.63327 -0.71224,-1.06836 -1.2145,-2.28437 -2.04157,-3.26652 -1.36385,-1.61956 -2.99433,-2.99433 -4.49149,-4.49149 -4.62758,-4.62758 -9.25517,-9.25517 -13.88276,-13.88276"
       id="path3045"
       inkscape:connector-curvature="0" />
    <path
       style="fill:none;stroke:#000000;stroke-width:0.57200003;stroke-linecap:butt;stroke-linejoin:miter;stroke-miterlimit:4;stroke-dasharray:none;stroke-opacity:1"
       d="m 156.01165,753.50369 c -1.0081,-0.9 -2.36365,-2.68377 -3.67485,-3.26653 -0.63419,-0.28187 -1.43053,-0.0793 -2.04159,-0.40831 -1.19836,-0.64528 -2.14496,-1.67883 -3.26653,-2.4499 -1.05808,-0.72744 -2.21752,-1.30112 -3.26652,-2.04159 -1.26781,-0.89492 -2.38365,-1.9974 -3.67486,-2.85822 -2.09052,-1.39368 -4.72235,-2.49135 -6.94137,-3.67484 -8.31091,-4.43248 3.74458,1.54215 -6.94138,-3.26653 -2.49782,-1.12402 -4.89979,-2.4499 -7.34969,-3.67485"
       id="path3047"
       inkscape:connector-curvature="0" />
    <path
       style="fill:none;stroke:#000000;stroke-width:0.57200003;stroke-linecap:butt;stroke-linejoin:miter;stroke-miterlimit:4;stroke-dasharray:none;stroke-opacity:1"
       d="m 136.41245,755.13695 c -9.28328,-1.03148 2.29626,0.36257 -7.75801,-1.22495 -1.2174,-0.19222 -2.46629,-0.1666 -3.67485,-0.40831 -4.29835,-0.85967 -1.31722,-0.81663 -2.8582,-0.81663"
       id="path3049"
       inkscape:connector-curvature="0" />
    <path
       style="fill:none;stroke:#000000;stroke-width:0.57200003;stroke-linecap:butt;stroke-linejoin:miter;stroke-miterlimit:4;stroke-dasharray:none;stroke-opacity:1"
       d="m 171.52766,727.37145 c -0.25663,-1.07061 0.15399,-2.18864 0,-3.26653 0.0387,-1.0339 -0.65373,-1.88084 -0.81663,-2.85822 -0.15663,-0.93978 0.10521,-1.91131 0,-2.85822 -0.0767,-0.68976 -0.33167,-1.35182 -0.40832,-2.04157 -0.0602,-0.5411 0,-1.08885 0,-1.63327 0,-0.68053 0,-1.36106 0,-2.04158"
       id="path3051"
       inkscape:connector-curvature="0" />
    <path
       style="fill:none;stroke:#000000;stroke-width:0.57200003;stroke-linecap:butt;stroke-linejoin:miter;stroke-miterlimit:4;stroke-dasharray:none;stroke-opacity:1"
       d="m 191.94348,722.06333 c 0,-5.00068 -0.17216,1.20513 0.40832,-2.85822 0.077,-0.53894 0,-1.08883 0,-1.63325 0,-1.63327 0,-3.26654 0,-4.8998 0,-5.03591 0,-10.07181 0,-15.10771"
       id="path3053"
       inkscape:connector-curvature="0" />
    <path
       style="fill:none;stroke:#000000;stroke-width:0.57200003;stroke-linecap:butt;stroke-linejoin:miter;stroke-miterlimit:4;stroke-dasharray:none;stroke-opacity:1"
       d="m 192.76011,747.37895 c 0.68053,-0.68053 1.46414,-1.27166 2.04159,-2.04159 0.25823,-0.34432 0.23877,-0.82934 0.40831,-1.22495 0.23977,-0.55946 0.479,-1.1268 0.81664,-1.63327 4.16276,-6.24413 -1.37365,3.41203 3.67485,-5.3081 0.85445,-1.4759 1.51829,-3.06302 2.44988,-4.49148 1.11526,-1.71005 2.48195,-3.24298 3.67485,-4.89979 1.25744,-1.74645 2.44991,-3.53876 3.67486,-5.30812 1.27106,-1.83598 6.17423,-9.10787 7.758,-10.61622 1.28506,-1.22387 3.03768,-1.84056 4.49149,-2.85822 3.49894,-2.44926 6.59549,-5.45921 10.20791,-7.75801 0.51352,-0.3268 1.08883,-0.54442 1.63325,-0.81663"
       id="path3055"
       inkscape:connector-curvature="0" />
    <path
       style="fill:none;stroke:#000000;stroke-width:0.57200003;stroke-linecap:butt;stroke-linejoin:miter;stroke-miterlimit:4;stroke-dasharray:none;stroke-opacity:1"
       d="m 246.65787,773.9195 c 1.73008,-1.69357 4.0046,-2.77964 5.71644,-4.49147 0.75165,-0.75167 1.23447,-1.7581 2.04157,-2.4499 1.11779,-0.9581 2.48964,-1.57659 3.67485,-2.4499 15.93178,-11.7392 -7.07262,4.44287 8.16633,-5.71643 1.89793,-1.26529 4.42044,-3.35042 6.12474,-4.8998 1.28183,-1.16529 2.4499,-2.4499 3.67485,-3.67484"
       id="path3057"
       inkscape:connector-curvature="0" />
    <path
       style="fill:none;stroke:#000000;stroke-width:0.57200003;stroke-linecap:butt;stroke-linejoin:miter;stroke-miterlimit:4;stroke-dasharray:none;stroke-opacity:1"
       d="m 246.24955,777.18604 c 0.54443,0.68053 0.948,1.50315 1.63327,2.04158 4.83123,3.79596 11.40818,5.02225 17.14929,6.53306 2.586,0.68053 5.17201,1.36106 7.75801,2.04158 2.586,0.68053 5.13312,1.53119 7.75801,2.04159 2.28692,0.44467 4.63206,0.50872 6.94138,0.81663 1.77448,0.2366 3.5666,0.40198 5.30811,0.81663 5.78233,1.37674 0.79527,1.07258 6.12475,2.04159 2.23147,0.40572 1.10485,-0.52842 2.04158,0.40831"
       id="path3059"
       inkscape:connector-curvature="0" />
    <path
       style="fill:none;stroke:#000000;stroke-width:0.57200003;stroke-linecap:butt;stroke-linejoin:miter;stroke-miterlimit:4;stroke-dasharray:none;stroke-opacity:1"
       d="m 238.49154,806.99313 c 2.63251,0.87751 1.84122,0.20795 2.85822,1.22495 0.13611,0.13611 0.32224,0.23616 0.40832,0.40832 0.0609,0.12173 -0.0609,0.28658 0,0.40831 0.0861,0.17216 0.32224,0.23616 0.40831,0.40832 0.19249,0.38496 0.18687,0.85588 0.40832,1.22495 0.19806,0.3301 0.64447,0.4723 0.81664,0.81663 0.12173,0.24347 -0.10723,0.56643 0,0.81664 2.39258,5.58271 0.0478,-1.12943 2.44988,3.67484 0.25097,0.50193 0.15735,1.13134 0.40832,1.63327 0.14635,0.29268 1.28757,1.28757 1.63327,1.63326"
       id="path3061"
       inkscape:connector-curvature="0" />
  </g>
</svg>
