<?xml version="1.0" encoding="UTF-8" standalone="no"?>
<!-- Created with Inkscape (http://www.inkscape.org/) -->

<svg
   xmlns:dc="http://purl.org/dc/elements/1.1/"
   xmlns:cc="http://creativecommons.org/ns#"
   xmlns:rdf="http://www.w3.org/1999/02/22-rdf-syntax-ns#"
   xmlns:svg="http://www.w3.org/2000/svg"
   xmlns="http://www.w3.org/2000/svg"
   xmlns:sodipodi="http://sodipodi.sourceforge.net/DTD/sodipodi-0.dtd"
   xmlns:inkscape="http://www.inkscape.org/namespaces/inkscape"
   width="460"
   height="330.14236"
   viewBox="0 0 459.99999 330.14237"
   id="svg6290"
   version="1.1"
   inkscape:version="0.91 r13725"
   inkscape:export-filename="/home/ashley/projects/libgdx/CocoWiggler4/android/assets/coco2.png"
   inkscape:export-xdpi="90.050003"
   inkscape:export-ydpi="90.050003"
   sodipodi:docname="cocoIcon.svg">
  <defs
     id="defs6292" />
  <sodipodi:namedview
     id="base"
     pagecolor="#ffffff"
     bordercolor="#666666"
     borderopacity="1.0"
     inkscape:pageopacity="0.0"
     inkscape:pageshadow="2"
     inkscape:zoom="1"
     inkscape:cx="86.661702"
     inkscape:cy="182.6139"
     inkscape:document-units="px"
     inkscape:current-layer="layer1"
     showgrid="false"
     fit-margin-top="0"
     fit-margin-left="0"
     fit-margin-right="0"
     fit-margin-bottom="0"
     inkscape:window-width="1871"
     inkscape:window-height="1056"
     inkscape:window-x="49"
     inkscape:window-y="24"
     inkscape:window-maximized="1"
     units="px" />
  <metadata
     id="metadata6295">
    <rdf:RDF>
      <cc:Work
         rdf:about="">
        <dc:format>image/svg+xml</dc:format>
        <dc:type
           rdf:resource="http://purl.org/dc/dcmitype/StillImage" />
        <dc:title />
      </cc:Work>
    </rdf:RDF>
  </metadata>
  <g
     inkscape:label="Layer 1"
     inkscape:groupmode="layer"
     id="layer1"
     transform="translate(-83.000724,-551.05003)">
    <path
       style="fill:#8f7454;fill-opacity:1;stroke:none;stroke-width:1.028391;stroke-linecap:butt;stroke-linejoin:miter;stroke-miterlimit:4;stroke-dasharray:none;stroke-opacity:1"
       d="m 189.30645,827.07401 c -1.78227,1.4244 -3.97368,-0.47478 -5.87285,0 -0.95891,0.23975 -3.10664,1.864 -3.67055,2.20232 -2.28725,1.37237 -0.96471,0.0378 -3.67051,2.20234 -0.8107,0.64856 -1.46823,1.46821 -2.20232,2.20232 -0.48942,0.48941 -0.97883,0.97881 -1.46823,1.46821 -0.24471,0.24469 -0.54213,0.44617 -0.73409,0.7341 -2.97123,4.45681 2.11323,-2.29858 -1.46823,3.67054 -0.35609,0.59349 -0.9788,0.97881 -1.46821,1.46821 -0.48942,0.48939 -0.9788,0.97881 -1.46821,1.46821 -0.24469,0.24471 -0.54215,0.44616 -0.73411,0.73411 -0.3035,0.45526 -0.43057,1.01295 -0.73411,1.46821 -0.4455,0.66826 -1.87698,1.55167 -2.20232,2.20232 -0.10949,0.21886 0.24471,0.7341 0,0.7341 -0.24469,0 -0.21886,-0.84354 0,-0.7341 2.08814,1.04407 0.66915,2.46868 3.67054,1.46821 0.83701,-0.279 1.41318,-1.07363 2.20233,-1.46821 1.93779,-0.9689 3.7787,-0.83995 5.87285,-1.46822 1.26217,-0.37866 2.40834,-1.08954 3.67051,-1.46821 2.39025,-0.71707 4.97365,-0.67906 7.34107,-1.46821 1.03817,-0.34606 1.98627,-0.92526 2.93644,-1.46821 0.76604,-0.43775 1.57843,-2.09209 2.20232,-1.46821 0.62386,0.62387 -0.97883,1.46821 -1.46821,2.20232 -0.48942,0.7341 -0.9554,1.48436 -1.46823,2.20231 -0.71115,0.99561 -1.52363,1.9184 -2.20232,2.93643 -0.3035,0.45528 -0.43057,1.01295 -0.73411,1.46821 -0.19194,0.28795 -0.7341,0.38806 -0.7341,0.73411 0,0.34606 0.4058,0.84355 0.7341,0.7341 0.6566,-0.21886 0.97882,-0.97881 1.46822,-1.46821 0.2447,-0.24471 0.44617,-0.54215 0.7341,-0.73411 0.91054,-0.60704 2.06095,-0.81161 2.93643,-1.46821 0.5537,-0.41528 0.97881,-0.97881 1.46823,-1.46821 0.73409,-0.73411 1.46821,-1.46821 2.2023,-2.20232 0.4894,-0.4894 0.89235,-1.08429 1.46823,-1.46821 0.20359,-0.13574 0.51522,-0.10949 0.73409,0 1.2532,0.6266 0.7341,1.71727 0.7341,2.93642 0,1.95763 0,3.91525 0,5.87285 0,0.17439 -0.0822,2.77189 0,2.93643 0.81158,1.62315 0.45562,0.22781 1.46822,0.73411 0.30955,0.1548 0.42457,0.57934 0.7341,0.73412 0.43775,0.21885 1.03049,-0.21888 1.46821,0 0.61906,0.3095 0.81162,1.24933 1.46822,1.46821 1.00141,0.33379 2.87716,-0.0994 3.67053,-0.73412 2.70943,-2.16755 1.90387,-1.65116 2.93644,-4.40464 0.46268,-1.23385 1.20977,-2.37835 1.4682,-3.67053 0.23995,-1.19975 -0.35156,-2.49861 0,-3.67053 0.41001,-1.36668 1.62283,-2.36666 2.20234,-3.67053 0.40976,-0.92197 0.41504,-1.97927 0.7341,-2.93643 0.34158,-1.02478 1.69972,-3.0004 2.20232,-3.67053 0.20764,-0.27684 0.62467,-0.4058 0.73407,-0.73411 0.1548,-0.46429 -0.15479,-1.00391 0,-1.46821 0.2189,-0.65659 1.15871,-0.84916 1.46823,-1.46823 0.10949,-0.21885 -0.10949,-0.51523 0,-0.73409 0.39458,-0.78915 1.07366,-1.41317 1.46823,-2.20232 0.21885,-0.43773 -0.1548,-1.00392 0,-1.46821 0.17295,-0.51908 0.56106,-0.94912 0.73409,-1.46821 0.1548,-0.4643 -0.21887,-1.03047 0,-1.4682 0.1548,-0.30955 0.62469,-0.40582 0.73411,-0.73412 0.12406,-0.37207 0,-4.53862 0,-5.13875 0,-0.24469 -0.10949,-0.51524 0,-0.7341 0.1548,-0.30952 0.48941,-0.48942 0.7341,-0.73411"
       id="path2999"
       inkscape:connector-curvature="0" />
    <path
       style="fill:#8f7454;fill-opacity:1;stroke:none;stroke-width:1.028391;stroke-linecap:butt;stroke-linejoin:miter;stroke-miterlimit:4;stroke-dasharray:none;stroke-opacity:1"
       d="m 342.73467,567.93448 c -1.7129,-0.24471 -3.41352,-0.60141 -5.13874,-0.73411 -1.46389,-0.11273 -2.93643,0 -4.40464,0 -4.40463,0 -8.80929,0 -13.21393,0 -3.18112,0 -6.37093,-0.235 -9.54336,0 -3.45117,0.25564 -6.82708,1.2028 -10.27749,1.46821 -2.92778,0.22522 -5.88222,-0.23416 -8.80928,0 -4.61917,0.36953 -12.11765,1.98307 -16.88444,2.93643 -2.44705,0.4894 -4.9416,0.78266 -7.34107,1.46821 -2.75397,0.78686 -5.34395,2.07393 -8.07517,2.93643 -1.92419,0.60765 -3.99219,0.73685 -5.87285,1.46821 -2.54982,0.99161 -4.92006,2.39631 -7.34108,3.67053 -2.22941,1.17339 -4.25889,2.7574 -6.60696,3.67055 -2.10263,0.81767 -4.49456,0.67604 -6.60695,1.4682 -3.49534,1.31073 -5.98387,3.61251 -8.80928,5.87285 -5.02166,4.01733 -2.56258,1.82849 -7.34108,6.60697 -3.67049,3.67052 -7.34103,7.34105 -11.01156,11.01156 -0.97881,0.97883 -1.90183,2.0168 -2.93644,2.93644 -1.17109,1.04097 -2.56258,1.8285 -3.67053,2.93643 -2.69927,2.69926 -3.57578,5.01242 -5.87285,8.07517 -1.14671,1.52896 -2.39201,2.98406 -3.67052,4.40464 -0.92602,1.0289 -2.20279,1.76258 -2.93644,2.93642 -0.53473,0.85556 -0.33665,2.00907 -0.73411,2.93643 -0.34753,0.81096 -1.03048,1.43628 -1.46821,2.20232 -0.54294,0.95015 -0.9788,1.95763 -1.46821,2.93642 -0.4894,0.97881 -1.12215,1.89824 -1.46822,2.93643 -0.1548,0.46429 0.11884,0.99343 0,1.46823 -0.26541,1.06165 -1.12215,1.89823 -1.46821,2.93642 -0.0775,0.23214 0,0.4894 0,0.73407 -0.24469,1.22354 -0.33953,2.48684 -0.73411,3.67055 -0.34604,1.03821 -1.03711,1.93059 -1.46821,2.93643 -0.30482,0.71125 -0.38804,1.51021 -0.7341,2.20232 -0.15479,0.30953 -0.55607,0.43736 -0.73409,0.73412 -0.56305,0.93839 -0.9052,1.99802 -1.46823,2.93641 -0.17817,0.29674 -0.55607,0.43736 -0.73409,0.73412 -0.56305,0.93837 -0.81162,2.06093 -1.46823,2.93643 -0.83053,1.10739 -2.16857,1.78465 -2.93641,2.93642 -6.90022,10.35028 1.96949,-1.08021 -2.20233,5.87285 -0.3561,0.59348 -1.11211,0.87472 -1.46822,1.4682 -0.39811,0.66355 -0.4894,1.46821 -0.73411,2.20232 -0.2447,0.73412 -0.54642,1.4516 -0.7341,2.20232 -0.67908,2.71632 2.85925,-3.51619 -0.73411,3.67053 -0.30953,0.61905 -1.11212,0.87473 -1.46821,1.46821 -0.39811,0.66355 -0.38806,1.51021 -0.73409,2.20234 -0.1548,0.30952 -0.6056,0.41279 -0.73412,0.73411 -1.04187,2.60469 -0.73411,5.3481 -0.73411,8.07516 0,0.73411 0,1.4682 0,2.20232 0,0.4894 0.1548,1.0039 0,1.4682 -0.34606,1.03818 -1.16757,1.88421 -1.46823,2.93644 -0.20165,0.70585 0,1.46821 0,2.20232 0,0.9788 0,1.95761 0,2.9364 0,2.93643 0,5.87286 0,8.8093 0,3.67053 0,7.34107 0,11.01158 0,0.7341 0,1.46821 0,2.20233 0,0.73409 -0.10391,1.47557 0,2.20232 -0.75912,1.8943 1.16471,2.88706 1.46823,4.40464 0.14401,0.71984 -0.12082,1.4782 0,2.20232 0.39588,2.37519 1.00865,2.31568 2.20232,4.40464 0.54294,0.95015 1.03715,1.93055 1.46821,2.93643 0.30483,0.71123 0.35019,1.53046 0.73411,2.20231 0.60704,1.0623 1.59528,1.87413 2.20232,2.93641 0.38392,0.67187 0.38804,1.51021 0.73411,2.20232 0.39457,0.78915 1.07365,1.4132 1.46821,2.20232 0.34606,0.69214 0.32398,1.54613 0.73412,2.20233 0.83042,1.32869 1.82846,2.56261 2.93641,3.67054 7.76036,7.76034 -2.1335,-4.01137 5.87285,5.13874 0.80569,0.92079 1.39664,2.01563 2.20232,2.93641 1.82306,2.08352 3.91522,3.91524 5.87285,5.87287 0.97881,0.97879 1.7626,2.20277 2.93644,2.93642 0.85557,0.53473 2.06041,0.23354 2.93643,0.73411 0.90137,0.51508 1.46821,1.46821 2.2023,2.20232 1.22352,1.2235 2.38441,2.51302 3.67053,3.67053 1.16464,1.04817 2.45786,1.94424 3.67053,2.93642 2.95835,2.42046 5.7514,5.04763 8.80928,7.34105 1.41165,1.05876 2.93644,1.95763 4.40464,2.93644 1.46819,0.9788 2.93642,1.95761 4.40465,2.93643 1.4682,0.97881 2.85553,2.09145 4.40462,2.93644 1.15687,0.631 2.43213,1.01785 3.67055,1.4682 8.72873,3.17408 -0.23878,-0.29934 10.27747,2.9364 1.25949,0.38755 2.47089,0.92293 3.67055,1.46823 1.49436,0.67927 2.81212,1.80421 4.40462,2.20232 1.42438,0.35609 2.94248,-0.13305 4.40466,0 8.38279,0.76207 -1.1,0.5141 7.34104,2.20232 1.19977,0.23996 2.45451,-0.1352 3.67055,0 6.37063,0.70786 -0.53937,0.59925 5.87285,2.20232 0.94957,0.23739 1.95761,0 2.93643,0 1.2235,0.48942 2.39919,1.12149 3.67053,1.46821 9.17201,2.50145 0.92206,-0.078 6.60694,0.73411 0.9988,0.14257 1.93252,0.63372 2.93644,0.73411 1.46092,0.14599 2.98814,-0.38631 4.40464,0 1.37657,0.37542 2.33454,1.70131 3.67053,2.20232 0.68735,0.25777 1.46822,0 2.20232,0 1.95761,0 3.93241,-0.25873 5.87285,0 1.76583,0.23542 3.38152,1.17534 5.13873,1.46821 1.20687,0.20113 2.44702,0 3.67055,0 1.2235,0 2.44701,0 3.67053,0 4.15993,0 8.31988,0 12.47979,0 8.31989,0 16.63977,0 24.95963,0 1.71292,0 3.42582,0 5.13874,0 1.71293,0 3.43906,0.21246 5.13875,0 1.90594,-0.23825 10.38483,-2.41269 12.47981,-2.93641 1.95761,-0.48942 3.99931,-0.71882 5.87283,-1.46823 1.83176,-0.73269 3.29152,-2.24373 5.13876,-2.93643 5.57461,-2.09046 6.95523,-1.01847 12.47981,-2.20232 5.82762,-1.24878 2.82052,-1.43509 8.07517,-2.93642 0.004,-10e-4 13.19273,-2.93145 13.21391,-2.93643 1.96424,-0.46217 4.02417,-0.65941 5.87287,-1.46821 2.11496,-0.92528 3.80803,-2.63815 5.87285,-3.67053 2.35728,-1.17864 4.91862,-1.89824 7.34105,-2.93642 2.71769,-1.16474 5.30073,-2.64837 8.07517,-3.67054 1.89345,-0.69758 3.98347,-0.75968 5.87285,-1.46821 7.69296,-2.88485 4.0948,-2.32665 10.27749,-6.60696 1.62206,-1.12296 3.61185,-1.68714 5.13874,-2.93642 1.21269,-0.99218 1.82849,-2.5626 2.93644,-3.67053 4.89404,-4.89406 2.69172,-0.73411 6.60696,-6.60696 0.60702,-0.91054 0.9788,-1.95761 1.46821,-2.93643 1.49665,-2.99332 2.83999,-5.48717 3.67052,-8.80927 0.36102,-1.44403 0.34247,-2.96863 0.73412,-4.40464 0.34672,-1.27134 1.23247,-2.37404 1.46821,-3.67053 0.48151,-2.64832 -0.52788,-5.43571 0,-8.07517 2.19525,-10.97628 1.4682,5.80018 1.4682,-9.5434 0,-4.15991 0,-8.31986 0,-12.47979 0,-1.95763 0.25874,-3.93241 0,-5.87285 -0.23543,-1.76585 -1.03615,-3.41048 -1.4682,-5.13876 -0.54717,-2.18867 -0.97881,-4.40464 -1.46821,-6.60694 -0.73412,-2.20232 -1.61152,-4.36196 -2.20234,-6.60696 -1.59768,-6.07123 -0.98213,-8.27256 -3.67051,-13.94802 -1.22163,-2.57898 -2.93645,-4.89405 -4.40464,-7.34108 -1.46821,-2.44701 -2.91659,-4.90605 -4.40465,-7.34106 -1.20377,-1.96981 -2.53876,-3.86081 -3.67052,-5.87285 -1.07304,-1.90761 -1.69061,-4.07334 -2.93644,-5.87285 -0.9849,-1.42263 -2.50659,-2.39019 -3.67053,-3.67054 -1.28559,-1.41417 -2.58266,-2.83327 -3.67053,-4.40463 -5.84255,-8.43927 0.19675,-1.96185 -6.60694,-10.27749 -0.87658,-1.07136 -1.95763,-1.95763 -2.93645,-2.93643 -0.97879,-0.97881 -1.90181,-2.01678 -2.93642,-2.93642 -1.17107,-1.04097 -2.56258,-1.82848 -3.67053,-2.93643 -1.10793,-1.10793 -1.89545,-2.49944 -2.93643,-3.67053 -0.91964,-1.03459 -1.95761,-1.95761 -2.93642,-2.93641 -3.10894,-3.10895 -4.75652,-5.15882 -8.80928,-7.34108 -1.36264,-0.73374 -3.02039,-0.77609 -4.40464,-1.46821 -1.57826,-0.78914 -2.77579,-2.25775 -4.40463,-2.93643 -1.37396,-0.57248 -2.99256,-0.26341 -4.40464,-0.73411 -1.55727,-0.51907 -2.91025,-1.52305 -4.40464,-2.20233 -1.19964,-0.54528 -2.47089,-0.9229 -3.67053,-1.4682 -1.49438,-0.67925 -2.88053,-1.59268 -4.40464,-2.20231 -0.93677,-0.37471 -1.99173,-0.37985 -2.93641,-0.73409 -1.02467,-0.38426 -1.95763,-0.97882 -2.93644,-1.46823 -0.97882,-0.4894 -1.95763,-0.97882 -2.93641,-1.46821 -0.97881,-0.48942 -1.87477,-1.2028 -2.93644,-1.46822 -0.94959,-0.23739 -1.96746,0.13826 -2.93643,0 -2.13699,-0.3053 -2.5873,-1.1119 -4.40464,-2.2023 -0.4692,-0.28154 -0.97881,-0.48942 -1.46821,-0.73412 -0.48939,-0.24469 -0.93165,-0.62679 -1.46821,-0.73411 -0.71986,-0.14401 -1.49014,0.17799 -2.2023,0 -0.33574,-0.084 -0.42461,-0.57935 -0.73412,-0.73411 -0.21885,-0.10949 -0.51523,0.10949 -0.73411,0 -0.61905,-0.30953 -0.84916,-1.15869 -1.46821,-1.46821 -0.21887,-0.10949 -0.51523,0.10949 -0.73411,0 -0.30954,-0.1548 -0.42457,-0.57935 -0.73409,-0.73411 -0.21888,-0.1095 -0.50197,0.0775 -0.73412,0 -0.5191,-0.17296 -0.94912,-0.56107 -1.46821,-0.7341 -0.23216,-0.0775 -0.51525,0.10949 -0.73411,0 -0.30952,-0.1548 -0.44618,-0.54215 -0.73411,-0.73411 -0.45528,-0.3035 -1.01293,-0.43058 -1.46821,-0.7341 -0.57588,-0.38394 -0.84916,-1.15868 -1.46822,-1.46822 -0.21886,-0.10949 -0.48939,0 -0.7341,0 -0.4894,-0.24469 -1.01293,-0.43058 -1.46821,-0.73412 -0.28795,-0.19196 -0.4894,-0.48938 -0.73411,-0.73411 -0.4894,-0.48938 -0.97881,-0.97879 -1.46823,-1.46819 -0.48938,-0.4894 -1.08428,-0.89233 -1.4682,-1.46821 -0.60701,-0.91055 -0.86119,-2.02589 -1.46819,-2.93643 -0.19196,-0.28793 -0.48942,-0.4894 -0.73412,-0.7341 -0.97882,-0.97882 -1.95763,-1.95762 -2.93643,-2.93643 -0.24471,-0.24471 -0.4894,-0.4894 -0.7341,-0.73411 -0.24471,-0.24469 -0.57935,-0.42457 -0.73411,-0.7341 -1.08017,-2.16034 1.7006,0.96651 -0.73411,-1.46822 -1.07947,-1.07947 -4.20272,-3.72538 -4.40464,-5.13874 -0.17314,-1.21124 0,-2.44703 0,-3.67053 z"
       id="path2995"
       inkscape:connector-curvature="0" />
    <path
       style="fill:#8f7454;fill-opacity:1;stroke:none;stroke-width:1.028391;stroke-linecap:butt;stroke-linejoin:miter;stroke-miterlimit:4;stroke-dasharray:none;stroke-opacity:1"
       d="m 474.87383,771.28193 c 7.86253,3.14503 0.39717,0.68599 5.87285,1.46823 0.9988,0.14275 1.93366,0.6227 2.93641,0.73411 1.21604,0.1352 2.47078,-0.23994 3.67055,0 1.29216,0.25843 2.37402,1.23247 3.67053,1.46821 1.44451,0.26264 2.98816,-0.38631 4.40462,0 1.37657,0.37542 2.36667,1.62281 3.67053,2.20232 0.92199,0.40976 1.97928,0.41504 2.93643,0.7341 0.51911,0.17295 0.96018,0.53089 1.46823,0.73411 0.71845,0.28739 1.44352,0.58235 2.20232,0.73411 0.47989,0.096 0.99342,-0.11884 1.46821,0 1.18517,0.29628 1.45607,0.72198 2.20232,1.46821 0.24469,0.24469 0.57933,0.42457 0.73411,0.73411 0.10949,0.21886 0,0.48939 0,0.73412 0.48939,0.48938 1.08429,0.89232 1.46819,1.4682 0.13574,0.2036 0,0.48939 0,0.7341 0,0.4894 -0.096,0.9883 0,1.46821 0.15192,0.75879 0.4293,1.49107 0.73412,2.20232 0.43108,1.00586 1.16758,1.88418 1.4682,2.93641 0.20169,0.70587 -0.23214,1.50589 0,2.20232 0.27902,0.83703 0.93884,1.49651 1.46821,2.20234 0.20766,0.27684 0.6247,0.4058 0.73412,0.7341 0.11902,0.35664 0,4.38925 0,5.13875 0,0.61234 0.10445,3.51403 0,3.67051 -1.46823,2.20232 -1.10116,0.73412 -2.20233,2.20232 -0.52937,0.70584 -0.84434,1.57846 -1.4682,2.20233 -0.17296,0.17313 -0.48941,0 -0.73412,0 -0.24469,0.24471 -0.52645,0.45727 -0.73409,0.73411 -0.19482,0.25976 -2.89528,4.37722 -2.93644,4.40464 -0.83946,0.55965 -2.08085,0.19939 -2.93641,0.73411 -1.17384,0.73365 -1.95763,1.95761 -2.93644,2.93644 -1.22351,0.97878 -2.3361,2.11521 -3.67052,2.93641 -1.864,1.14709 -3.94167,1.90646 -5.87287,2.93642 -1.74073,0.92841 -3.42582,1.95761 -5.13872,2.93641 -1.71294,0.97885 -3.54324,1.77608 -5.13875,2.93644 -1.11949,0.81419 -1.81003,2.13186 -2.93644,2.93643 -0.62967,0.44978 -1.49106,0.42928 -2.20232,0.73411 -1.00584,0.43107 -2.02588,0.86117 -2.93642,1.46821 -0.20361,0.13574 0.49415,0.048 0.73412,0 0.98932,-0.19787 1.94988,-0.52272 2.93641,-0.73411 2.44011,-0.52288 4.98569,-0.64382 7.34108,-1.46821 2.58225,-0.9038 4.89403,-2.44701 7.34104,-3.67055 2.44705,-1.22347 4.92008,-2.39631 7.34107,-3.67052 2.22944,-1.17338 4.25889,-2.7574 6.60697,-3.67051 2.10264,-0.81772 4.39473,-1.02579 6.60694,-1.46823 1.45958,-0.29191 3.02266,-0.18132 4.40464,-0.7341 1.13603,-0.45439 1.82259,-1.69603 2.93644,-2.20232 1.62178,-0.73718 3.41046,-1.03615 5.13875,-1.46822 0.23739,-0.0593 0.73411,-0.24469 0.73411,0 0,0.24469 -0.49672,-0.0593 -0.73411,0 -0.77296,0.19325 -2.44122,0.47777 -2.93643,1.46822 -0.34606,0.69212 -0.54643,1.4516 -0.73412,2.20232 -0.0593,0.23738 0,0.48939 0,0.7341 0,0.4894 0,0.9788 0,1.46823 0,1.95761 0,3.91522 0,5.87283 0,1.4682 0,2.93643 0,4.40464 0,0.73411 -0.23214,1.50589 0,2.20232 0.46702,1.40107 1.44385,0.35487 2.20233,0.73411 0.30952,0.1548 0.4058,0.62466 0.73411,0.7341 0.69643,0.23216 1.46822,0 2.20232,0 1.43949,0 3.25856,0.41197 4.40462,-0.7341 0.17296,-0.17295 0,-0.4894 0,-0.73411 0,-1.22352 0,-2.44701 0,-3.67053 0,-3.42582 0,-6.85165 0,-10.27749 0,-1.22352 0.23997,-2.47078 0,-3.67053 -0.10733,-0.53654 -0.62679,-0.93166 -0.73409,-1.46821 -0.14401,-0.71984 0.14383,-1.48248 0,-2.20232 -0.10104,-0.50472 -1.4962,-2.17434 -0.73411,-2.93643 0.24471,-0.24469 0.4894,0.4894 0.73411,0.73411 0.73409,0.7341 1.46821,1.46821 2.20232,2.20232 0.4894,0.4894 0.9788,0.97881 1.46821,1.46821 0.24471,0.24469 0.54215,0.44616 0.73409,0.73411 0.44708,0.6706 0.62664,1.78153 1.46823,2.20232 0.1645,0.0824 2.76198,0 2.93643,0 1.16302,0 1.98345,0.21886 2.93642,-0.73411 0.17295,-0.17296 0,-0.48942 0,-0.73411 0,-2.44702 0,-4.89405 0,-7.34106 0,-1.71292 0,-3.42582 0,-5.13874 0,-1.22351 0,-2.44703 0,-3.67054 0,-0.48941 0.096,-0.9883 0,-1.46821 -0.15192,-0.75878 -0.38806,-1.51021 -0.7341,-2.20232 -0.1548,-0.30953 -0.48942,-0.4894 -0.73411,-0.7341 -0.83994,-0.83993 -1.02379,-0.86902 -1.46821,-2.20234 -0.1548,-0.46426 0.27146,-1.061 0,-1.4682 -0.54722,-0.82079 -2.13742,-2.1374 -2.93643,-2.93642 -1.2235,-1.22352 -2.44703,-2.44703 -3.67053,-3.67055 -0.73411,-0.73409 -1.55377,-1.39161 -2.20232,-2.2023 -0.55116,-0.68897 -0.97881,-1.46821 -1.46821,-2.20232 -0.4894,-0.73409 -1.07366,-1.41319 -1.46821,-2.20232 -0.10949,-0.21886 0.048,-0.49417 0,-0.73411 -0.19787,-0.98934 -0.2829,-2.03401 -0.73411,-2.93642 -0.30954,-0.61907 -1.11212,-0.87474 -1.46821,-1.46821 -0.79625,-1.32709 -0.77611,-3.02039 -1.46822,-4.40466 -0.39457,-0.78913 -1.10988,-1.39606 -1.46821,-2.2023 -0.62854,-1.41424 -0.89344,-2.9677 -1.46821,-4.40464 -0.40643,-1.01608 -1.03713,-1.93057 -1.46823,-2.93642 -0.30481,-0.71126 -0.54643,-1.45163 -0.73409,-2.20232 -0.0593,-0.23741 0.10949,-0.51525 0,-0.73411 -0.39458,-0.78915 -0.93884,-1.49649 -1.46823,-2.20232 -0.41525,-0.55372 -1.15866,-0.84916 -1.4682,-1.46821 -0.1095,-0.21887 0.17295,-0.56108 0,-0.73411 -0.89413,-0.89415 -1.64014,-0.34388 -2.20233,-1.46821 -0.10949,-0.21888 0.1095,-0.51526 0,-0.73411 -0.15479,-0.30953 -0.57933,-0.42457 -0.73411,-0.73412 -0.10949,-0.21885 0.10949,-0.51524 0,-0.73411 -0.1548,-0.30952 -0.57933,-0.42455 -0.73409,-0.73409 -0.34606,-0.69212 -0.33597,-1.53876 -0.73412,-2.20233 -2.2023,-3.67052 -0.73409,0 -2.2023,-2.2023 -0.7132,-1.06981 -0.4583,-1.52905 -1.46823,-2.20232 -0.45527,-0.30354 -1.0813,-0.34721 -1.4682,-0.73411 -0.38691,-0.38691 -0.34719,-1.08131 -0.7341,-1.46821 -1.92453,-1.92453 -2.88789,-1.46821 -5.13875,-1.46821 -0.48941,0 -0.97881,0 -1.46823,0 -0.24469,0 -0.50195,0.0775 -0.73409,0 -0.51911,-0.17295 -0.93737,-0.60141 -1.46821,-0.73411 -0.6554,-0.16379 -2.8208,0 -3.67055,0 -0.48938,0 -1.00392,0.1548 -1.46821,0 -0.32829,-0.10949 -0.42457,-0.57935 -0.73409,-0.73411 -0.44577,-0.22289 -3.95888,0.22288 -4.40464,0 -0.30955,-0.1548 -0.40582,-0.62466 -0.73412,-0.73412 -0.34924,-0.1165 -3.44351,0.15138 -3.67052,0 -0.57589,-0.3839 -0.89233,-1.08428 -1.46821,-1.4682 -0.20363,-0.13575 -0.48942,0 -0.73412,0 -0.24469,-0.2447 -0.4894,-0.48941 -0.73411,-0.73412"
       id="path3001"
       inkscape:connector-curvature="0" />
    <path
       style="fill:#8f7454;fill-opacity:1;stroke:none;stroke-width:1.028391;stroke-linecap:butt;stroke-linejoin:miter;stroke-miterlimit:4;stroke-dasharray:none;stroke-opacity:1"
       d="m 313.37044,810.92369 c -1.30723,2.8791 -2.40743,3.87561 -4.40466,5.87285 -0.48941,0.4894 -1.08429,0.89233 -1.46821,1.46823 -0.30352,0.45526 -0.4306,1.01293 -0.7341,1.4682 -0.19197,0.28794 -0.48942,0.48939 -0.73411,0.7341 -0.24469,0.24471 -0.44618,0.54215 -0.73411,0.73411 -0.45528,0.3035 -1.0813,0.34719 -1.46823,0.73412 -1.51887,1.51889 2.32107,-0.0595 -0.73409,1.4682 -0.69212,0.34606 -1.51021,0.38802 -2.20232,0.7341 -0.29653,0.14832 -2.91441,2.91443 -2.93644,2.93641 -1.2235,1.22354 -2.44701,2.44705 -3.67051,3.67055 -0.24471,0.24469 -0.4894,0.4894 -0.73411,0.73411 -0.24471,0.24468 -0.57935,0.42457 -0.7341,0.7341 -0.10949,0.21886 0.10949,0.51524 0,0.73411 -0.15479,0.30953 -0.48942,0.4894 -0.73411,0.73411 -0.47016,0.47013 -2.47844,2.24943 -2.93643,2.93642 -0.30352,0.45528 -0.4058,1.03048 -0.73412,1.46823 -0.41527,0.55367 -0.9788,0.97878 -1.4682,1.4682 -1.22352,1.2235 -2.44702,2.44702 -3.67053,3.67053 -0.48942,0.48941 -1.08429,0.89235 -1.46823,1.46821 -0.3035,0.45526 -0.43057,1.01295 -0.73409,1.46821 -0.239,0.35852 -2.57792,2.69744 -2.93644,2.93643 -0.45526,0.30352 -1.01293,0.4306 -1.46821,0.7341 -0.28794,0.19196 -0.4894,0.48942 -0.73411,0.73411 -0.48938,0.48942 -0.9788,0.97881 -1.46819,1.46821 -0.92616,0.92614 -2.16936,1.91369 -2.93643,2.93643 -2.66663,3.55547 0.77713,-0.0431 -1.46821,2.20232 -1.22352,1.2235 -2.44701,2.44702 -3.67055,3.67055 -0.4894,0.48938 -1.24933,0.81158 -1.4682,1.46821 -0.1095,0.32829 0.39478,0.66622 0.73411,0.73409 2.69933,0.53987 4.1209,-0.3633 6.60696,-1.46821 11.58308,-5.14805 -4.30908,1.78746 5.13874,-2.93643 0.69211,-0.34606 1.45161,-0.54643 2.20232,-0.73411 0.23739,-0.0593 0.49672,0.0593 0.73409,0 0.77297,-0.19324 2.44121,-0.47775 2.93644,-1.46821 0.10949,-0.21886 0,-0.4894 0,-0.73409 0,-0.24472 0,-0.48943 0,-0.73412 0,-2.03576 -0.10949,1.17183 0.73411,-2.20232 0.11884,-0.47478 -0.1548,-1.0039 0,-1.46822 0.90714,-2.72139 0.7341,0.89484 0.7341,-1.46821 0,-0.48939 0.4748,-1.58691 0,-1.46821 -1.16336,0.29084 -3.38747,2.65337 -4.40465,3.67053 -0.48938,0.48942 -1.03583,0.92776 -1.4682,1.46822 -0.55116,0.68894 -0.84435,1.57844 -1.46821,2.20233 -0.38691,0.3869 -1.01295,0.43057 -1.46823,0.73409 -0.28793,0.19196 -0.48938,0.4894 -0.73411,0.73411 -0.24469,0.2447 -0.62466,0.4058 -0.73408,0.7341 -0.1548,0.4643 0.11884,0.99344 0,1.46822 -0.13286,0.53083 -0.56108,0.94913 -0.73411,1.46823 -0.22026,0.66067 0.22024,1.5416 0,2.2023 -0.17296,0.51909 -0.56109,0.94912 -0.73411,1.46821 -0.72844,2.18531 1.73826,-1.50623 -0.7341,2.20232 -0.19196,0.28793 -0.65019,0.39838 -0.73411,0.73411 0,5.20681 0.51908,0.43004 -0.7341,2.93642 -0.10949,0.21887 0,0.4894 0,0.73411 0,0.48941 0.1548,1.00392 0,1.46821 -2.43473,2.43473 0,-0.34606 0,0.73411 0,0.2447 -0.97882,0 -0.73411,0 0.73411,0 1.46821,0 2.20232,0 0.24469,0 0.51522,0.1095 0.7341,0 2.3475,-1.17375 4.05162,-3.31755 5.87285,-5.13875 1.22351,-1.2235 2.1868,-2.78031 3.67052,-3.67053 1.06994,-0.64195 2.5237,-0.24259 3.67055,-0.73411 1.76989,-0.75853 1.22603,-1.71608 2.2023,-2.9364 0.64856,-0.8107 1.55377,-1.39165 2.20234,-2.20234 0.34182,-0.42727 0.4058,-1.03048 0.7341,-1.46821 0.41527,-0.55371 0.9788,-0.9788 1.46822,-1.4682 0.97881,-0.97881 1.9576,-1.95763 2.9364,-2.93644 0.48942,-0.48942 0.97882,-1.95763 1.46821,-1.46822 0.48942,0.48942 -1.03583,0.92776 -1.46821,1.46822 -0.55114,0.68893 -0.84432,1.57844 -1.46819,2.20232 -1.10795,1.10793 -2.73043,1.68293 -3.67053,2.93642 -0.60536,0.80714 -0.37985,1.99173 -0.73411,2.93645 -0.38424,1.02463 -0.90518,1.99803 -1.46823,2.9364 -0.17817,0.29674 -0.4894,0.4894 -0.73409,0.73411 -0.4894,0.4894 -0.97881,0.97882 -1.46821,1.46821 -0.24471,0.24471 -0.57935,0.42459 -0.73411,0.73411 -0.10949,0.21886 0.13574,0.5305 0,0.73411 -0.38392,0.57587 -1.1587,0.84916 -1.46821,1.46821 -0.0575,0.11489 0,3.46528 0,3.67053 0,0.7495 -0.11902,4.78211 0,5.13876 0.10949,0.32829 0.54213,0.44616 0.7341,0.73409 0.44706,0.67061 0.62661,1.78153 1.46822,2.20232 0.0385,0.0192 2.1639,0.0192 2.2023,0 0.30953,-0.1548 0.48941,-0.4894 0.73412,-0.73409 0.73411,-0.73412 1.46822,-1.46823 2.20232,-2.20232 0.24469,-0.24473 0.65017,-0.3984 0.73411,-0.73412 0.17799,-0.71219 -0.14401,-1.48248 0,-2.20232 0.10733,-0.53654 0.60139,-0.93738 0.73411,-1.46821 0.11884,-0.4748 -0.11884,-0.99342 0,-1.46822 0.13269,-0.53083 0.62678,-0.93167 0.7341,-1.46821 0.14383,-0.71984 -0.28917,-1.52756 0,-2.20232 0.48196,-1.12458 1.60814,-1.86689 2.2023,-2.93643 0.48942,-1.22348 0.97882,-2.44702 1.46821,-3.67052 0,-0.24471 -0.0775,-0.50197 0,-0.73409 0.34609,-1.03821 1.12217,-1.89826 1.46823,-2.93645 0.15479,-0.46429 -0.27147,-1.06099 0,-1.46821 1.1128,-1.66919 2.20232,-1.31729 2.20232,-3.67053 0,-0.43872 -0.17296,-1.46822 0.73411,-1.46822 0.24469,0 0.24469,0.73411 0,0.73411 -0.24471,0 0,-0.97879 0,-0.73411 0,3.91523 0,7.83047 0,11.74571 0,0.76085 0.169,4.06661 0,4.40464 -1.65709,3.31417 -1.46821,1.07056 -1.46821,3.67053 0,0.2447 -0.10949,0.51524 0,0.7341 0.44045,0.88093 1.76184,1.32141 2.2023,2.20232 0.1095,0.21887 -0.10949,0.51526 0,0.73411 0.30953,0.61905 1.08431,0.89235 1.46821,1.46823 0.30354,0.45528 0.56109,0.9491 0.73411,1.46821 0.17296,0.51908 -0.4762,2.20232 0.73412,2.20232 0.34605,0 0.48942,-0.48941 0.73411,-0.73412 0.4894,-0.4894 0.97879,-0.97882 1.46821,-1.4682 0.24469,-0.24473 0.57935,-0.42459 0.73411,-0.73412 0.34606,-0.69211 0.44672,-1.48385 0.7341,-2.20232 0.20321,-0.50803 0.60141,-0.93738 0.73411,-1.46821 0.17799,-0.71219 -0.23214,-1.50589 0,-2.20232 0.34606,-1.03819 1.12215,-1.89822 1.46821,-2.93643 0.0775,-0.23213 0,-0.4894 0,-0.7341 0,-0.4894 0,-0.9788 0,-1.46822 0,-1.46821 0,-2.93642 0,-4.40463 0,-0.73409 -0.17817,-1.49014 0,-2.20232 0.084,-0.33573 0.62467,-0.40582 0.73411,-0.73411 0.1548,-0.46429 -0.21887,-1.03048 0,-1.46821 0.30952,-0.61906 1.24933,-0.81162 1.46823,-1.4682 0.3095,-0.9286 0,-1.95763 0,-2.93644 0,-0.9788 0,-1.95763 0,-2.93643 0,-0.24469 -0.13574,-0.53049 0,-0.7341 1.81622,-2.72433 1.47198,-0.0191 2.2023,-3.67054 0.096,-0.4799 0,-0.97879 0,-1.46821 0,-0.7341 0,-1.46821 0,-2.20231 0,-2.44703 0,-4.89406 0,-7.34107 0,-1.22352 -0.23996,-2.47078 0,-3.67053 0.10733,-0.53654 0.60141,-0.93738 0.73409,-1.46823 0.11884,-0.47478 0,-0.97878 0,-1.4682 0.24473,-0.48939 0.56109,-0.94913 0.73412,-1.46821 0.0775,-0.23214 0,-0.4894 0,-0.73411 0.24471,-0.97881 0.35939,-1.99965 0.73409,-2.93642 0.12855,-0.3213 0.48942,-0.4894 0.73411,-0.73409 0.24472,-0.48943 0.56111,-0.94914 0.73412,-1.46823 0.22022,-0.66071 -0.22024,-1.54163 0,-2.2023 0.10949,-0.32832 0.57935,-0.42459 0.73409,-0.73412 0.21888,-0.43773 -0.1548,-1.00394 0,-1.46822 0.17296,-0.51909 0.48942,-0.97879 0.73412,-1.46821 0,-0.73411 -0.14384,-1.48248 0,-2.20232 0.25625,-1.28126 1.34643,-2.08053 2.20232,-2.93643 0.24471,-0.2447 0.57935,-0.42458 0.73411,-0.7341 0.10949,-0.21887 -0.0775,-0.50197 0,-0.73411 0.17314,-0.51909 0.56107,-0.94912 0.73409,-1.46823 0.0775,-0.23212 -0.13574,-0.53048 0,-0.73409 0.38394,-0.57588 0.97883,-0.97881 1.46823,-1.46821"
       id="path2997"
       inkscape:connector-curvature="0" />
    <path
       style="fill:#6f573c;fill-opacity:1;stroke:none;stroke-width:1.028391;stroke-linecap:butt;stroke-linejoin:miter;stroke-miterlimit:4;stroke-dasharray:none;stroke-opacity:1"
       d="m 112.95938,692.73257 c -3.42937,0 -3.51441,-0.29676 -6.60696,0.73409 -1.25014,0.41672 -2.42039,1.0515 -3.67053,1.46823 -0.97881,0.24469 -1.95762,0.4894 -2.936426,0.73409 -0.489404,0.24471 -0.94912,0.56107 -1.468213,0.73412 -0.232143,0.0775 -0.515236,-0.10949 -0.734106,0 -0.309527,0.15479 -0.424579,0.57935 -0.734105,0.73409 -0.437737,0.21888 -1.030477,-0.21886 -1.468214,0 -0.309527,0.1548 -0.489404,0.48942 -0.734105,0.73411 -0.489407,0.48943 -0.892333,1.08431 -1.468216,1.46823 -0.203603,0.13574 -0.515236,-0.10949 -0.734104,0 -2.238702,1.11935 1.342639,0.58198 -2.202319,1.46821 -0.474793,0.11884 -1.003923,-0.1548 -1.468213,0 -0.328301,0.10949 -0.489404,0.48938 -0.734107,0.73411 -0.489403,0.48939 -1.084293,0.89233 -1.468212,1.46821 -1.282885,1.92431 -0.27439,1.28288 -1.468213,3.67051 -0.309526,0.61907 -1.249344,0.81162 -1.468214,1.46823 -0.154762,0.46428 0,0.9788 0,1.4682 0,0.48941 -0.154762,1.00394 0,1.46821 0.173047,0.51911 0.561078,0.94912 0.734108,1.46821 0.07738,0.23216 -0.109437,0.51526 0,0.73411 0.154762,0.30953 0.579344,0.42459 0.734106,0.73412 0.109437,0.21885 -0.109438,0.51523 0,0.73411 0.154762,0.30952 0.624674,0.4058 0.734106,0.73411 0.154762,0.46427 -0.154763,1.00392 0,1.46821 0.109437,0.32831 0.489406,0.4894 0.734107,0.73409 0.734106,0.73412 1.468212,1.46821 2.202319,2.20232 0.431761,0.43177 2.596477,2.76647 2.936425,2.93644 1.480511,0.74024 2.387647,0.50605 3.670532,1.46821 0.553699,0.41529 0.84916,1.15868 1.468214,1.4682 0.437736,0.21888 1.003923,-0.15479 1.468211,0 0.328305,0.1095 0.424582,0.57936 0.734106,0.7341 0.218871,0.10949 0.51524,-0.10949 0.734107,0 1.814276,0.90716 0.438726,0.73411 0,0.73411"
       id="path3029"
       inkscape:connector-curvature="0" />
    <path
       style="fill:#a68d70;fill-opacity:1;stroke:none;stroke-width:1.028391;stroke-linecap:butt;stroke-linejoin:miter;stroke-miterlimit:4;stroke-dasharray:none;stroke-opacity:1"
       d="m 184.16769,660.43189 c -4.24583,2.21077 -7.57261,5.78908 -12.47979,6.60694 -1.44825,0.24138 -2.98029,-0.35607 -4.40465,0 -11.15315,2.78829 -3.64451,2.42035 -13.2139,6.60696 -1.8487,0.8088 -3.91524,0.97881 -5.87287,1.46821 -2.44701,1.46823 -4.73333,3.24564 -7.34106,4.40466 -1.84395,0.81951 -3.97002,0.79661 -5.87285,1.46821 -0.52964,0.18692 -7.66502,3.30892 -9.54338,4.40464 -1.99405,1.16318 -3.89332,2.48281 -5.87286,3.67051 -1.69171,1.01505 -3.56047,1.75272 -5.13874,2.93643 -0.43775,0.3283 -0.34719,1.08131 -0.73409,1.46821 -0.86517,0.86516 -2.01565,1.39664 -2.93644,2.20232 -1.89223,1.65571 -4.50774,4.5593 -5.87285,6.60697 -2.26708,3.40063 -3.43997,5.68471 -4.40464,9.54337 -0.361,1.44403 -0.32519,2.97346 -0.734106,4.40465 -0.574369,2.01028 -1.817021,3.81792 -2.202319,5.87286 -0.721531,3.84816 0.643662,7.88372 0,11.74569 -0.179907,1.07945 -1.230816,1.86812 -1.468213,2.93643 -0.265417,1.19437 0,2.44701 0,3.67053 0,1.46821 0.121933,2.94148 0,4.40464 -0.123605,1.48333 -0.599347,2.92228 -0.734106,4.40462 -0.110785,1.2185 0,2.44703 0,3.67055 0,0.97881 0.237397,1.98684 0,2.93642 -0.265416,1.06167 -1.061783,1.92037 -1.468213,2.93643 -0.09088,0.2272 0,0.48938 0,0.73411 0,1.22348 0,2.44702 0,3.67053 0,1.46821 0,2.93642 0,4.40462 0,2.30024 -0.210728,4.40235 0.734108,6.60697 0.347549,0.81095 1.073642,1.41319 1.468211,2.20232 0.692123,1.38423 0.700374,3.06092 1.468213,4.40464 1.330096,2.32767 2.534345,2.86637 3.670535,5.13874 0.34606,0.69213 0.33598,1.53877 0.7341,2.20232 0.3561,0.5935 1.10139,0.8813 1.46822,1.46821 0.87,1.39201 1.29177,3.03882 2.20232,4.40464 1.06013,1.59019 2.46029,2.92546 3.67053,4.40464 3.75928,4.59468 2.59123,3.85675 8.07517,8.07515 1.59647,1.22808 7.84744,5.19449 9.54338,5.87287 1.87354,0.74943 3.99933,0.71881 5.87285,1.46821 1.83174,0.73271 3.307,2.20374 5.13874,2.93643 1.87356,0.74941 3.92311,0.94828 5.87285,1.46823 1.72131,0.459 3.45886,0.87528 5.13875,1.4682 2.48528,0.87714 4.76206,2.39348 7.34108,2.93642 2.15507,0.4537 4.41672,-0.23054 6.60694,0 2.48177,0.26123 4.85683,1.23161 7.34106,1.46821 2.67961,0.25519 5.38345,0 8.07517,0 2.44703,0 4.89405,0 7.34106,0 2.44703,0 4.9062,0.24349 7.34107,0 2.58416,-0.25841 14.28975,-3.05035 16.15035,-3.67053 3.01787,-1.00597 5.81619,-2.59302 8.80926,-3.67053 3.13158,-1.12736 6.44393,-1.7236 9.5434,-2.93643 2.54775,-0.99695 4.87097,-2.4943 7.34107,-3.67053 2.66952,-1.2712 5.40564,-2.39934 8.07515,-3.67055 0.78185,-0.37229 10.96806,-5.32775 12.4798,-6.60694 1.72223,-1.45728 2.86952,-3.48553 4.40464,-5.13874 1.64836,-1.77514 3.32821,-3.52938 5.13876,-5.13875 3.96398,-3.52354 -1.20802,6.82069 5.13875,-5.87284 0.79668,-1.59339 0.8287,-3.47603 1.46821,-5.13875 0.58926,-1.53209 1.68322,-2.84737 2.20232,-4.40464 0.4707,-1.41208 0.3994,-2.95429 0.73411,-4.40464 1.53919,-6.66989 1.77674,-4.20778 2.93642,-11.7457 0.14886,-0.96743 0,-1.95761 0,-2.93644 0,-2.93641 0,-5.87285 0,-8.80926 0,-3.91524 0,-7.83048 0,-11.7457 0,-0.97881 0.10805,-1.9636 0,-2.93644 -0.1379,-1.24011 -0.62114,-2.42792 -0.73412,-3.67052 -0.13286,-1.46219 0.4318,-3.00134 0,-4.40463 -0.58017,-1.88562 -2.2622,-3.28468 -2.93641,-5.13875 -0.33452,-0.91987 0.19196,-1.97664 0,-2.93642 -0.30352,-1.51758 -0.93932,-2.95019 -1.46821,-4.40466 -0.45035,-1.23842 -0.97882,-2.44701 -1.46821,-3.67053 -0.97882,-1.46822 -2.25775,-2.77579 -2.93643,-4.40462 -2.95765,-7.09834 1.43405,-1.88651 -2.20232,-7.34108 -0.86914,-1.3037 -1.97448,-2.43372 -2.93644,-3.67053 -0.75115,-0.96577 -1.39663,-2.01564 -2.20232,-2.93643 -1.82305,-2.0835 -3.91524,-3.91522 -5.87283,-5.87285 -0.97882,-0.9788 -1.89468,-2.02489 -2.93643,-2.93641 -0.92079,-0.80569 -2.01565,-1.39664 -2.93642,-2.20233 -1.04176,-0.91152 -1.82904,-2.10588 -2.93645,-2.93643 -2.16419,-1.62313 -2.93368,-1.25728 -5.13874,-2.20232 -1.00586,-0.43106 -1.97979,-0.93673 -2.93643,-1.46821 -1.24727,-0.69294 -2.33452,-1.7013 -3.67051,-2.20232 -0.68737,-0.25776 -1.48248,0.14401 -2.20232,0 -0.53654,-0.10733 -0.93168,-0.6268 -1.46823,-0.73411 -0.71985,-0.14383 -1.52072,0.27265 -2.2023,0 -0.64264,-0.25705 -0.81162,-1.24932 -1.46823,-1.46821 -0.92857,-0.30952 -1.96744,0.13844 -2.93643,0 -0.76603,-0.10949 -1.44352,-0.58233 -2.20232,-0.73409 -0.47989,-0.096 -0.97881,0 -1.46821,0 -0.4894,-0.24471 -0.94912,-0.56109 -1.46821,-0.7341 -0.23214,-0.0775 -0.4894,0 -0.73411,0 -0.48938,0 -0.9788,0 -1.46823,0 -1.22348,0 -2.44701,0 -3.67049,0 -0.48942,0 -0.97884,0 -1.46822,0 -0.24471,0 -0.50197,0.0775 -0.73412,0 -0.51908,-0.17296 -0.94912,-0.5611 -1.4682,-0.73411 -0.68478,-0.22826 -2.99205,0.22615 -3.67053,0 -0.65661,-0.2189 -0.84916,-1.15869 -1.46823,-1.46821 -0.21886,-0.10949 -0.50195,0.0775 -0.73409,0 -0.51911,-0.17296 -0.94913,-0.5611 -1.46823,-0.73411 -0.4332,-0.14455 -3.26036,0 -3.67053,0 -2.44701,0 -4.89403,0 -7.34106,0 -0.38839,0 -1.90621,0.12693 -2.20232,0 -1.50878,-0.64663 -2.76312,-2.20232 -4.40464,-2.20232 -1.2235,0 -1.81184,1.72034 -2.93643,2.20232 -0.67475,0.28917 -1.46821,0 -2.20232,0 -1.46821,0 -2.9364,0 -4.40463,0"
       id="path2993"
       inkscape:connector-curvature="0" />
    <path
       style="fill:#000000;fill-opacity:1;stroke:none;stroke-width:1.028391;stroke-linecap:butt;stroke-linejoin:miter;stroke-miterlimit:4;stroke-dasharray:none;stroke-opacity:1"
       d="m 201.78624,751.46106 c -1.2235,-0.73409 -2.39432,-1.56421 -3.67053,-2.20232 -0.16451,-0.0823 -2.76198,0 -2.93642,0 -0.69141,0 -3.25291,-0.13915 -3.67052,0 -0.32832,0.10949 -0.48942,0.48942 -0.73412,0.73412 -0.24471,0.24471 -0.62467,0.40581 -0.73409,0.73411 -0.11201,0.33604 0,3.26077 0,3.67053 0,0.73409 -0.12082,1.4782 0,2.20232 0.10571,0.63451 0.95469,2.98586 1.46821,3.67053 1.19146,1.58865 4.06496,3.80201 5.87283,4.40464 0.47565,0.15857 3.06953,0 3.67053,0 0.60101,0 3.19491,0.15857 3.67054,0 1.84992,-0.61664 3.07664,-2.34252 4.40465,-3.67053 0.33059,-0.33061 2.0906,-1.86721 2.20232,-2.20232 0.15479,-0.4643 0.11884,-0.99342 0,-1.46821 -0.13287,-0.53082 -0.34719,-1.08132 -0.73412,-1.46822 -0.17295,-0.17296 -0.50195,0.0775 -0.73411,0 -0.51909,-0.17296 -0.96016,-0.53088 -1.46821,-0.73412 -0.71847,-0.28737 -1.52586,-0.3583 -2.20232,-0.73409 -1.54251,-0.85696 -2.79823,-2.20624 -4.40464,-2.93644 -9.21422,-4.18826 0.48065,1.70855 -5.87283,-1.4682 -0.30954,-0.1548 -0.44618,-0.54216 -0.73412,-0.73412 -1.26531,-0.84353 -1.10967,-0.73411 -2.20232,-0.73411"
       id="path3003"
       inkscape:connector-curvature="0" />
    <path
       style="fill:#000000;fill-opacity:1;stroke:none;stroke-width:1.028391;stroke-linecap:butt;stroke-linejoin:miter;stroke-miterlimit:4;stroke-dasharray:none;stroke-opacity:1"
       d="m 110.75706,743.38591 c -1.6142,0.055 -4.37205,-0.39151 -5.87285,0.73411 -0.43774,0.32828 -0.43059,1.01293 -0.73411,1.46819 -0.19196,0.28795 -0.57934,0.42459 -0.7341,0.73412 -0.13378,0.26756 0,3.24754 0,3.67053 0,2.20232 0,4.40464 0,6.60696 0,0.65608 -0.11697,3.43659 0,3.67053 0.15476,0.30952 0.4058,0.84353 0.7341,0.73411 1.41649,-0.47216 1.91894,-2.537 2.20232,-3.67053 0.17805,-0.7122 -0.14397,-1.48248 0,-2.20234 0.15176,-0.75878 0.38805,-1.51019 0.73411,-2.2023 0.39457,-0.78915 1.01428,-1.44577 1.46821,-2.20232 0.28152,-0.4692 0.43059,-1.01295 0.73411,-1.46823 0.19196,-0.28793 0.65017,-0.39835 0.7341,-0.73411 0.41966,-1.67863 0.48941,-3.42582 0.73411,-5.13872 z"
       id="path3005"
       inkscape:connector-curvature="0" />
    <path
       style="fill:none;stroke:none;stroke-width:1.028391;stroke-linecap:butt;stroke-linejoin:miter;stroke-miterlimit:4;stroke-dasharray:none;stroke-opacity:1"
       d="m 131.31204,780.82533 c 0.97881,-0.24471 2.69171,-1.71292 2.93642,-0.73409 0.24471,0.97878 -1.95761,0.48938 -2.93642,0.73409 z"
       id="path3007"
       inkscape:connector-curvature="0" />
    <path
       style="fill:none;stroke:none;stroke-width:1.028391;stroke-linecap:butt;stroke-linejoin:miter;stroke-miterlimit:4;stroke-dasharray:none;stroke-opacity:1"
       d="m 152.60114,777.8889 c 1.22348,0.73411 2.35904,1.64024 3.67053,2.20234 0.44981,0.19276 0.9788,0 1.46819,0 0.24471,0 -0.50918,0.0965 -0.73411,0 -1.50877,-0.64665 -2.78545,-2.47221 -4.40461,-2.20234 -0.96552,0.16109 0,1.95761 0,2.93643"
       id="path3009"
       inkscape:connector-curvature="0" />
    <path
       style="fill:none;stroke:none;stroke-width:1.028391;stroke-linecap:butt;stroke-linejoin:miter;stroke-miterlimit:4;stroke-dasharray:none;stroke-opacity:1"
       d="m 148.19648,791.1028 c 0.42178,1.6871 1.09092,3.35473 0.73411,5.13876 -0.10733,0.53654 -0.56106,0.94912 -0.73411,1.46822 -0.0775,0.23215 0,0.48939 0,0.7341 0,0.73411 0.10392,1.47558 0,2.20232 -0.14275,0.99878 -0.53624,1.94709 -0.73409,2.93643 -0.048,0.23995 0.0775,0.50196 0,0.7341 -0.17296,0.51908 -0.6268,0.93166 -0.73412,1.46821 -0.004,0.0192 0.071,5.03242 0,5.13875 -0.38392,0.57588 -1.0843,0.89233 -1.46821,1.46821 -0.10517,0.15767 0,2.46316 0,2.93643"
       id="path3011"
       inkscape:connector-curvature="0" />
    <path
       style="fill:none;stroke:none;stroke-width:1.028391;stroke-linecap:butt;stroke-linejoin:miter;stroke-miterlimit:4;stroke-dasharray:none;stroke-opacity:1"
       d="m 169.48558,792.57103 c 1.4682,-0.24469 2.92526,-0.56973 4.40464,-0.73411 0.72962,-0.0811 1.46821,0 2.20232,0 1.2235,0 2.44701,0 3.67051,0 2.69174,0 5.38345,0 8.07517,0"
       id="path3013"
       inkscape:connector-curvature="0" />
    <path
       style="fill:none;stroke:none;stroke-width:1.028391;stroke-linecap:butt;stroke-linejoin:miter;stroke-miterlimit:4;stroke-dasharray:none;stroke-opacity:1"
       d="m 165.08092,803.58263 c 6.11757,0 12.23512,0 18.35268,0 1.95761,0 3.91522,0 5.87285,0 0.9788,0 2.02762,-0.36353 2.93643,0 0.50803,0.2032 0.48938,0.97881 0.73409,1.46819"
       id="path3015"
       inkscape:connector-curvature="0" />
    <path
       style="fill:none;stroke:none;stroke-width:1.028391;stroke-linecap:butt;stroke-linejoin:miter;stroke-miterlimit:4;stroke-dasharray:none;stroke-opacity:1"
       d="m 165.08092,816.06243 c 4.21771,0 2.57621,-0.54717 5.13875,0.73411 0.4894,0.24469 0.94912,0.56107 1.46823,0.73411 0.23212,0.0775 0.51523,-0.10949 0.73409,0 0.30953,0.1548 0.4894,0.48939 0.73411,0.73412 0.2447,0.24469 0.48941,0.48938 0.73412,0.73409"
       id="path3019"
       inkscape:connector-curvature="0" />
    <path
       style="fill:none;stroke:none;stroke-width:1.028391;stroke-linecap:butt;stroke-linejoin:miter;stroke-miterlimit:4;stroke-dasharray:none;stroke-opacity:1"
       d="m 133.51436,794.77335 c -2.69174,0 -5.38344,0 -8.07517,0 -0.73411,0 -1.50589,-0.23214 -2.20232,0 -0.32829,0.10949 -0.4894,0.4894 -0.73411,0.73411 -0.24469,0.2447 -0.4894,0.48941 -0.73411,0.7341"
       id="path3021"
       inkscape:connector-curvature="0" />
    <path
       style="fill:none;stroke:none;stroke-width:1.028391;stroke-linecap:butt;stroke-linejoin:miter;stroke-miterlimit:4;stroke-dasharray:none;stroke-opacity:1"
       d="m 133.51436,799.91209 c -2.8202,2.68048 -4.03704,3.30329 -7.34107,4.40464 -0.7341,0.24471 -1.4516,0.54641 -2.20232,0.73409 -1.42001,0.35501 -0.77259,-0.69562 -2.20232,0.73412"
       id="path3023"
       inkscape:connector-curvature="0" />
    <path
       style="fill:none;stroke:none;stroke-width:1.028391;stroke-linecap:butt;stroke-linejoin:miter;stroke-miterlimit:4;stroke-dasharray:none;stroke-opacity:1"
       d="m 136.4508,806.51903 c -0.0316,4.60969 -2.54058,0.79026 -3.67055,1.46823 -1.04914,0.62951 -1.88726,1.57284 -2.93641,2.20232 -0.20985,0.12603 -0.51526,-0.10949 -0.73412,0 -0.30952,0.1548 -0.4058,0.62467 -0.73411,0.73411 -0.46429,0.1548 -0.97879,0 -1.46821,0 -0.4894,0.24469 -0.9788,0.4894 -1.46821,0.7341"
       id="path3025"
       inkscape:connector-curvature="0" />
    <path
       style="fill:#8f7454;fill-opacity:1;stroke:none;stroke-width:1.028391;stroke-linecap:butt;stroke-linejoin:miter;stroke-miterlimit:4;stroke-dasharray:none;stroke-opacity:1"
       d="m 217.93658,707.41468 c 0.0365,-2.17353 -0.44145,-3.37538 0.73411,-5.13873 0.19196,-0.28794 0.57934,-0.42457 0.73412,-0.7341 0.21885,-0.43775 -0.21888,-1.03049 0,-1.46822 0.81156,-1.62315 0.4556,-0.22781 1.4682,-0.7341 0.65068,-0.32535 1.53405,-1.75682 2.20233,-2.20234 3.70857,-2.47236 0.0162,-0.005 2.20232,-0.73409 0.51908,-0.17296 0.93738,-0.6014 1.4682,-0.73412 0.7122,-0.17799 1.46823,0 2.20232,0 1.71292,0 3.42582,0 5.13876,0 1.2235,0 2.44701,0 3.67051,0 0.48942,0 0.97882,0 1.46821,0 0.24473,0 0.51525,-0.10949 0.73411,0 0.84161,0.42082 1.02115,1.53173 1.46823,2.20232 0.44131,0.66199 2.79366,2.50813 2.93641,2.93644 0.1548,0.46428 -0.1548,1.0039 0,1.46821 0.21888,0.6566 1.24935,0.8116 1.46821,1.4682 0.1548,0.46429 0,0.97881 0,1.46823 0,0.24469 -0.10949,0.51522 0,0.73408 0.30952,0.61906 1.08431,0.89234 1.46823,1.46822 2.47236,3.70857 0.005,0.0162 0.73411,2.20232 0.17296,0.51911 0.53088,0.96018 0.73411,1.46821 0.28738,0.71849 0.44671,1.48387 0.7341,2.20232 0.40643,1.01608 0.9788,1.95763 1.46821,2.93644 0.24471,0.4894 0.43059,1.01293 0.73411,1.4682 0.19196,0.28795 0.62467,0.40581 0.73409,0.73412 0.1548,0.46428 -0.11866,0.99342 0,1.4682 0.13269,0.53083 0.56109,0.94913 0.73412,1.46823 0.15839,0.47473 0,2.86896 0,3.67053 0,0.63616 0.14167,2.51116 0,2.93642 -0.17296,0.51908 -0.60141,0.93738 -0.73412,1.4682 -0.11866,0.47479 0.21888,1.0305 0,1.46823 -0.46428,0.92857 -1.4682,1.46821 -2.2023,2.2023 -1.23738,1.23738 -2.7145,3.24799 -4.40466,3.67055 -0.47479,0.11884 -1.00392,-0.1548 -1.46821,0 -0.57841,0.1928 -2.23058,2.58351 -2.93641,2.93641 -0.21888,0.1095 -0.51526,-0.10949 -0.73412,0 -0.30952,0.1548 -0.42457,0.57936 -0.73411,0.73412 -0.21886,0.10949 -0.51524,-0.10949 -0.73411,0 -0.30951,0.1548 -0.42455,0.57935 -0.7341,0.73411 -0.69211,0.34606 -1.51019,0.38804 -2.20232,0.7341 -0.88093,0.44046 -1.32139,1.76185 -2.2023,2.20233 -0.43775,0.21886 -1.00394,-0.15479 -1.46823,0 -0.51908,0.17296 -0.9788,0.48939 -1.4682,0.7341 -0.73412,0.24469 -1.46821,0.48938 -2.20233,0.73409"
       id="path3027"
       inkscape:connector-curvature="0" />
    <path
       style="fill:none;stroke:none;stroke-width:1.028391;stroke-linecap:butt;stroke-linejoin:miter;stroke-miterlimit:4;stroke-dasharray:none;stroke-opacity:1"
       d="m 319.24327,598.03284 c 0.48942,-0.9788 0.90518,-1.99804 1.46821,-2.93643 0.17817,-0.29674 0.46826,-0.51256 0.73411,-0.73411 1.20368,-1.00306 2.36683,-2.06729 3.67053,-2.93642 1.6415,-1.09434 3.54784,-1.76975 5.13875,-2.93643 2.09763,-1.53826 3.72934,-3.66508 5.87285,-5.13872 1.80357,-1.23997 4.12191,-1.62322 5.87285,-2.93645 1.25349,-0.94012 1.68293,-2.7304 2.93642,-3.67051 0.80716,-0.60537 1.97927,-0.41506 2.93643,-0.73412 1.25014,-0.41671 2.42039,-1.05151 3.67055,-1.46822 0.50492,-0.16829 1.76915,0.21657 2.20228,0 1.97155,-0.98577 -0.52645,-0.52153 0.73412,-2.20232 0.52938,-0.70584 1.49648,-0.93882 2.20232,-1.46821 0.27685,-0.20764 0.44616,-0.54215 0.73411,-0.73412 0.45528,-0.3035 1.01295,-0.43057 1.46821,-0.73409 0.28795,-0.19198 0.4894,-0.4894 0.73411,-0.73411 0.4894,-0.48941 0.97881,-0.97881 1.46821,-1.46821"
       id="path3031"
       inkscape:connector-curvature="0" />
    <path
       style="fill:none;stroke:none;stroke-width:1.028391;stroke-linecap:butt;stroke-linejoin:miter;stroke-miterlimit:4;stroke-dasharray:none;stroke-opacity:1"
       d="m 350.80985,628.1312 c 1.2235,-0.73411 2.5744,-1.28888 3.67052,-2.20232 1.86097,-1.5508 3.42583,-3.42583 5.13875,-5.13873 4.40464,-4.40466 8.92363,-8.69782 13.21393,-13.21393 2.50549,-2.63737 4.84329,-5.43048 7.34105,-8.07517 4.47388,-4.73705 6.23261,-5.72213 10.27749,-11.0116 14.86969,-19.44499 -3.3427,1.87451 8.07516,-9.54338 1.63185,-1.63184 2.10994,-3.83096 4.40466,-4.40464 0.47478,-0.11884 0.9788,0 1.4682,0"
       id="path3033"
       inkscape:connector-curvature="0" />
    <path
       style="fill:none;stroke:none;stroke-width:1.028391;stroke-linecap:butt;stroke-linejoin:miter;stroke-miterlimit:4;stroke-dasharray:none;stroke-opacity:1"
       d="m 405.13371,603.90569 c 1.35523,-0.80669 2.99292,0.40336 4.40466,0 3.05669,-0.87336 4.63964,-2.00813 7.34104,-3.67053 13.38258,-8.23545 -2.78441,1.89156 13.94804,-10.27751 2.58029,-1.87656 5.53731,-3.20512 8.07517,-5.13871 2.61865,-1.99519 4.60183,-4.78082 7.34105,-6.60697 0.0352,-0.0236 13.71489,-6.25524 14.68214,-6.60696 2.46325,-0.89574 0.74862,1.43919 2.2023,-1.46823"
       id="path3035"
       inkscape:connector-curvature="0" />
    <path
       style="fill:none;stroke:none;stroke-width:1.028391;stroke-linecap:butt;stroke-linejoin:miter;stroke-miterlimit:4;stroke-dasharray:none;stroke-opacity:1"
       d="m 427.1569,639.8769 c 0.97882,0.2447 1.94709,0.93199 2.93643,0.73412 7.14881,-1.42977 13.0158,-5.90081 19.08678,-9.5434 3.67051,-2.20232 7.29505,-4.48321 11.01158,-6.60694 3.13696,-1.79255 6.49525,-3.19904 9.5434,-5.13876 10.08391,-6.41705 3.27544,-3.34729 11.7457,-10.27749 3.24594,-1.62299 2.16261,-0.6944 3.67053,-2.2023"
       id="path3037"
       inkscape:connector-curvature="0" />
    <path
       style="fill:none;stroke:none;stroke-width:1.028391;stroke-linecap:butt;stroke-linejoin:miter;stroke-miterlimit:4;stroke-dasharray:none;stroke-opacity:1"
       d="m 432.29565,663.36832 c 1.95762,0.24467 3.9,0.73409 5.87285,0.73409 1.24774,0 2.42647,-0.63841 3.67053,-0.73409 1.95186,-0.1503 3.91524,0 5.87285,0 4.40464,0 8.80927,0 13.21393,0"
       id="path3039"
       inkscape:connector-curvature="0" />
    <path
       style="fill:none;stroke:none;stroke-width:1.028391;stroke-linecap:butt;stroke-linejoin:miter;stroke-miterlimit:4;stroke-dasharray:none;stroke-opacity:1"
       d="m 445.50958,695.66898 c 2.44701,0.24471 4.88462,0.61715 7.34104,0.73412 2.68868,0.12819 5.38346,0 8.07519,0 7.09634,0 14.19271,0 21.28908,0 2.20232,0 4.40464,0 6.60696,0 1.46822,0 2.93641,0 4.40462,0 0.24471,0 0.48942,0 0.73411,0 0.24471,0 0.51524,-0.10949 0.7341,0 0.30954,0.15479 0.48942,0.4894 0.73411,0.73409"
       id="path3041"
       inkscape:connector-curvature="0" />
    <path
       style="fill:none;stroke:none;stroke-width:1.028391;stroke-linecap:butt;stroke-linejoin:miter;stroke-miterlimit:4;stroke-dasharray:none;stroke-opacity:1"
       d="m 455.78705,726.50144 c 1.58355,3.16708 1.4176,4.30338 5.87285,5.13875 2.40512,0.45097 4.92112,-0.36297 7.34108,0 2.5265,0.37898 4.89404,1.46821 7.34106,2.20233 14.56052,4.36816 0.68691,0.33 13.21392,3.67054 1.7213,0.459 3.41047,1.03612 5.13872,1.46821 7.20199,1.80047 4.97225,-0.16666 7.34107,2.20232"
       id="path3043"
       inkscape:connector-curvature="0" />
    <path
       style="fill:none;stroke:none;stroke-width:1.028391;stroke-linecap:butt;stroke-linejoin:miter;stroke-miterlimit:4;stroke-dasharray:none;stroke-opacity:1"
       d="m 265.65351,658.22956 c -6.44431,-9.66644 0.0363,-0.56935 -5.13876,-6.60696 -0.79624,-0.92897 -1.52363,-1.91841 -2.20232,-2.93643 -1.28052,-1.92079 -2.18353,-4.10704 -3.67051,-5.87283 -2.45205,-2.91179 -5.38346,-5.38347 -8.07519,-8.07519 -8.31986,-8.31986 -16.63974,-16.63975 -24.95962,-24.95963"
       id="path3045"
       inkscape:connector-curvature="0" />
    <path
       style="fill:none;stroke:none;stroke-width:1.028391;stroke-linecap:butt;stroke-linejoin:miter;stroke-miterlimit:4;stroke-dasharray:none;stroke-opacity:1"
       d="m 214.26607,651.6226 c -1.81245,-1.6181 -4.24957,-4.82511 -6.60696,-5.87285 -1.1402,-0.50677 -2.57193,-0.14257 -3.67055,-0.73409 -2.15451,-1.16014 -3.85639,-3.01835 -5.87285,-4.40464 -1.90231,-1.30786 -3.98685,-2.33927 -5.87283,-3.67055 -2.27938,-1.60897 -4.28553,-3.5911 -6.60698,-5.13876 -3.75852,-2.50567 -8.49025,-4.47916 -12.4798,-6.60694 -14.94207,-7.9691 6.73233,2.77261 -12.47981,-5.87285 -4.49079,-2.02086 -8.80926,-4.40464 -13.2139,-6.60696"
       id="path3047"
       inkscape:connector-curvature="0" />
    <path
       style="fill:none;stroke:none;stroke-width:1.028391;stroke-linecap:butt;stroke-linejoin:miter;stroke-miterlimit:4;stroke-dasharray:none;stroke-opacity:1"
       d="m 179.02894,654.55902 c -16.69029,-1.85449 4.12841,0.65186 -13.94802,-2.20232 -2.18875,-0.34559 -4.43411,-0.29953 -6.60697,-0.7341 -7.72794,-1.54559 -2.36821,-1.46821 -5.13872,-1.46821"
       id="path3049"
       inkscape:connector-curvature="0" />
    <path
       style="fill:none;stroke:none;stroke-width:1.028391;stroke-linecap:butt;stroke-linejoin:miter;stroke-miterlimit:4;stroke-dasharray:none;stroke-opacity:1"
       d="m 242.16209,604.63981 c -0.46139,-1.92484 0.27686,-3.93493 0,-5.87285 0.0696,-1.85884 -1.17533,-3.38154 -1.46821,-5.13876 -0.2816,-1.68962 0.18916,-3.43632 0,-5.13875 -0.13789,-1.24011 -0.5963,-2.43042 -0.73411,-3.67051 -0.10823,-0.97284 0,-1.95763 0,-2.93644 0,-1.22351 0,-2.44703 0,-3.67053"
       id="path3051"
       inkscape:connector-curvature="0" />
    <path
       style="fill:none;stroke:none;stroke-width:1.028391;stroke-linecap:butt;stroke-linejoin:miter;stroke-miterlimit:4;stroke-dasharray:none;stroke-opacity:1"
       d="m 278.86742,595.09641 c 0,-8.99066 -0.30953,2.16669 0.73411,-5.13876 0.13844,-0.96895 0,-1.95759 0,-2.93639 0,-2.93644 0,-5.87287 0,-8.80929 0,-9.05399 0,-18.10797 0,-27.16194"
       id="path3053"
       inkscape:connector-curvature="0" />
    <path
       style="fill:none;stroke:none;stroke-width:1.028391;stroke-linecap:butt;stroke-linejoin:miter;stroke-miterlimit:4;stroke-dasharray:none;stroke-opacity:1"
       d="m 280.33562,640.61102 c 1.22352,-1.22352 2.63236,-2.2863 3.67055,-3.67055 0.46427,-0.61905 0.42928,-1.49106 0.7341,-2.20232 0.43107,-1.00585 0.86118,-2.02586 1.46822,-2.93644 7.48417,-11.22623 -2.46967,6.13445 6.60696,-9.54336 1.53621,-2.6535 2.72972,-5.50696 4.40461,-8.07517 2.00511,-3.07447 4.46226,-5.83051 6.60696,-8.80926 2.26074,-3.13992 4.40466,-6.36229 6.60698,-9.5434 2.28522,-3.30088 11.10057,-16.37491 13.948,-19.08675 2.3104,-2.20038 5.46141,-3.30912 8.07519,-5.13876 6.2907,-4.40349 11.85794,-9.81504 18.35266,-13.94802 0.92326,-0.58755 1.9576,-0.9788 2.9364,-1.46821"
       id="path3055"
       inkscape:connector-curvature="0" />
    <path
       style="fill:none;stroke:none;stroke-width:1.028391;stroke-linecap:butt;stroke-linejoin:miter;stroke-miterlimit:4;stroke-dasharray:none;stroke-opacity:1"
       d="m 377.23767,688.32791 c 3.11049,-3.04485 7.19981,-4.99748 10.27751,-8.07515 1.35138,-1.35142 2.21944,-3.16087 3.67051,-4.40465 2.00966,-1.72255 4.47609,-2.83453 6.60696,-4.40464 28.64353,-21.10575 -12.71577,7.98778 14.68213,-10.27749 3.41227,-2.27485 7.94745,-6.02367 11.01159,-8.80928 2.30459,-2.09506 4.40464,-4.40464 6.60696,-6.60695"
       id="path3057"
       inkscape:connector-curvature="0" />
    <path
       style="fill:none;stroke:none;stroke-width:1.028391;stroke-linecap:butt;stroke-linejoin:miter;stroke-miterlimit:4;stroke-dasharray:none;stroke-opacity:1"
       d="m 376.50356,694.20078 c 0.97882,1.22351 1.70439,2.70249 2.93643,3.67052 8.686,6.82471 20.51061,9.02944 30.83247,11.7457 4.64934,1.22352 9.29869,2.44703 13.94802,3.67053 4.64934,1.22352 9.22877,2.75291 13.94802,3.67055 4.11163,0.79947 8.32792,0.91462 12.47982,1.46821 3.19031,0.42538 6.41234,0.72271 9.54337,1.4682 10.39598,2.47523 1.42981,1.92838 11.01161,3.67055 4.01193,0.72944 1.98639,-0.95004 3.67053,0.7341"
       id="path3059"
       inkscape:connector-curvature="0" />
    <path
       style="fill:none;stroke:none;stroke-width:1.028391;stroke-linecap:butt;stroke-linejoin:miter;stroke-miterlimit:4;stroke-dasharray:none;stroke-opacity:1"
       d="m 362.55554,747.79054 c 4.73295,1.57766 3.3103,0.37387 5.13875,2.20232 0.24471,0.24471 0.57935,0.42458 0.73411,0.73411 0.10949,0.21886 -0.10949,0.51524 0,0.73409 0.1548,0.30953 0.57935,0.42459 0.7341,0.73412 0.34607,0.69211 0.33597,1.53877 0.73411,2.20232 0.35609,0.59348 1.15869,0.84914 1.46823,1.46821 0.21885,0.43773 -0.19279,1.01837 0,1.46822 4.30158,10.03708 0.0859,-2.03059 4.4046,6.60695 0.45122,0.90241 0.2829,2.03402 0.73412,2.93643 0.26312,0.52621 2.3149,2.3149 2.93643,2.93642"
       id="path3061"
       inkscape:connector-curvature="0" />
  </g>
</svg>
