<?xml version="1.0" encoding="UTF-8" standalone="no"?>
<!-- Created with Inkscape (http://www.inkscape.org/) -->

<svg
   xmlns:dc="http://purl.org/dc/elements/1.1/"
   xmlns:cc="http://creativecommons.org/ns#"
   xmlns:rdf="http://www.w3.org/1999/02/22-rdf-syntax-ns#"
   xmlns:svg="http://www.w3.org/2000/svg"
   xmlns="http://www.w3.org/2000/svg"
   xmlns:sodipodi="http://sodipodi.sourceforge.net/DTD/sodipodi-0.dtd"
   xmlns:inkscape="http://www.inkscape.org/namespaces/inkscape"
   width="297mm"
   height="210mm"
   viewBox="0 0 1052.3622 744.09448"
   id="svg7016"
   version="1.1"
   inkscape:version="0.91 r13725"
   sodipodi:docname="pooChart.svg">
  <defs
     id="defs7018" />
  <sodipodi:namedview
     id="base"
     pagecolor="#ffffff"
     bordercolor="#666666"
     borderopacity="1.0"
     inkscape:pageopacity="0.0"
     inkscape:pageshadow="2"
     inkscape:zoom="1"
     inkscape:cx="329.41682"
     inkscape:cy="366.55554"
     inkscape:document-units="px"
     inkscape:current-layer="layer1"
     showgrid="false"
     fit-margin-top="0"
     fit-margin-left="0"
     fit-margin-right="0"
     fit-margin-bottom="0"
     inkscape:window-width="1871"
     inkscape:window-height="1056"
     inkscape:window-x="49"
     inkscape:window-y="24"
     inkscape:window-maximized="1" />
  <metadata
     id="metadata7021">
    <rdf:RDF>
      <cc:Work
         rdf:about="">
        <dc:format>image/svg+xml</dc:format>
        <dc:type
           rdf:resource="http://purl.org/dc/dcmitype/StillImage" />
        <dc:title></dc:title>
      </cc:Work>
    </rdf:RDF>
  </metadata>
  <g
     inkscape:label="Layer 1"
     inkscape:groupmode="layer"
     id="layer1"
     transform="translate(-122.3546,139.79675)">
    <path
       style="color:#000000;clip-rule:nonzero;display:inline;overflow:visible;visibility:visible;opacity:1;isolation:auto;mix-blend-mode:normal;color-interpolation:sRGB;color-interpolation-filters:linearRGB;solid-color:#000000;solid-opacity:1;fill:#634931;fill-opacity:1;fill-rule:evenodd;stroke:#000000;stroke-width:0.57200003;stroke-linecap:butt;stroke-linejoin:miter;stroke-miterlimit:4;stroke-dasharray:none;stroke-dashoffset:0;stroke-opacity:1;color-rendering:auto;image-rendering:auto;shape-rendering:auto;text-rendering:auto;enable-background:accumulate"
       d="m 358.06117,454.10749 c 5.17829,-7.47572 21.16975,-18.60638 26.79595,-6.4186 4.56111,11.78728 -6.86857,17.01282 -15.89758,17.64628 -5.24773,3.95089 -14.73039,5.17259 -11.08928,-4.96079 -0.44873,-2.00629 -0.76864,-4.13531 -0.0561,-6.14347"
       id="path4439"
       inkscape:connector-curvature="0"
       inkscape:export-filename="/home/ashley/Pictures/games/CocoWiggler4/export/poo08.png"
       inkscape:export-xdpi="90.050003"
       inkscape:export-ydpi="90.050003" />
    <path
       style="color:#000000;clip-rule:nonzero;display:inline;overflow:visible;visibility:visible;opacity:1;isolation:auto;mix-blend-mode:normal;color-interpolation:sRGB;color-interpolation-filters:linearRGB;solid-color:#000000;solid-opacity:1;fill:#634931;fill-opacity:1;fill-rule:evenodd;stroke:#000000;stroke-width:0.57200003;stroke-linecap:butt;stroke-linejoin:miter;stroke-miterlimit:4;stroke-dasharray:none;stroke-dashoffset:0;stroke-opacity:1;color-rendering:auto;image-rendering:auto;shape-rendering:auto;text-rendering:auto;enable-background:accumulate"
       d="m 275.6741,221.28348 c 12.52765,-3.51067 20.92507,8.87896 8.82208,16.56263 -6.39715,6.27166 -21.39247,-3.12552 -24.50294,-8.456 -2.2894,-8.00726 10.90522,-5.96447 15.68086,-8.10663 z"
       id="path5396"
       inkscape:connector-curvature="0"
       inkscape:export-filename="/home/ashley/Pictures/games/CocoWiggler4/export/poo01.png"
       inkscape:export-xdpi="90.050003"
       inkscape:export-ydpi="90.050003" />
    <path
       style="display:inline;fill:#634931;fill-opacity:1;stroke:#000000;stroke-width:0.57200003;stroke-miterlimit:4;stroke-dasharray:none;stroke-opacity:1"
       d="m 459.90661,342.68113 c 5.71656,-8.68484 29.23122,-19.47464 31.64321,-2.92878 -2.97634,9.55445 -16.80334,11.09802 -24.95199,16.28263 -9.87853,5.9497 -7.80704,-7.68922 -6.69122,-13.35385 z"
       id="path5404"
       inkscape:connector-curvature="0"
       inkscape:export-filename="/home/ashley/Pictures/games/CocoWiggler4/export/poo04.png"
       inkscape:export-xdpi="90.050003"
       inkscape:export-ydpi="90.050003" />
    <path
       style="display:inline;fill:#634931;fill-opacity:1;stroke:#000000;stroke-width:0.57200003;stroke-miterlimit:4;stroke-dasharray:none;stroke-opacity:1"
       d="m 323.29871,223.97427 c 8.98189,-0.24537 18.8212,6.86588 26.65343,11.91731 14.41178,4.04757 2.14499,17.15848 -8.09376,11.70972 -14.47798,1.95583 -15.60797,-13.74597 -18.69712,-23.81021"
       id="path5408"
       inkscape:connector-curvature="0"
       inkscape:export-filename="/home/ashley/Pictures/games/CocoWiggler4/export/poo02.png"
       inkscape:export-xdpi="90.050003"
       inkscape:export-ydpi="90.050003" />
    <path
       style="display:inline;fill:#634931;fill-opacity:1;stroke:#000000;stroke-width:0.57200003;stroke-miterlimit:4;stroke-dasharray:none;stroke-opacity:1"
       d="m 306.41732,356.8493 c 10.56816,-0.93043 25.49022,-3.05157 20.31626,12.44871 -0.46942,6.34755 -15.57906,8.88977 -22.46999,5.43912 -9.7705,0.43565 -15.31889,-13.89393 -11.42286,-19.21689 4.44897,0.8042 9.58804,-1.10504 13.57659,1.32906 z"
       id="path5410"
       inkscape:connector-curvature="0"
       inkscape:export-filename="/home/ashley/Pictures/games/CocoWiggler4/export/poo05.png"
       inkscape:export-xdpi="90.050003"
       inkscape:export-ydpi="90.050003" />
    <path
       style="display:inline;fill:#634931;fill-opacity:1;stroke:#000000;stroke-width:0.57200003;stroke-miterlimit:4;stroke-dasharray:none;stroke-opacity:1"
       d="m 438.33173,290.50853 c 3.47856,-12.6958 20.03678,-6.0817 28.13044,-12.57765 9.03756,8.69753 -5.93083,22.37604 -15.02517,24.2222 -7.9051,3.94675 -11.69863,-7.11107 -13.44341,-12.59618"
       id="path5412"
       inkscape:connector-curvature="0"
       inkscape:export-filename="/home/ashley/Pictures/games/CocoWiggler4/export/poo03.png"
       inkscape:export-xdpi="90.050003"
       inkscape:export-ydpi="90.050003" />
    <path
       style="display:inline;fill:#634931;fill-opacity:1;stroke:#000000;stroke-width:0.57200003;stroke-miterlimit:4;stroke-dasharray:none;stroke-opacity:1"
       d="m 477.42276,429.75472 c 10.06593,0.65977 20.57193,-1.65562 30.27309,1.0618 -0.84234,7.57901 -4.06022,15.95347 -9.03033,20.79119 -8.24449,-4.36989 -23.99731,-5.44046 -21.34912,-19.32765 l 0.10646,-2.52534 0,0 z"
       id="path5414"
       inkscape:connector-curvature="0"
       inkscape:export-filename="/home/ashley/Pictures/games/CocoWiggler4/export/poo07.png"
       inkscape:export-xdpi="90.050003"
       inkscape:export-ydpi="90.050003" />
    <path
       style="display:inline;fill:#634931;fill-opacity:1;stroke:#000000;stroke-width:0.57200003;stroke-miterlimit:4;stroke-dasharray:none;stroke-opacity:1"
       d="m 440.62254,483.19997 c 13.00148,-3.35485 14.60207,9.09401 12.88678,18.63826 -0.40655,15.28389 -21.14577,2.95146 -16.10846,-8.33292 0.20218,-2.25815 -0.0319,-9.64769 3.31331,-10.21251"
       id="path5416"
       inkscape:connector-curvature="0"
       sodipodi:nodetypes="cccc"
       inkscape:export-filename="/home/ashley/Pictures/games/CocoWiggler4/export/poo09.png"
       inkscape:export-xdpi="90.050003"
       inkscape:export-ydpi="90.050003" />
    <path
       style="display:inline;fill:#634931;fill-opacity:1;stroke:#000000;stroke-width:0.57200003;stroke-miterlimit:4;stroke-dasharray:none;stroke-opacity:1"
       d="m 384.62022,379.53287 c 9.51013,-1.17509 16.79103,2.53018 25.53654,4.07665 3.53374,13.64996 -12.68382,12.31584 -21.61175,11.70389 -8.27067,-0.0784 -16.55375,0.15771 -24.81656,-0.11984 -10.96597,-12.08998 14.93106,-9.76366 20.47826,-15.95065 1.48402,3.82956 -6.28182,2.05332 0.41351,0.28989 z"
       id="path5418"
       inkscape:connector-curvature="0"
       inkscape:export-filename="/home/ashley/Pictures/games/CocoWiggler4/export/poo06.png"
       inkscape:export-xdpi="90.050003"
       inkscape:export-ydpi="90.050003" />
  </g>
</svg>
