<?xml version="1.0" encoding="UTF-8" standalone="no"?>
<svg
   xmlns:dc="http://purl.org/dc/elements/1.1/"
   xmlns:cc="http://creativecommons.org/ns#"
   xmlns:rdf="http://www.w3.org/1999/02/22-rdf-syntax-ns#"
   xmlns:svg="http://www.w3.org/2000/svg"
   xmlns="http://www.w3.org/2000/svg"
   xmlns:sodipodi="http://sodipodi.sourceforge.net/DTD/sodipodi-0.dtd"
   xmlns:inkscape="http://www.inkscape.org/namespaces/inkscape"
   inkscape:version="1.0 (4035a4fb49, 2020-05-01)"
   version="1.1"
   id="svg2"
   viewBox="0 0 1024 1024"
   height="1024"
   width="1024"
   sodipodi:docname="androidIcon.svg"
   inkscape:export-filename="C:\Users\ashley\Pictures\Games\CocoWiggler4\appIcons\androidIcon.png"
   inkscape:export-xdpi="96"
   inkscape:export-ydpi="96">
  <sodipodi:namedview
     inkscape:window-maximized="1"
     inkscape:window-y="302"
     inkscape:window-x="1072"
     inkscape:window-height="1017"
     inkscape:window-width="1920"
     showguides="false"
     units="px"
     showgrid="false"
     inkscape:current-layer="layer4"
     inkscape:document-units="px"
     inkscape:cy="430.73786"
     inkscape:cx="572.56701"
     inkscape:zoom="0.5"
     inkscape:pageshadow="2"
     inkscape:pageopacity="0.0"
     borderopacity="1.0"
     bordercolor="#666666"
     pagecolor="#ffffff"
     id="base"
     inkscape:document-rotation="0"
     inkscape:guide-bbox="true"
     fit-margin-top="0"
     fit-margin-left="0"
     fit-margin-right="0"
     fit-margin-bottom="0">
    <sodipodi:guide
       id="guide5282"
       position="0,512"
       orientation="512.0,0" />
    <sodipodi:guide
       id="guide5284"
       position="25.6,512"
       orientation="512.0,0" />
    <sodipodi:guide
       id="guide5286"
       position="51.199999,512"
       orientation="512.0,0" />
    <sodipodi:guide
       id="guide5288"
       position="76.799999,512"
       orientation="512.0,0" />
    <sodipodi:guide
       id="guide5290"
       position="102.4,512"
       orientation="512.0,0" />
    <sodipodi:guide
       id="guide5292"
       position="128,512"
       orientation="512.0,0" />
    <sodipodi:guide
       id="guide5294"
       position="153.6,512"
       orientation="512.0,0" />
    <sodipodi:guide
       id="guide5296"
       position="179.2,512"
       orientation="512.0,0" />
    <sodipodi:guide
       id="guide5298"
       position="204.8,512"
       orientation="512.0,0" />
    <sodipodi:guide
       id="guide5300"
       position="230.4,512"
       orientation="512.0,0" />
    <sodipodi:guide
       id="guide5302"
       position="256,512"
       orientation="512.0,0" />
    <sodipodi:guide
       id="guide5304"
       position="281.59999,512"
       orientation="512.0,0" />
    <sodipodi:guide
       id="guide5306"
       position="307.19999,512"
       orientation="512.0,0" />
    <sodipodi:guide
       id="guide5308"
       position="332.79999,512"
       orientation="512.0,0" />
    <sodipodi:guide
       id="guide5310"
       position="358.39999,512"
       orientation="512.0,0" />
    <sodipodi:guide
       id="guide5312"
       position="383.99999,512"
       orientation="512.0,0" />
    <sodipodi:guide
       id="guide5314"
       position="409.59999,512"
       orientation="512.0,0" />
    <sodipodi:guide
       id="guide5316"
       position="435.19999,512"
       orientation="512.0,0" />
    <sodipodi:guide
       id="guide5318"
       position="460.79999,512"
       orientation="512.0,0" />
    <sodipodi:guide
       id="guide5320"
       position="486.39999,512"
       orientation="512.0,0" />
    <sodipodi:guide
       id="guide5322"
       position="511.99999,512"
       orientation="512.0,0" />
    <sodipodi:guide
       id="guide5324"
       position="0,512"
       orientation="0,512.0" />
    <sodipodi:guide
       id="guide5326"
       position="0,537.6"
       orientation="0,512.0" />
    <sodipodi:guide
       id="guide5328"
       position="0,563.2"
       orientation="0,512.0" />
    <sodipodi:guide
       id="guide5330"
       position="0,588.8"
       orientation="0,512.0" />
    <sodipodi:guide
       id="guide5332"
       position="0,614.4"
       orientation="0,512.0" />
    <sodipodi:guide
       id="guide5334"
       position="0,640"
       orientation="0,512.0" />
    <sodipodi:guide
       id="guide5336"
       position="0,665.6"
       orientation="0,512.0" />
    <sodipodi:guide
       id="guide5338"
       position="0,691.2"
       orientation="0,512.0" />
    <sodipodi:guide
       id="guide5340"
       position="0,716.8"
       orientation="0,512.0" />
    <sodipodi:guide
       id="guide5342"
       position="0,742.4"
       orientation="0,512.0" />
    <sodipodi:guide
       id="guide5344"
       position="0,768"
       orientation="0,512.0" />
    <sodipodi:guide
       id="guide5346"
       position="0,793.59999"
       orientation="0,512.0" />
    <sodipodi:guide
       id="guide5348"
       position="0,819.19999"
       orientation="0,512.0" />
    <sodipodi:guide
       id="guide5350"
       position="0,844.79999"
       orientation="0,512.0" />
    <sodipodi:guide
       id="guide5352"
       position="0,870.39999"
       orientation="0,512.0" />
    <sodipodi:guide
       id="guide5354"
       position="0,895.99999"
       orientation="0,512.0" />
    <sodipodi:guide
       id="guide5356"
       position="0,921.59999"
       orientation="0,512.0" />
    <sodipodi:guide
       id="guide5358"
       position="0,947.19999"
       orientation="0,512.0" />
    <sodipodi:guide
       id="guide5360"
       position="0,972.79999"
       orientation="0,512.0" />
    <sodipodi:guide
       id="guide5362"
       position="0,998.39999"
       orientation="0,512.0" />
    <sodipodi:guide
       id="guide5364"
       position="0,1024"
       orientation="0,512.0" />
    <sodipodi:guide
       position="25.6,716.8"
       orientation="1,0"
       id="guide887" />
    <inkscape:grid
       type="xygrid"
       id="grid893"
       originx="0"
       originy="0" />
  </sodipodi:namedview>
  <defs
     id="defs4">
    <filter
       style="color-interpolation-filters:sRGB"
       inkscape:label="Drop Shadow"
       id="filter5544">
      <feFlood
         flood-opacity="0.498039"
         flood-color="rgb(0,0,0)"
         result="flood"
         id="feFlood5546" />
      <feComposite
         in="flood"
         in2="SourceGraphic"
         operator="in"
         result="composite1"
         id="feComposite5548" />
      <feGaussianBlur
         in="composite1"
         stdDeviation="3"
         result="blur"
         id="feGaussianBlur5550" />
      <feOffset
         dx="0"
         dy="10"
         result="offset"
         id="feOffset5552" />
      <feComposite
         in="SourceGraphic"
         in2="offset"
         operator="over"
         result="composite2"
         id="feComposite5554" />
    </filter>
  </defs>
  <metadata
     id="metadata7">
    <rdf:RDF>
      <cc:Work
         rdf:about="">
        <dc:format>image/svg+xml</dc:format>
        <dc:type
           rdf:resource="http://purl.org/dc/dcmitype/StillImage" />
        <dc:title></dc:title>
      </cc:Work>
    </rdf:RDF>
  </metadata>
  <g
     inkscape:groupmode="layer"
     id="layer4"
     inkscape:label="Layer 1">
    <g
       id="g6546"
       style="fill:#000000;stroke:none"
       transform="matrix(2.2222223,0,0,2.2222223,-56.88889,-56.88889)">
      <path
         style="display:inline;fill:#000000;fill-opacity:1;stroke:none;stroke-width:1.02839;stroke-linecap:butt;stroke-linejoin:miter;stroke-miterlimit:4;stroke-dasharray:none;stroke-opacity:1"
         d="m 139.04406,883.4413 c -1.60116,1.27966 -3.5699,-0.42654 -5.27609,0 -0.86147,0.21538 -2.79096,1.67459 -3.29757,1.97853 -2.05483,1.23292 -0.86668,0.034 -3.29754,1.97855 -0.72832,0.58266 -1.31903,1.31902 -1.97853,1.97854 -0.43969,0.43968 -0.87937,0.87935 -1.31904,1.31902 -0.21984,0.21983 -0.48704,0.40083 -0.6595,0.6595 -2.66931,4.00394 1.8985,-2.06501 -1.31903,3.29757 -0.31991,0.53318 -0.87935,0.87935 -1.31903,1.31902 -0.43968,0.43966 -0.87934,0.87935 -1.31902,1.31902 -0.21982,0.21984 -0.48706,0.40082 -0.65951,0.65951 -0.27266,0.409 -0.38682,0.91003 -0.65951,1.31902 -0.40024,0.60036 -1.68626,1.394 -1.97854,1.97854 -0.0984,0.19662 0.21984,0.65951 0,0.65951 -0.21983,0 -0.19662,-0.75783 0,-0.65951 1.87596,0.93798 0.60116,2.21783 3.29756,1.31902 0.75196,-0.25065 1.26959,-0.96453 1.97855,-1.31902 1.74088,-0.87045 3.39473,-0.7546 5.27609,-1.31903 1.13392,-0.34018 2.16362,-0.97883 3.29754,-1.31902 2.14737,-0.64421 4.46826,-0.61006 6.59512,-1.31902 0.93267,-0.3109 1.78443,-0.83124 2.63805,-1.31902 0.6882,-0.39327 1.41805,-1.87951 1.97854,-1.31902 0.56047,0.56048 -0.87937,1.31902 -1.31902,1.97853 -0.43969,0.65951 -0.85832,1.33353 -1.31904,1.97853 -0.63889,0.89444 -1.36881,1.72347 -1.97853,2.63805 -0.27266,0.40902 -0.38682,0.91002 -0.65952,1.31902 -0.17243,0.25869 -0.6595,0.34863 -0.6595,0.65951 0,0.3109 0.36456,0.75784 0.6595,0.65951 0.58988,-0.19662 0.87936,-0.87935 1.31903,-1.31902 0.21984,-0.21984 0.40083,-0.48706 0.65951,-0.65951 0.81801,-0.54536 1.85153,-0.72914 2.63805,-1.31902 0.49743,-0.37309 0.87935,-0.87935 1.31903,-1.31903 0.6595,-0.65951 1.31902,-1.31902 1.97852,-1.97853 0.43967,-0.43967 0.80168,-0.97411 1.31904,-1.31902 0.1829,-0.12195 0.46287,-0.0984 0.6595,0 1.12585,0.56293 0.6595,1.54277 0.6595,2.63804 0,1.75871 0,3.51741 0,5.27609 0,0.15667 -0.0738,2.49023 0,2.63805 0.72912,1.45822 0.40933,0.20466 1.31903,0.65951 0.2781,0.13908 0.38143,0.52048 0.65951,0.65953 0.39327,0.19661 0.92578,-0.19664 1.31902,0 0.55615,0.27805 0.72915,1.12238 1.31903,1.31902 0.89965,0.29987 2.5848,-0.0893 3.29755,-0.65952 2.43412,-1.9473 1.71041,-1.48338 2.63806,-3.95707 0.41567,-1.10848 1.08684,-2.13668 1.31901,-3.29756 0.21557,-1.07784 -0.31583,-2.24472 0,-3.29756 0.36835,-1.2278 1.45793,-2.12617 1.97856,-3.29755 0.36812,-0.82829 0.37286,-1.77815 0.6595,-2.63805 0.30687,-0.92065 1.52701,-2.69552 1.97854,-3.29756 0.18654,-0.24871 0.56119,-0.36456 0.65948,-0.65951 0.13907,-0.41711 -0.13907,-0.9019 0,-1.31902 0.19665,-0.58987 1.04096,-0.76288 1.31903,-1.31904 0.0984,-0.19661 -0.0984,-0.46288 0,-0.6595 0.35449,-0.70896 0.96457,-1.26957 1.31904,-1.97853 0.19661,-0.39325 -0.13907,-0.90191 0,-1.31902 0.15538,-0.46634 0.50405,-0.85268 0.6595,-1.31902 0.13907,-0.41712 -0.19663,-0.92576 0,-1.31901 0.13907,-0.2781 0.56121,-0.36459 0.65951,-0.65953 0.11146,-0.33426 0,-4.07743 0,-4.61658 0,-0.21983 -0.0984,-0.46289 0,-0.65951 0.13907,-0.27807 0.43968,-0.43969 0.65951,-0.65951"
         id="path6330"
         inkscape:connector-curvature="0"
         transform="translate(0,-540.36216)" />
      <path
         style="display:inline;fill:#000000;fill-opacity:1;stroke:none;stroke-width:1.02839;stroke-linecap:butt;stroke-linejoin:miter;stroke-miterlimit:4;stroke-dasharray:none;stroke-opacity:1"
         d="m 276.88194,650.63378 c -1.53885,-0.21984 -3.06666,-0.5403 -4.61658,-0.65951 -1.31513,-0.10128 -2.63805,0 -3.95707,0 -3.95706,0 -7.91414,0 -11.87121,0 -2.85788,0 -5.72356,-0.21112 -8.57363,0 -3.10049,0.22966 -6.13336,1.08058 -9.23316,1.31902 -2.63028,0.20233 -5.28451,-0.21037 -7.91414,0 -4.1498,0.33198 -10.88634,1.78156 -15.16876,2.63805 -2.1984,0.43967 -4.43947,0.70313 -6.59512,1.31902 -2.47413,0.7069 -4.80093,1.86319 -7.25463,2.63805 -1.72866,0.5459 -3.58653,0.66197 -5.27609,1.31902 -2.29072,0.89085 -4.42011,2.15281 -6.59512,3.29755 -2.00288,1.05416 -3.82613,2.47722 -5.93561,3.29758 -1.88897,0.73458 -4.03785,0.60734 -5.9356,1.31901 -3.14016,1.17754 -5.37583,3.24543 -7.91414,5.27609 -4.51139,3.60912 -2.30218,1.64269 -6.59512,5.93561 -3.29752,3.29755 -6.59509,6.59511 -9.89264,9.89264 -0.87935,0.87937 -1.70858,1.81187 -2.63806,2.63806 -1.05209,0.9352 -2.30219,1.6427 -3.29756,2.63805 -2.42499,2.42498 -3.21243,4.50309 -5.27609,7.25463 -1.03019,1.37359 -2.14895,2.68084 -3.29755,3.95707 -0.83192,0.92435 -1.97895,1.58348 -2.63805,2.63804 -0.4804,0.76862 -0.30245,1.80492 -0.65952,2.63805 -0.31221,0.72855 -0.92577,1.29033 -1.31902,1.97853 -0.48777,0.8536 -0.87934,1.75871 -1.31902,2.63804 -0.43967,0.87935 -1.00812,1.70536 -1.31903,2.63805 -0.13907,0.41711 0.10677,0.89249 0,1.31904 -0.23844,0.95377 -1.00812,1.70535 -1.31902,2.63804 -0.0696,0.20855 0,0.43967 0,0.65948 -0.21983,1.09921 -0.30503,2.23414 -0.65951,3.29757 -0.31088,0.93272 -0.93173,1.73442 -1.31902,2.63805 -0.27385,0.63898 -0.34861,1.35676 -0.65951,1.97854 -0.13906,0.27808 -0.49957,0.39292 -0.6595,0.65952 -0.50583,0.84304 -0.81322,1.795 -1.31903,2.63803 -0.16007,0.26659 -0.49957,0.39292 -0.6595,0.65953 -0.50584,0.84302 -0.72915,1.85151 -1.31904,2.63805 -0.74614,0.99486 -1.94821,1.6033 -2.63803,2.63804 -6.19907,9.29855 1.76936,-0.97045 -1.97855,5.27609 -0.31991,0.53317 -0.9991,0.78584 -1.31902,1.31901 -0.35766,0.59612 -0.43968,1.31902 -0.65952,1.97854 -0.21983,0.65952 -0.4909,1.30409 -0.65951,1.97853 -0.61007,2.44031 2.56872,-3.1589 -0.65951,3.29756 -0.27808,0.55614 -0.99911,0.78584 -1.31902,1.31902 -0.35766,0.59612 -0.34863,1.35675 -0.6595,1.97855 -0.13907,0.27807 -0.54406,0.37084 -0.65952,0.65951 -0.936,2.34002 -0.65952,4.80467 -0.65952,7.25462 0,0.65951 0,1.31901 0,1.97854 0,0.43967 0.13907,0.90189 0,1.31901 -0.31089,0.93268 -1.04892,1.69275 -1.31903,2.63806 -0.18116,0.63412 0,1.31902 0,1.97853 0,0.87934 0,1.75869 0,2.63802 0,2.63805 0,5.2761 0,7.91416 0,3.29756 0,6.59512 0,9.89266 0,0.6595 0,1.31902 0,1.97854 0,0.6595 -0.0934,1.32563 0,1.97854 -0.68199,1.70181 1.04636,2.59369 1.31903,3.95707 0.12938,0.64669 -0.10854,1.32799 0,1.97853 0.35566,2.13384 0.90616,2.08038 1.97854,3.95707 0.48777,0.8536 0.93176,1.73438 1.31902,2.63805 0.27386,0.63896 0.31461,1.37495 0.65951,1.97853 0.54536,0.95435 1.43318,1.68369 1.97854,2.63803 0.34491,0.6036 0.34861,1.35675 0.65951,1.97854 0.35448,0.70896 0.96456,1.2696 1.31902,1.97853 0.3109,0.62181 0.29106,1.38902 0.65953,1.97854 0.74604,1.19368 1.64266,2.30222 2.63803,3.29757 6.9718,6.97179 -1.91671,-3.60376 5.27609,4.61657 0.72382,0.82723 1.25472,1.81082 1.97854,2.63804 1.63781,1.8718 3.51738,3.5174 5.27609,5.2761 0.87935,0.87934 1.58349,1.97894 2.63805,2.63805 0.76864,0.48039 1.85105,0.2098 2.63805,0.65951 0.80978,0.46274 1.31902,1.31902 1.97852,1.97854 1.0992,1.09917 2.14212,2.25766 3.29756,3.29755 1.04629,0.94166 2.20811,1.74668 3.29755,2.63804 2.65774,2.17451 5.16698,4.53472 7.91414,6.5951 1.26821,0.95118 2.63806,1.75871 3.95707,2.63806 1.31901,0.87934 2.63804,1.75869 3.95708,2.63805 1.31901,0.87935 2.56537,1.87893 3.95705,2.63806 1.03932,0.56688 2.185,0.91442 3.29758,1.31901 7.84177,2.85155 -0.21452,-0.26892 9.23314,2.63802 1.13151,0.34817 2.21981,0.82915 3.29757,1.31904 1.34252,0.61025 2.52637,1.62088 3.95706,1.97854 1.27964,0.3199 2.64348,-0.11953 3.95708,0 7.53099,0.68463 -0.98822,0.46186 6.5951,1.97853 1.07785,0.21558 2.2051,-0.12146 3.29757,0 5.72329,0.63593 -0.48456,0.53836 5.27609,1.97854 0.85308,0.21327 1.75869,0 2.63805,0 1.09918,0.43969 2.1554,1.00753 3.29756,1.31902 8.24001,2.24727 0.82836,-0.0701 5.93558,0.65951 0.89731,0.12809 1.73615,0.56933 2.63806,0.65952 1.31247,0.13115 2.68451,-0.34706 3.95707,0 1.23669,0.33727 2.09732,1.52843 3.29756,1.97853 0.6175,0.23158 1.31903,0 1.97853,0 1.75869,0 3.53283,-0.23244 5.27609,0 1.5864,0.2115 3.03791,1.05591 4.61657,1.31902 1.08423,0.1807 2.19837,0 3.29757,0 1.09918,0 2.19836,0 3.29756,0 3.73722,0 7.47447,0 11.21168,0 7.47447,0 14.94894,0 22.4234,0 1.53886,0 3.07771,0 4.61657,0 1.53887,0 3.08961,0.19087 4.61659,0 1.71227,-0.21404 9.32959,-2.16753 11.21169,-2.63803 1.75869,-0.43969 3.59293,-0.64578 5.27607,-1.31904 1.64563,-0.65824 2.95706,-2.01573 4.6166,-2.63805 5.00815,-1.87804 6.24848,-0.91498 11.21169,-1.97853 5.23546,-1.12189 2.53392,-1.28927 7.25463,-2.63804 0.004,-9e-4 11.85217,-2.63358 11.8712,-2.63805 1.76465,-0.41521 3.61526,-0.59241 5.27611,-1.31902 1.90005,-0.83126 3.42108,-2.37008 5.27609,-3.29756 2.11775,-1.05887 4.41882,-1.70535 6.5951,-2.63804 2.44154,-1.04639 4.76211,-2.37926 7.25463,-3.29756 1.70105,-0.6267 3.57869,-0.68249 5.27609,-1.31902 6.91125,-2.59171 3.67871,-2.09024 9.23316,-5.93561 1.45723,-1.00885 3.24484,-1.5157 4.61657,-2.63804 1.08947,-0.89136 1.64269,-2.30221 2.63806,-3.29755 4.39674,-4.39676 2.41821,-0.65952 5.93561,-5.93561 0.54534,-0.81802 0.87934,-1.75869 1.31902,-2.63805 1.34457,-2.68916 2.55141,-4.9296 3.29754,-7.91413 0.32434,-1.2973 0.30767,-2.66698 0.65953,-3.95707 0.31149,-1.14216 1.10723,-2.13281 1.31902,-3.29756 0.43258,-2.37921 -0.47424,-4.88337 0,-7.25462 1.97218,-9.86095 1.31901,5.2108 1.31901,-8.57367 0,-3.7372 0,-7.47445 0,-11.21167 0,-1.75871 0.23245,-3.53283 0,-5.27609 -0.21151,-1.58642 -0.93086,-3.06393 -1.31901,-4.6166 -0.49157,-1.96627 -0.87935,-3.95707 -1.31902,-5.93558 -0.65953,-1.97854 -1.44777,-3.91873 -1.97856,-5.93561 -1.43533,-5.45431 -0.88233,-7.43196 -3.29753,-12.53072 -1.0975,-2.31692 -2.63807,-4.39675 -3.95707,-6.59512 -1.31902,-2.19837 -2.62023,-4.40753 -3.95708,-6.59512 -1.08145,-1.76965 -2.28079,-3.4685 -3.29755,-5.27609 -0.964,-1.71377 -1.51882,-3.65943 -2.63806,-5.27609 -0.88482,-1.27807 -2.25188,-2.14731 -3.29755,-3.29756 -1.15496,-1.27047 -2.32023,-2.54537 -3.29756,-3.95706 -5.24887,-7.58173 0.17676,-1.7625 -5.93559,-9.23316 -0.7875,-0.9625 -1.7587,-1.75871 -2.63806,-2.63805 -0.87934,-0.87935 -1.70856,-1.81185 -2.63804,-2.63804 -1.05208,-0.9352 -2.30219,-1.64268 -3.29756,-2.63805 -0.99535,-0.99535 -1.70285,-2.24547 -2.63805,-3.29756 -0.82619,-0.92946 -1.75869,-1.75869 -2.63804,-2.63803 -2.79303,-2.79304 -4.27319,-4.63461 -7.91414,-6.59513 -1.22418,-0.65918 -2.71348,-0.69723 -3.95707,-1.31902 -1.41789,-0.70895 -2.49373,-2.02833 -3.95706,-2.63805 -1.23435,-0.51431 -2.68848,-0.23664 -3.95707,-0.65951 -1.39903,-0.46633 -2.61453,-1.36829 -3.95707,-1.97855 -1.07774,-0.48987 -2.21982,-0.82912 -3.29756,-1.31901 -1.34253,-0.61023 -2.58783,-1.43084 -3.95707,-1.97852 -0.84158,-0.33664 -1.78934,-0.34126 -2.63803,-0.6595 -0.92055,-0.34522 -1.75871,-0.87936 -2.63806,-1.31904 -0.87936,-0.43967 -1.75871,-0.87936 -2.63803,-1.31902 -0.87935,-0.43969 -1.68427,-1.08058 -2.63806,-1.31903 -0.8531,-0.21327 -1.76754,0.12421 -2.63805,0 -1.91984,-0.27428 -2.32439,-0.99892 -3.95707,-1.97852 -0.42152,-0.25293 -0.87935,-0.43968 -1.31902,-0.65952 -0.43966,-0.21983 -0.83698,-0.5631 -1.31902,-0.65951 -0.64671,-0.12938 -1.33872,0.1599 -1.97852,0 -0.30162,-0.0755 -0.38146,-0.52049 -0.65952,-0.65952 -0.19661,-0.0984 -0.46287,0.0984 -0.65951,0 -0.55615,-0.27808 -0.76288,-1.04095 -1.31902,-1.31902 -0.19663,-0.0984 -0.46288,0.0984 -0.65952,0 -0.27809,-0.13907 -0.38143,-0.52048 -0.6595,-0.65951 -0.19663,-0.0984 -0.45096,0.0696 -0.65952,0 -0.46635,-0.15539 -0.85268,-0.50406 -1.31902,-0.65951 -0.20857,-0.0696 -0.46289,0.0984 -0.65951,0 -0.27807,-0.13907 -0.40085,-0.48706 -0.65952,-0.65951 -0.40902,-0.27267 -0.91,-0.38683 -1.31902,-0.65951 -0.51736,-0.34493 -0.76287,-1.04094 -1.31903,-1.31903 -0.19662,-0.0984 -0.43966,0 -0.6595,0 -0.43967,-0.21983 -0.91001,-0.38683 -1.31902,-0.65952 -0.2587,-0.17246 -0.43968,-0.43966 -0.65952,-0.65952 -0.43967,-0.43965 -0.87935,-0.87933 -1.31904,-1.319 -0.43965,-0.43967 -0.9741,-0.80166 -1.31901,-1.31902 -0.54533,-0.81803 -0.77368,-1.82003 -1.319,-2.63805 -0.17246,-0.25867 -0.43969,-0.43967 -0.65953,-0.65951 -0.87935,-0.87936 -1.7587,-1.7587 -2.63804,-2.63805 -0.21985,-0.21984 -0.43968,-0.43967 -0.65951,-0.65951 -0.21984,-0.21983 -0.52048,-0.38143 -0.65952,-0.65951 -0.97041,-1.94082 1.5278,0.8683 -0.65951,-1.31903 -0.96978,-0.96978 -3.77567,-3.34683 -3.95707,-4.61657 -0.15555,-1.08816 0,-2.19838 0,-3.29756 z"
         id="path6332"
         inkscape:connector-curvature="0"
         transform="translate(0,-540.36216)" />
      <path
         style="display:inline;fill:#000000;fill-opacity:1;stroke:none;stroke-width:1.02839;stroke-linecap:butt;stroke-linejoin:miter;stroke-miterlimit:4;stroke-dasharray:none;stroke-opacity:1"
         d="m 395.59401,833.31843 c 7.06359,2.82545 0.35681,0.61629 5.27609,1.31904 0.89731,0.12824 1.73717,0.55943 2.63803,0.65951 1.09247,0.12147 2.21971,-0.21555 3.29757,0 1.16086,0.23217 2.13279,1.10724 3.29756,1.31903 1.29773,0.23595 2.68452,-0.34706 3.95705,0 1.23669,0.33727 2.12618,1.45791 3.29756,1.97853 0.8283,0.36812 1.77815,0.37287 2.63804,0.65951 0.46637,0.15537 0.86262,0.47694 1.31904,0.65951 0.64545,0.25819 1.29684,0.52318 1.97854,0.65952 0.43113,0.0862 0.89247,-0.10677 1.31902,0 1.06474,0.26617 1.30811,0.64861 1.97853,1.31902 0.21983,0.21982 0.52047,0.38142 0.65952,0.65951 0.0984,0.19662 0,0.43966 0,0.65952 0.43966,0.43966 0.97411,0.80165 1.319,1.31902 0.12195,0.18291 0,0.43966 0,0.6595 0,0.43967 -0.0862,0.88788 0,1.31902 0.13648,0.68169 0.38568,1.33956 0.65952,1.97854 0.38728,0.90365 1.04894,1.69272 1.31902,2.63803 0.18119,0.63414 -0.20856,1.35287 0,1.97853 0.25066,0.75198 0.84344,1.34445 1.31902,1.97856 0.18656,0.24871 0.56122,0.36456 0.65952,0.6595 0.10693,0.3204 0,3.94325 0,4.61659 0,0.55011 0.0938,3.15695 0,3.29753 -1.31904,1.97854 -0.98927,0.65953 -1.97854,1.97854 -0.47558,0.63412 -0.75855,1.41807 -1.31902,1.97854 -0.15538,0.15554 -0.43968,0 -0.65952,0 -0.21983,0.21985 -0.47295,0.41081 -0.6595,0.65952 -0.17502,0.23336 -2.60108,3.93243 -2.63805,3.95707 -0.75416,0.50278 -1.86941,0.17913 -2.63804,0.65951 -1.05456,0.6591 -1.75871,1.75869 -2.63806,2.63806 -1.09918,0.87932 -2.09872,1.90028 -3.29754,2.63803 -1.67459,1.03053 -3.54115,1.71274 -5.27611,2.63804 -1.56385,0.83407 -3.07771,1.75869 -4.61656,2.63804 -1.53888,0.87938 -3.1832,1.5956 -4.61658,2.63805 -1.00574,0.73146 -1.62611,1.91524 -2.63806,2.63805 -0.56569,0.40408 -1.33955,0.38566 -1.97854,0.65952 -0.90363,0.38727 -1.82002,0.77366 -2.63804,1.31902 -0.18292,0.12195 0.44394,0.0431 0.65953,0 0.88879,-0.17776 1.75174,-0.46961 2.63803,-0.65952 2.19216,-0.46974 4.47908,-0.5784 6.59513,-1.31902 2.31986,-0.81196 4.39673,-2.19836 6.59509,-3.29757 2.1984,-1.09915 4.42013,-2.15281 6.59512,-3.29755 2.0029,-1.05414 3.82613,-2.47721 5.93561,-3.29753 1.88899,-0.73463 3.94817,-0.92156 5.93559,-1.31904 1.31127,-0.26225 2.71552,-0.1629 3.95707,-0.65951 1.0206,-0.40822 1.63739,-1.52369 2.63806,-1.97853 1.45699,-0.66228 3.06391,-0.93087 4.61658,-1.31903 0.21327,-0.0533 0.65952,-0.21983 0.65952,0 0,0.21982 -0.44625,-0.0533 -0.65952,0 -0.69441,0.17361 -2.19315,0.42922 -2.63805,1.31903 -0.31089,0.62179 -0.4909,1.3041 -0.65952,1.97853 -0.0533,0.21326 0,0.43966 0,0.65951 0,0.43967 0,0.87934 0,1.31904 0,1.75869 0,3.51738 0,5.27607 0,1.31901 0,2.63805 0,3.95707 0,0.65951 -0.20855,1.35287 0,1.97853 0.41957,1.25871 1.29714,0.31881 1.97855,0.65952 0.27806,0.13907 0.36456,0.56119 0.65951,0.6595 0.62566,0.20857 1.31903,0 1.97854,0 1.29321,0 2.92744,0.37011 3.95705,-0.6595 0.15538,-0.15538 0,-0.43967 0,-0.65952 0,-1.09919 0,-2.19836 0,-3.29755 0,-3.07771 0,-6.15543 0,-9.23316 0,-1.0992 0.21558,-2.21972 0,-3.29756 -0.0964,-0.48202 -0.5631,-0.83699 -0.6595,-1.31902 -0.12938,-0.64669 0.12922,-1.33184 0,-1.97853 -0.0908,-0.45344 -1.34417,-1.9534 -0.65951,-2.63805 0.21984,-0.21983 0.43967,0.43967 0.65951,0.65951 0.6595,0.65951 1.31902,1.31902 1.97854,1.97854 0.43967,0.43967 0.87934,0.87935 1.31902,1.31902 0.21984,0.21982 0.48706,0.40082 0.65949,0.65951 0.40165,0.60246 0.56297,1.60051 1.31904,1.97854 0.14779,0.074 2.48133,0 2.63805,0 1.04484,0 1.78191,0.19662 2.63804,-0.65952 0.15538,-0.15538 0,-0.43969 0,-0.65951 0,-2.19837 0,-4.39675 0,-6.59511 0,-1.53887 0,-3.07771 0,-4.61658 0,-1.09918 0,-2.19838 0,-3.29756 0,-0.43968 0.0863,-0.88788 0,-1.31902 -0.13648,-0.68168 -0.34863,-1.35676 -0.6595,-1.97854 -0.13907,-0.27808 -0.43969,-0.43967 -0.65952,-0.6595 -0.75459,-0.75459 -0.91976,-0.78072 -1.31902,-1.97856 -0.13907,-0.41708 0.24388,-0.95319 0,-1.31901 -0.49161,-0.73739 -1.92023,-1.92021 -2.63805,-2.63804 -1.09918,-1.09919 -2.19838,-2.19838 -3.29755,-3.29757 -0.65952,-0.6595 -1.39589,-1.25021 -1.97854,-1.97852 -0.49515,-0.61896 -0.87935,-1.31902 -1.31902,-1.97853 -0.43967,-0.6595 -0.96456,-1.2696 -1.31902,-1.97854 -0.0984,-0.19662 0.0431,-0.44396 0,-0.65951 -0.17776,-0.88881 -0.25415,-1.82733 -0.65951,-2.63804 -0.27809,-0.55617 -0.99912,-0.78586 -1.31903,-1.31903 -0.71534,-1.19224 -0.69724,-2.71347 -1.31902,-3.95708 -0.35448,-0.70895 -0.99711,-1.25421 -1.31903,-1.97852 -0.56467,-1.27053 -0.80265,-2.66614 -1.31902,-3.95707 -0.36513,-0.91283 -0.93174,-1.7344 -1.31903,-2.63804 -0.27384,-0.63899 -0.49091,-1.30413 -0.6595,-1.97854 -0.0533,-0.21328 0.0984,-0.46289 0,-0.65951 -0.35449,-0.70896 -0.84344,-1.34443 -1.31904,-1.97854 -0.37305,-0.49745 -1.04092,-0.76287 -1.31901,-1.31902 -0.0984,-0.19663 0.15538,-0.50406 0,-0.65951 -0.80327,-0.80329 -1.47348,-0.30894 -1.97854,-1.31902 -0.0984,-0.19664 0.0984,-0.4629 0,-0.65952 -0.13907,-0.27807 -0.52047,-0.38142 -0.65952,-0.65952 -0.0984,-0.19661 0.0984,-0.46288 0,-0.65951 -0.13907,-0.27807 -0.52046,-0.38141 -0.6595,-0.6595 -0.31089,-0.62179 -0.30183,-1.3824 -0.65952,-1.97855 -1.97852,-3.29754 -0.6595,0 -1.97852,-1.97851 -0.64073,-0.96111 -0.41173,-1.37368 -1.31903,-1.97854 -0.40901,-0.27269 -0.97143,-0.31193 -1.31902,-0.65951 -0.34759,-0.3476 -0.31191,-0.97144 -0.6595,-1.31902 -1.72897,-1.72897 -2.59444,-1.31902 -4.61659,-1.31902 -0.43968,0 -0.87935,0 -1.31903,0 -0.21983,0 -0.45095,0.0696 -0.6595,0 -0.46636,-0.15538 -0.84212,-0.5403 -1.31902,-0.65952 -0.5888,-0.14714 -2.53417,0 -3.29758,0 -0.43965,0 -0.9019,0.13907 -1.31902,0 -0.29493,-0.0984 -0.38142,-0.52048 -0.65949,-0.65951 -0.40048,-0.20024 -3.55661,0.20023 -3.95707,0 -0.2781,-0.13907 -0.36459,-0.56119 -0.65953,-0.65953 -0.31375,-0.10466 -3.0936,0.136 -3.29754,0 -0.51737,-0.34489 -0.80166,-0.9741 -1.31902,-1.31901 -0.18294,-0.12195 -0.43969,0 -0.65953,0 -0.21982,-0.21983 -0.43967,-0.43968 -0.65951,-0.65952"
         id="path6334"
         inkscape:connector-curvature="0"
         transform="translate(0,-540.36216)" />
      <path
         style="display:inline;fill:#000000;fill-opacity:1;stroke:none;stroke-width:1.02839;stroke-linecap:butt;stroke-linejoin:miter;stroke-miterlimit:4;stroke-dasharray:none;stroke-opacity:1"
         d="m 250.50151,868.93206 c -1.1744,2.58655 -2.16281,3.4818 -3.95709,5.27609 -0.43968,0.43967 -0.97411,0.80166 -1.31902,1.31904 -0.27268,0.409 -0.38685,0.91 -0.65951,1.31901 -0.17246,0.25868 -0.43969,0.43966 -0.65951,0.65951 -0.21983,0.21984 -0.40085,0.48706 -0.65952,0.65951 -0.40902,0.27266 -0.97142,0.31191 -1.31904,0.65953 -1.36453,1.36455 2.08522,-0.0535 -0.65949,1.31901 -0.62179,0.31089 -1.35676,0.34859 -1.97854,0.6595 -0.2664,0.13325 -2.61826,2.61829 -2.63806,2.63804 -1.09917,1.09921 -2.19836,2.19839 -3.29753,3.29757 -0.21985,0.21983 -0.43967,0.43967 -0.65952,0.65951 -0.21984,0.21982 -0.52048,0.38143 -0.6595,0.65951 -0.0984,0.19662 0.0984,0.46288 0,0.65951 -0.13907,0.27808 -0.43969,0.43967 -0.65952,0.65952 -0.42238,0.42236 -2.2266,2.02086 -2.63805,2.63804 -0.27268,0.40902 -0.36456,0.92577 -0.65952,1.31904 -0.37308,0.49741 -0.87934,0.87932 -1.31901,1.31901 -1.0992,1.09918 -2.19837,2.19837 -3.29756,3.29755 -0.43969,0.43968 -0.97411,0.80168 -1.31904,1.31902 -0.27266,0.409 -0.38682,0.91003 -0.65949,1.31903 -0.21472,0.32208 -2.31597,2.42334 -2.63806,2.63804 -0.409,0.27268 -0.91001,0.38685 -1.31902,0.65951 -0.25868,0.17245 -0.43967,0.43969 -0.65952,0.65952 -0.43965,0.43968 -0.87934,0.87935 -1.319,1.31902 -0.83205,0.83203 -1.94892,1.71923 -2.63805,2.63805 -2.39566,3.19418 0.69816,-0.0387 -1.31902,1.97853 -1.09919,1.09918 -2.19836,2.19837 -3.29757,3.29757 -0.43967,0.43966 -1.12239,0.72912 -1.31902,1.31902 -0.0984,0.29494 0.35467,0.59853 0.65952,0.6595 2.42504,0.48501 3.70216,-0.32638 5.9356,-1.31902 10.40609,-4.62494 -3.87122,1.60583 4.61658,-2.63805 0.62178,-0.3109 1.30411,-0.4909 1.97854,-0.65951 0.21326,-0.0533 0.44624,0.0533 0.65949,0 0.69443,-0.17361 2.19315,-0.42921 2.63806,-1.31902 0.0984,-0.19663 0,-0.43967 0,-0.6595 0,-0.21985 0,-0.4397 0,-0.65952 0,-1.8289 -0.0984,1.05275 0.65952,-1.97854 0.10676,-0.42654 -0.13907,-0.90189 0,-1.31903 0.81496,-2.44486 0.6595,0.80391 0.6595,-1.31902 0,-0.43966 0.42656,-1.42566 0,-1.31902 -1.04515,0.26129 -3.04326,2.38375 -3.95708,3.29756 -0.43965,0.43968 -0.93057,0.83348 -1.31901,1.31902 -0.49515,0.61894 -0.75855,1.41805 -1.31902,1.97855 -0.34759,0.34758 -0.91002,0.38682 -1.31904,0.6595 -0.25867,0.17245 -0.43965,0.43967 -0.65951,0.65951 -0.21983,0.21984 -0.56119,0.36457 -0.65949,0.65951 -0.13907,0.41712 0.10676,0.89249 0,1.31903 -0.11936,0.47689 -0.50407,0.85268 -0.65951,1.31903 -0.19788,0.59354 0.19786,1.38496 0,1.97852 -0.15539,0.46634 -0.50408,0.85268 -0.65952,1.31902 -0.65442,1.96325 1.56163,-1.35318 -0.65951,1.97854 -0.17245,0.25867 -0.58412,0.3579 -0.65951,0.65951 0,4.67773 0.46633,0.38634 -0.65951,2.63804 -0.0984,0.19663 0,0.43967 0,0.65952 0,0.43968 0.13907,0.9019 0,1.31902 -2.18732,2.18733 0,-0.3109 0,0.65951 0,0.21984 -0.87935,0 -0.65951,0 0.65951,0 1.31902,0 1.97853,0 0.21983,0 0.46287,0.0984 0.65951,0 2.10896,-1.05448 3.63992,-2.98044 5.27609,-4.61658 1.09919,-1.09918 1.96459,-2.4978 3.29755,-3.29756 0.96122,-0.57672 2.26726,-0.21794 3.29757,-0.65951 1.59005,-0.68146 1.10145,-1.54171 1.97852,-2.63803 0.58266,-0.72832 1.39588,-1.25024 1.97855,-1.97855 0.30709,-0.38385 0.36457,-0.92577 0.65951,-1.31902 0.37307,-0.49745 0.87934,-0.87934 1.31903,-1.31901 0.87935,-0.87935 1.75868,-1.75871 2.63802,-2.63806 0.43969,-0.43969 0.87936,-1.75871 1.31902,-1.31903 0.43969,0.43969 -0.93058,0.83349 -1.31902,1.31903 -0.49514,0.61893 -0.75853,1.41805 -1.319,1.97854 -0.99537,0.99534 -2.45299,1.51192 -3.29756,2.63804 -0.54385,0.72512 -0.34125,1.78934 -0.65951,2.63806 -0.3452,0.92052 -0.81321,1.79501 -1.31904,2.63803 -0.16007,0.26658 -0.43967,0.43967 -0.6595,0.65951 -0.43967,0.43967 -0.87935,0.87936 -1.31902,1.31902 -0.21984,0.21985 -0.52048,0.38145 -0.65951,0.65952 -0.0984,0.19662 0.12194,0.47659 0,0.65951 -0.34491,0.51735 -1.04096,0.76287 -1.31902,1.31902 -0.0517,0.10322 0,3.11316 0,3.29756 0,0.67334 -0.10693,4.29618 0,4.61659 0.0984,0.29493 0.48704,0.40082 0.6595,0.6595 0.40163,0.60246 0.56294,1.6005 1.31903,1.97853 0.0346,0.0172 1.94402,0.0172 1.97852,0 0.27808,-0.13907 0.43968,-0.43967 0.65952,-0.65949 0.65952,-0.65953 1.31903,-1.31904 1.97854,-1.97854 0.21982,-0.21986 0.5841,-0.35792 0.65951,-0.65952 0.1599,-0.63983 -0.12938,-1.33184 0,-1.97854 0.0964,-0.48202 0.54028,-0.84213 0.65952,-1.31902 0.10676,-0.42655 -0.10677,-0.89247 0,-1.31903 0.1192,-0.47689 0.56309,-0.837 0.6595,-1.31902 0.12922,-0.64669 -0.25978,-1.37234 0,-1.97853 0.43299,-1.01031 1.44473,-1.67719 1.97852,-2.63805 0.43969,-1.09916 0.87936,-2.19837 1.31902,-3.29755 0,-0.21984 -0.0696,-0.45096 0,-0.6595 0.31092,-0.93271 1.00814,-1.70537 1.31904,-2.63806 0.13906,-0.41712 -0.24389,-0.95318 0,-1.31902 0.99972,-1.49958 1.97853,-1.18344 1.97853,-3.29756 0,-0.39414 -0.15538,-1.31903 0.65952,-1.31903 0.21982,0 0.21982,0.65952 0,0.65952 -0.21985,0 0,-0.87934 0,-0.65952 0,3.51739 0,7.03479 0,10.55219 0,0.68354 0.15182,3.65339 0,3.95707 -1.48871,2.97741 -1.31902,0.96178 -1.31902,3.29756 0,0.21983 -0.0984,0.46288 0,0.6595 0.39569,0.79142 1.58281,1.18714 1.97851,1.97854 0.0984,0.19663 -0.0984,0.4629 0,0.65951 0.27808,0.55615 0.97413,0.80168 1.31902,1.31904 0.2727,0.40902 0.50408,0.85266 0.65952,1.31902 0.15538,0.46633 -0.42781,1.97854 0.65952,1.97854 0.31089,0 0.43969,-0.43968 0.65952,-0.65953 0.43967,-0.43967 0.87933,-0.87936 1.31902,-1.31901 0.21982,-0.21986 0.52048,-0.38145 0.65951,-0.65952 0.3109,-0.62179 0.40133,-1.33307 0.65951,-1.97854 0.18256,-0.45641 0.5403,-0.84213 0.65951,-1.31902 0.15991,-0.63982 -0.20855,-1.35287 0,-1.97853 0.3109,-0.9327 1.00813,-1.70534 1.31902,-2.63805 0.0696,-0.20855 0,-0.43967 0,-0.65951 0,-0.43967 0,-0.87934 0,-1.31903 0,-1.31902 0,-2.63804 0,-3.95706 0,-0.6595 -0.16006,-1.33872 0,-1.97853 0.0755,-0.30162 0.5612,-0.36459 0.65952,-0.65952 0.13907,-0.41711 -0.19663,-0.92577 0,-1.31902 0.27807,-0.55616 1.12238,-0.72915 1.31904,-1.31901 0.27805,-0.83424 0,-1.75871 0,-2.63806 0,-0.87934 0,-1.75871 0,-2.63805 0,-0.21983 -0.12195,-0.47658 0,-0.65951 1.63166,-2.4475 1.3224,-0.0171 1.97851,-3.29756 0.0863,-0.43114 0,-0.87933 0,-1.31902 0,-0.65951 0,-1.31902 0,-1.97853 0,-2.19838 0,-4.39675 0,-6.59512 0,-1.09919 -0.21557,-2.21971 0,-3.29755 0.0964,-0.48202 0.5403,-0.84213 0.6595,-1.31904 0.10676,-0.42654 0,-0.87932 0,-1.31901 0.21986,-0.43966 0.50408,-0.85269 0.65952,-1.31902 0.0696,-0.20855 0,-0.43967 0,-0.65952 0.21985,-0.87935 0.32287,-1.79645 0.6595,-2.63804 0.11549,-0.28865 0.43969,-0.43967 0.65951,-0.65949 0.21986,-0.4397 0.5041,-0.8527 0.65953,-1.31904 0.19784,-0.59357 -0.19786,-1.38498 0,-1.97852 0.0984,-0.29496 0.52048,-0.38144 0.6595,-0.65952 0.19663,-0.39325 -0.13908,-0.90193 0,-1.31903 0.15538,-0.46635 0.43968,-0.87933 0.65952,-1.31902 0,-0.65952 -0.12923,-1.33184 0,-1.97854 0.23021,-1.15106 1.20961,-1.86912 1.97853,-2.63805 0.21985,-0.21983 0.52048,-0.38143 0.65952,-0.6595 0.0984,-0.19663 -0.0696,-0.45097 0,-0.65952 0.15555,-0.46634 0.50406,-0.85267 0.6595,-1.31904 0.0696,-0.20853 -0.12195,-0.47657 0,-0.65949 0.34492,-0.51737 0.87936,-0.87935 1.31903,-1.31902"
         id="path6336"
         inkscape:connector-curvature="0"
         transform="translate(0,-540.36216)" />
      <path
         style="display:inline;fill:#000000;fill-opacity:1;stroke:none;stroke-width:1.02839;stroke-linecap:butt;stroke-linejoin:miter;stroke-miterlimit:4;stroke-dasharray:none;stroke-opacity:1"
         d="m 70.454871,762.75073 c -3.0809,0 -3.157299,-0.26661 -5.935605,0.6595 -1.123109,0.37437 -2.174446,0.94465 -3.297556,1.31903 -0.879349,0.21983 -1.758699,0.43968 -2.63804,0.6595 -0.43968,0.21985 -0.852677,0.50406 -1.31903,0.65953 -0.208551,0.0696 -0.462875,-0.0984 -0.659505,0 -0.278078,0.13906 -0.381437,0.52048 -0.659515,0.65949 -0.39326,0.19664 -0.92577,-0.19662 -1.31902,0 -0.278078,0.13907 -0.43968,0.43969 -0.659515,0.65952 -0.43967,0.43969 -0.801657,0.97413 -1.31902,1.31903 -0.182921,0.12195 -0.462885,-0.0984 -0.659515,0 -2.011218,1.00561 1.20621,0.52285 -1.978535,1.31903 -0.426545,0.10676 -0.901908,-0.13908 -1.31902,0 -0.294941,0.0984 -0.439671,0.43965 -0.659515,0.65951 -0.439671,0.43966 -0.974112,0.80166 -1.31902,1.31902 -1.152523,1.72877 -0.246509,1.15252 -1.319021,3.29754 -0.278077,0.55616 -1.122399,0.72915 -1.319029,1.31904 -0.139035,0.4171 0,0.87934 0,1.31901 0,0.43968 -0.139035,0.90192 0,1.31902 0.155466,0.46636 0.504067,0.85267 0.659514,1.31902 0.06954,0.20857 -0.09831,0.4629 0,0.65951 0.139035,0.27808 0.520481,0.38145 0.659515,0.65953 0.09832,0.19661 -0.09832,0.46287 0,0.65951 0.139034,0.27807 0.561195,0.36457 0.659506,0.65952 0.139043,0.41709 -0.139034,0.9019 0,1.31902 0.09832,0.29495 0.439679,0.43967 0.659515,0.65949 0.659514,0.65953 1.31902,1.31902 1.978535,1.97854 0.387887,0.38789 2.332643,2.48536 2.638049,2.63806 1.330071,0.66502 2.145024,0.45463 3.297556,1.31902 0.497436,0.37309 0.762874,1.04094 1.31902,1.31901 0.39326,0.19664 0.901908,-0.13906 1.31902,0 0.29495,0.0984 0.381437,0.52049 0.659515,0.6595 0.19663,0.0984 0.462885,-0.0984 0.659515,0 1.629916,0.81498 0.39414,0.65952 0,0.65952"
         id="path6338"
         inkscape:connector-curvature="0"
         transform="translate(0,-540.36216)" />
      <path
         style="display:inline;fill:#000000;fill-opacity:1;stroke:none;stroke-width:1.02839;stroke-linecap:butt;stroke-linejoin:miter;stroke-miterlimit:4;stroke-dasharray:none;stroke-opacity:1"
         d="m 134.42747,733.73223 c -3.8144,1.98612 -6.80313,5.20083 -11.21168,5.93558 -1.30109,0.21686 -2.67745,-0.31988 -3.95708,0 -10.01984,2.50497 -3.27417,2.17442 -11.87119,5.93561 -1.66085,0.72662 -3.5174,0.87935 -5.27611,1.31902 -2.198358,1.31904 -4.252357,2.91584 -6.595107,3.95709 -1.65658,0.73624 -3.566613,0.71566 -5.276091,1.31902 -0.475821,0.16793 -6.886152,2.97269 -8.573645,3.95707 -1.791428,1.04498 -3.497707,2.23052 -5.2761,3.29754 -1.51981,0.9119 -3.198679,1.57462 -4.616576,2.63805 -0.393268,0.29494 -0.31191,0.97143 -0.659496,1.31902 -0.777258,0.77724 -1.810834,1.25472 -2.638059,1.97853 -1.699954,1.48747 -4.049694,4.09602 -5.27609,5.93562 -2.036715,3.05508 -3.090424,5.10706 -3.957071,8.57363 -0.324317,1.2973 -0.292146,2.67132 -0.659505,3.95708 -0.516007,1.80601 -1.632396,3.42997 -1.978535,5.2761 -0.648213,3.45714 0.578255,7.08263 0,10.55217 -0.161629,0.96977 -1.105753,1.6783 -1.31903,2.63805 -0.23844,1.07301 0,2.19836 0,3.29756 0,1.31902 0.10955,2.64258 0,3.95707 -0.11104,1.3326 -0.538439,2.62534 -0.659505,3.95705 -0.09953,1.09468 0,2.19838 0,3.29757 0,0.87935 0.213268,1.78495 0,2.63804 -0.23845,0.95379 -0.953898,1.72524 -1.31903,2.63805 -0.08166,0.20412 0,0.43966 0,0.65952 0,1.09916 0,2.19837 0,3.29755 0,1.31902 0,2.63804 0,3.95706 0,2.0665 -0.189308,3.95501 0.659515,5.93561 0.312234,0.72855 0.964544,1.26959 1.31902,1.97854 0.621801,1.24357 0.629212,2.74989 1.31903,3.95707 1.194935,2.09114 2.276817,2.5751 3.297555,4.61657 0.310896,0.6218 0.30184,1.38241 0.659506,1.97854 0.319915,0.53319 0.989474,0.79174 1.319029,1.31902 0.781597,1.25056 1.160509,2.73003 1.978535,3.95707 0.952407,1.4286 2.210292,2.62819 3.297556,3.95707 3.377287,4.1278 2.327926,3.46485 7.254625,7.2546 1.434248,1.1033 7.050036,4.66667 8.573646,5.27611 1.683163,0.67328 3.592945,0.64577 5.27609,1.31902 1.645611,0.65826 2.970965,1.97981 4.616576,2.63805 1.683182,0.67326 3.52447,0.85192 5.276091,1.31904 1.546402,0.41236 3.107396,0.78634 4.616586,1.31901 2.23274,0.78801 4.27817,2.15027 6.59513,2.63804 1.93608,0.4076 3.96792,-0.20711 5.93558,0 2.22959,0.23469 4.36332,1.10647 6.59512,1.31902 2.40732,0.22926 4.83642,0 7.25462,0 2.19838,0 4.39675,0 6.59511,0 2.19838,0 4.40767,0.21875 6.59512,0 2.32158,-0.23215 12.83772,-2.74039 14.50926,-3.29755 2.71122,-0.90375 5.22519,-2.32954 7.91412,-3.29756 2.81337,-1.0128 5.78914,-1.54846 8.57367,-2.63805 2.28886,-0.89564 4.37601,-2.24084 6.59512,-3.29755 2.39826,-1.14203 4.85635,-2.15554 7.2546,-3.29758 0.70241,-0.33446 9.85356,-4.78638 11.21169,-5.93558 1.54723,-1.3092 2.57794,-3.13136 3.95707,-4.61658 1.48087,-1.59476 2.99002,-3.17075 4.61659,-4.61658 3.56119,-3.1655 -1.08526,6.12761 4.61659,-5.27608 0.71573,-1.43149 0.74449,-3.12282 1.31902,-4.61659 0.52938,-1.37641 1.51218,-2.55804 1.97854,-3.95707 0.42287,-1.26859 0.35881,-2.65409 0.65951,-3.95707 1.38279,-5.99214 1.5962,-3.78021 2.63804,-10.55218 0.13373,-0.86913 0,-1.75869 0,-2.63806 0,-2.63803 0,-5.27609 0,-7.91412 0,-3.5174 0,-7.0348 0,-10.55218 0,-0.87935 0.0971,-1.76407 0,-2.63806 -0.12389,-1.1141 -0.55802,-2.18121 -0.65952,-3.29755 -0.11936,-1.31361 0.38792,-2.69636 0,-3.95706 -0.52122,-1.69401 -2.03233,-2.95091 -2.63803,-4.61658 -0.30053,-0.8264 0.17245,-1.77579 0,-2.63804 -0.27268,-1.36338 -0.84388,-2.65042 -1.31903,-3.95709 -0.40458,-1.11258 -0.87935,-2.19836 -1.31902,-3.29756 -0.87935,-1.31903 -2.02833,-2.49373 -2.63805,-3.95705 -2.65711,-6.37705 1.28834,-1.69482 -1.97853,-6.59513 -0.78082,-1.17123 -1.77385,-2.18642 -2.63806,-3.29755 -0.67482,-0.86764 -1.25471,-1.81083 -1.97853,-2.63805 -1.63781,-1.87179 -3.5174,-3.51739 -5.27608,-5.27609 -0.87936,-0.87934 -1.70215,-1.81914 -2.63805,-2.63804 -0.82722,-0.72382 -1.81083,-1.25472 -2.63804,-1.97854 -0.9359,-0.8189 -1.64318,-1.89189 -2.63806,-2.63805 -1.94428,-1.4582 -2.63558,-1.12952 -4.61658,-1.97853 -0.90365,-0.38726 -1.77862,-0.84155 -2.63805,-1.31902 -1.12053,-0.62253 -2.0973,-1.52843 -3.29754,-1.97854 -0.61752,-0.23157 -1.33184,0.12938 -1.97853,0 -0.48202,-0.0964 -0.83701,-0.56311 -1.31904,-0.65951 -0.6467,-0.12922 -1.3662,0.24494 -1.97852,0 -0.57734,-0.23093 -0.72915,-1.12238 -1.31904,-1.31903 -0.83421,-0.27806 -1.76752,0.12438 -2.63805,0 -0.68819,-0.0984 -1.29684,-0.52315 -1.97853,-0.65949 -0.43113,-0.0863 -0.87935,0 -1.31902,0 -0.43967,-0.21985 -0.85268,-0.50408 -1.31902,-0.65951 -0.20855,-0.0696 -0.43967,0 -0.65952,0 -0.43965,0 -0.87934,0 -1.31903,0 -1.09916,0 -2.19837,0 -3.29752,0 -0.43969,0 -0.87938,0 -1.31903,0 -0.21985,0 -0.45097,0.0696 -0.65953,0 -0.46633,-0.15538 -0.85267,-0.50408 -1.31901,-0.65951 -0.6152,-0.20507 -2.68802,0.20317 -3.29755,0 -0.58989,-0.19666 -0.76288,-1.04095 -1.31904,-1.31902 -0.19662,-0.0984 -0.45095,0.0696 -0.6595,0 -0.46636,-0.15539 -0.85269,-0.50409 -1.31904,-0.65952 -0.38918,-0.12986 -2.92906,0 -3.29755,0 -2.19836,0 -4.39673,0 -6.59511,0 -0.34893,0 -1.71252,0.11404 -1.97854,0 -1.35547,-0.58092 -2.48235,-1.97853 -3.95707,-1.97853 -1.09918,0 -1.62773,1.54553 -2.63805,1.97853 -0.60619,0.25979 -1.31902,0 -1.97853,0 -1.31902,0 -2.63803,0 -3.95706,0"
         id="path6340"
         inkscape:connector-curvature="0"
         transform="translate(0,-540.36216)" />
    </g>
  </g>
</svg>
